<svg id="svg" version="1.1" xmlns="http://www.w3.org/2000/svg" xmlns:xlink="http://www.w3.org/1999/xlink" width="400" height="400" viewBox="0, 0, 400,400"><g id="svgg"><path id="path0" d="M273.800 56.800 C 273.067 57.115,273.084 57.146,274.000 57.166 C 274.550 57.178,275.270 57.013,275.600 56.800 C 276.387 56.291,274.984 56.291,273.800 56.800 M280.600 56.800 C 281.040 56.989,281.717 57.156,282.104 57.172 C 283.718 57.236,286.761 59.117,289.135 61.516 C 290.529 62.925,291.487 63.746,291.262 63.339 C 290.000 61.052,286.150 58.090,283.086 57.050 C 281.027 56.351,279.106 56.158,280.600 56.800 M270.627 58.065 C 268.809 59.023,264.794 62.897,264.813 63.674 C 264.820 63.963,265.213 63.680,265.687 63.044 C 267.318 60.855,269.169 59.282,271.300 58.273 C 272.125 57.882,272.800 57.481,272.800 57.381 C 272.800 57.045,272.207 57.231,270.627 58.065 M137.120 65.280 C 137.741 65.901,137.777 77.437,137.165 79.754 C 135.415 86.378,134.119 89.582,131.838 92.918 C 131.267 93.753,130.800 94.618,130.800 94.841 C 130.800 95.641,143.711 94.792,144.226 93.958 C 144.348 93.761,144.889 93.600,145.429 93.600 C 145.969 93.600,146.723 93.439,147.105 93.242 C 147.487 93.045,149.060 92.287,150.600 91.557 C 152.140 90.827,154.709 89.360,156.309 88.297 C 157.909 87.234,159.377 86.462,159.572 86.583 C 159.767 86.703,159.447 85.667,158.863 84.281 C 154.972 75.060,148.742 69.058,139.630 65.753 C 136.609 64.657,136.471 64.631,137.120 65.280 M105.124 76.179 C 101.021 81.523,98.364 89.120,98.424 95.331 C 98.446 97.572,99.849 105.856,99.955 104.370 C 100.051 103.020,105.535 99.440,110.331 97.595 C 111.579 97.115,112.960 96.573,113.400 96.391 C 115.578 95.490,121.125 94.653,125.100 94.626 C 128.348 94.603,128.800 94.514,128.800 93.900 C 128.800 93.515,128.662 93.200,128.494 93.200 C 128.326 93.200,127.896 92.524,127.538 91.697 C 125.821 87.735,118.958 80.546,114.460 78.000 C 113.877 77.670,113.310 77.310,113.200 77.200 C 112.773 76.773,109.499 75.200,109.038 75.200 C 108.770 75.200,108.200 74.873,107.771 74.473 C 107.009 73.764,106.947 73.804,105.124 76.179 M264.997 80.005 C 264.859 80.228,265.793 81.445,267.073 82.709 C 273.773 89.327,282.627 89.327,289.327 82.709 C 290.607 81.445,291.541 80.228,291.403 80.005 C 291.242 79.745,286.514 79.600,278.200 79.600 C 269.886 79.600,265.158 79.745,264.997 80.005 M290.189 81.300 C 283.810 88.961,272.032 89.011,266.228 81.402 L 265.159 80.000 278.215 80.000 L 291.271 80.000 290.189 81.300 M128.900 97.025 C 128.625 97.323,128.400 97.754,128.400 97.983 C 128.400 98.212,128.254 98.400,128.075 98.400 C 127.896 98.400,127.502 99.030,127.200 99.800 C 126.898 100.570,126.504 101.200,126.325 101.200 C 126.146 101.200,126.000 101.465,126.000 101.788 C 126.000 102.111,125.640 103.017,125.200 103.800 C 124.760 104.583,124.400 105.568,124.400 105.989 C 124.400 106.409,124.240 106.852,124.044 106.973 C 122.961 107.642,121.949 118.641,122.560 123.100 C 122.897 125.553,122.886 125.601,121.952 125.659 C 119.958 125.782,125.982 126.315,129.836 126.357 C 137.940 126.444,145.275 123.412,152.149 117.133 C 152.878 116.468,152.876 116.455,152.074 116.665 C 151.325 116.861,144.933 113.983,144.400 113.210 C 144.290 113.050,143.781 112.699,143.268 112.429 C 139.584 110.487,133.240 103.509,130.978 98.908 C 129.784 96.481,129.576 96.293,128.900 97.025 M115.800 181.637 C 102.181 184.007,92.461 189.134,82.159 199.384 C 69.329 212.147,59.920 230.159,55.197 251.000 C 54.318 254.882,54.044 256.216,53.806 257.800 C 53.673 258.680,53.391 260.480,53.179 261.800 C 51.310 273.458,51.206 292.523,52.957 302.600 C 53.072 303.260,53.366 305.060,53.610 306.600 C 54.124 309.837,55.502 316.448,56.028 318.200 C 56.226 318.860,56.852 321.020,57.419 323.000 C 60.364 333.278,67.019 347.534,72.078 354.400 C 92.904 382.664,119.481 391.557,144.820 378.742 C 148.661 376.799,148.642 377.024,145.267 373.253 C 137.901 365.023,129.600 351.978,129.600 348.631 C 129.600 342.618,136.595 338.723,141.622 341.937 C 143.072 342.865,143.978 344.050,146.536 348.368 C 155.805 364.014,169.083 376.286,181.600 380.778 C 182.370 381.055,183.360 381.418,183.800 381.585 C 186.108 382.463,187.913 382.880,194.167 383.983 C 197.121 384.504,203.312 384.523,205.869 384.020 C 206.931 383.811,208.880 383.437,210.200 383.189 C 226.507 380.120,242.067 367.559,253.718 348.061 C 257.246 342.158,258.368 341.168,261.862 340.878 C 268.028 340.367,272.141 346.295,269.512 351.904 C 266.756 357.783,258.812 369.112,253.737 374.400 C 251.455 376.778,251.486 376.874,255.180 378.742 C 293.457 398.101,335.812 365.499,346.043 308.800 C 354.806 260.239,338.228 210.539,306.400 189.950 C 299.426 185.439,293.597 183.234,284.800 181.777 C 275.702 180.271,265.889 181.937,255.900 186.685 C 251.232 188.903,251.298 188.432,255.049 192.717 C 262.952 201.744,270.400 213.620,270.400 217.195 C 270.400 222.726,264.117 226.601,259.047 224.196 C 257.266 223.351,256.501 222.376,253.085 216.600 C 244.253 201.670,231.003 189.583,218.200 184.781 C 214.187 183.275,211.208 182.516,206.435 181.780 C 201.677 181.047,198.323 181.047,193.565 181.780 C 188.793 182.516,185.862 183.263,181.800 184.779 C 168.436 189.769,154.582 202.820,145.685 218.800 C 141.301 226.675,133.293 227.142,130.185 219.703 C 128.451 215.552,133.933 205.552,144.900 192.864 C 148.655 188.520,148.642 188.886,145.100 187.103 C 139.305 184.187,135.366 182.930,128.400 181.777 C 124.665 181.159,118.918 181.095,115.800 181.637 M348.501 189.000 C 348.505 189.880,348.587 190.193,348.683 189.695 C 348.779 189.198,348.775 188.478,348.675 188.095 C 348.575 187.713,348.496 188.120,348.501 189.000 M145.468 236.051 C 147.411 237.180,149.540 238.414,150.200 238.795 C 150.860 239.175,152.210 239.970,153.200 240.561 C 154.190 241.152,155.315 241.738,155.700 241.864 C 156.085 241.990,156.400 242.252,156.400 242.447 C 156.400 242.641,156.572 242.800,156.782 242.800 C 156.993 242.800,158.118 243.365,159.282 244.056 C 162.039 245.691,163.707 246.646,166.400 248.132 C 167.610 248.799,170.198 250.303,172.151 251.473 C 174.104 252.643,175.761 253.600,175.834 253.600 C 175.906 253.600,176.918 254.165,178.082 254.856 C 181.344 256.790,182.900 257.680,184.100 258.295 C 185.811 259.172,185.724 260.011,183.541 263.720 C 182.074 266.213,177.188 271.600,176.393 271.600 C 176.208 271.600,175.812 271.825,175.513 272.100 C 174.971 272.598,173.918 273.241,172.400 274.000 C 171.960 274.220,171.242 274.580,170.805 274.800 C 170.368 275.020,169.659 275.200,169.229 275.200 C 168.799 275.200,168.351 275.356,168.233 275.547 C 167.464 276.790,155.134 276.801,153.820 275.559 C 153.611 275.362,153.151 275.200,152.797 275.200 C 151.031 275.200,145.050 271.491,142.400 268.754 C 133.693 259.757,132.407 246.940,139.145 236.303 C 140.923 233.497,141.061 233.491,145.468 236.051 M267.882 234.900 C 269.125 236.263,271.666 241.465,272.229 243.800 C 272.772 246.052,272.877 254.925,272.381 256.600 C 270.394 263.300,267.018 268.285,262.240 271.572 C 259.709 273.314,256.069 275.200,255.239 275.200 C 254.866 275.200,254.389 275.362,254.180 275.559 C 252.866 276.801,240.536 276.790,239.767 275.547 C 239.649 275.356,239.201 275.200,238.771 275.200 C 237.913 275.200,237.490 275.010,233.062 272.636 C 226.912 269.338,220.622 259.371,223.980 258.243 C 224.321 258.129,225.410 257.552,226.400 256.961 C 227.390 256.370,228.785 255.552,229.500 255.143 C 230.215 254.735,231.385 254.060,232.100 253.645 C 234.492 252.257,243.187 247.271,244.845 246.338 C 245.370 246.042,245.890 245.710,246.000 245.600 C 246.252 245.348,247.731 244.504,249.800 243.430 C 250.680 242.974,251.490 242.510,251.600 242.400 C 251.710 242.290,252.230 241.958,252.755 241.662 C 256.746 239.415,258.306 238.513,262.400 236.084 C 266.304 233.769,266.760 233.670,267.882 234.900 M171.974 299.282 C 173.085 299.819,175.824 302.168,178.972 305.282 C 181.816 308.097,184.263 310.400,184.409 310.400 C 184.555 310.400,186.997 308.086,189.837 305.258 C 199.109 296.025,200.834 296.006,210.012 305.040 C 213.007 307.988,215.601 310.400,215.777 310.400 C 215.952 310.400,218.407 308.079,221.232 305.243 C 231.036 295.401,231.853 295.527,245.073 308.924 C 256.011 320.008,256.794 321.832,252.799 326.911 C 249.040 331.689,244.510 330.621,237.002 323.187 C 234.121 320.334,231.499 318.000,231.176 318.000 C 230.852 318.000,228.341 320.263,225.594 323.029 C 216.680 332.004,214.722 332.020,205.802 323.187 C 202.921 320.334,200.299 318.000,199.975 318.000 C 199.652 318.000,197.320 320.090,194.793 322.645 C 188.948 328.556,187.388 329.600,184.400 329.600 C 181.412 329.600,179.852 328.556,174.007 322.645 C 171.480 320.090,169.148 318.000,168.825 318.000 C 168.501 318.000,165.879 320.334,162.998 323.187 C 155.392 330.719,150.850 331.721,147.062 326.704 C 143.291 321.708,144.222 319.666,155.343 308.537 C 165.985 297.887,167.426 297.085,171.974 299.282 " stroke="none" fill="#fbdb8c" fill-rule="evenodd"></path><path id="path1" d="M94.700 0.291 C 93.655 0.375,92.800 0.614,92.800 0.822 C 92.800 1.030,92.181 1.200,91.424 1.200 C 90.667 1.200,89.936 1.380,89.800 1.600 C 89.664 1.820,89.124 2.000,88.600 2.000 C 88.076 2.000,87.536 2.180,87.400 2.400 C 87.264 2.620,86.803 2.800,86.376 2.800 C 85.949 2.800,85.600 2.980,85.600 3.200 C 85.600 3.420,85.060 3.600,84.400 3.600 C 83.740 3.600,83.200 3.780,83.200 4.000 C 83.200 4.220,82.840 4.400,82.400 4.400 C 81.960 4.400,81.600 4.580,81.600 4.800 C 81.600 5.020,81.240 5.200,80.800 5.200 C 80.360 5.200,80.000 5.380,80.000 5.600 C 80.000 5.820,79.764 6.000,79.475 6.000 C 79.187 6.000,78.564 6.360,78.092 6.800 C 77.620 7.240,76.956 7.600,76.617 7.600 C 76.278 7.600,76.000 7.780,76.000 8.000 C 76.000 8.220,75.775 8.403,75.500 8.406 C 75.225 8.410,74.391 8.950,73.646 9.606 C 72.901 10.263,72.135 10.800,71.943 10.800 C 71.457 10.800,62.000 20.347,62.000 20.837 C 62.000 21.057,61.547 21.690,60.992 22.244 C 60.438 22.798,60.089 23.420,60.216 23.626 C 60.343 23.832,60.270 24.000,60.053 24.000 C 59.835 24.000,59.340 24.720,58.952 25.600 C 58.564 26.480,58.101 27.200,57.923 27.200 C 57.745 27.200,57.600 27.571,57.600 28.024 C 57.600 28.477,57.420 28.736,57.200 28.600 C 56.980 28.464,56.800 28.723,56.800 29.176 C 56.800 29.629,56.620 30.000,56.400 30.000 C 56.180 30.000,56.000 30.349,56.000 30.776 C 56.000 31.203,55.820 31.664,55.600 31.800 C 55.380 31.936,55.200 32.487,55.200 33.024 C 55.200 33.561,55.020 34.000,54.800 34.000 C 54.580 34.000,54.400 34.360,54.400 34.800 C 54.400 35.240,54.220 35.600,54.000 35.600 C 53.780 35.600,53.600 36.129,53.600 36.776 C 53.600 37.423,53.420 38.064,53.200 38.200 C 52.980 38.336,52.800 39.067,52.800 39.824 C 52.800 40.581,52.620 41.200,52.400 41.200 C 52.180 41.200,52.000 41.999,52.000 42.976 C 52.000 43.953,51.820 44.864,51.600 45.000 C 51.336 45.163,51.200 65.747,51.200 105.452 C 51.200 169.516,51.278 166.800,49.429 166.800 C 49.083 166.800,48.800 166.980,48.800 167.200 C 48.800 167.420,48.440 167.600,48.000 167.600 C 47.560 167.600,47.200 167.780,47.200 168.000 C 47.200 168.220,46.880 168.400,46.488 168.400 C 46.097 168.400,45.517 168.760,45.200 169.200 C 44.883 169.640,44.478 170.000,44.301 170.000 C 43.799 170.000,40.400 173.523,40.400 174.043 C 40.400 174.298,40.071 174.797,39.670 175.153 C 39.268 175.509,38.684 176.385,38.372 177.100 C 38.060 177.815,37.669 178.400,37.502 178.400 C 37.336 178.400,37.200 178.760,37.200 179.200 C 37.200 179.640,37.020 180.000,36.800 180.000 C 36.580 180.000,36.400 180.529,36.400 181.176 C 36.400 181.823,36.220 182.464,36.000 182.600 C 35.460 182.934,35.460 195.600,36.000 195.600 C 36.220 195.600,36.400 196.140,36.400 196.800 C 36.400 197.460,36.580 198.000,36.800 198.000 C 37.020 198.000,37.200 198.360,37.200 198.800 C 37.200 199.240,37.380 199.600,37.600 199.600 C 37.820 199.600,38.000 199.960,38.000 200.400 C 38.000 200.840,38.180 201.200,38.400 201.200 C 38.620 201.200,38.800 201.520,38.800 201.912 C 38.800 202.303,39.160 202.883,39.600 203.200 C 40.040 203.517,40.400 204.007,40.400 204.288 C 40.400 204.570,40.580 204.800,40.800 204.800 C 41.020 204.800,41.207 205.025,41.215 205.300 C 41.231 205.835,43.918 208.071,45.837 209.148 C 46.477 209.506,47.060 209.935,47.133 210.100 C 47.207 210.265,47.612 210.400,48.033 210.400 C 48.455 210.400,48.800 210.580,48.800 210.800 C 48.800 211.020,49.160 211.200,49.600 211.200 C 50.040 211.200,50.400 211.380,50.400 211.600 C 50.400 211.820,50.775 212.000,51.233 212.000 C 51.758 212.000,51.980 212.185,51.834 212.500 C 51.705 212.775,51.489 213.315,51.354 213.700 C 51.218 214.085,50.948 214.400,50.753 214.400 C 50.559 214.400,50.400 214.760,50.400 215.200 C 50.400 215.640,50.220 216.000,50.000 216.000 C 49.780 216.000,49.600 216.360,49.600 216.800 C 49.600 217.240,49.420 217.600,49.200 217.600 C 48.980 217.600,48.800 217.872,48.800 218.205 C 48.800 218.538,48.620 219.168,48.400 219.605 C 48.180 220.042,47.820 220.758,47.600 221.195 C 47.380 221.632,47.200 222.262,47.200 222.595 C 47.200 222.928,47.020 223.200,46.800 223.200 C 46.580 223.200,46.400 223.560,46.400 224.000 C 46.400 224.440,46.220 224.800,46.000 224.800 C 45.780 224.800,45.600 225.126,45.600 225.525 C 45.600 225.924,45.240 226.995,44.800 227.906 C 44.360 228.816,44.000 229.829,44.000 230.157 C 44.000 230.485,43.820 230.864,43.600 231.000 C 43.380 231.136,43.200 231.657,43.200 232.157 C 43.200 232.657,43.075 233.191,42.923 233.344 C 42.771 233.496,42.593 233.965,42.529 234.387 C 42.465 234.808,42.142 235.929,41.812 236.877 C 41.482 237.824,41.209 239.185,41.206 239.900 C 41.203 240.615,41.020 241.200,40.800 241.200 C 40.580 241.200,40.400 241.729,40.400 242.376 C 40.400 243.023,40.220 243.664,40.000 243.800 C 39.780 243.936,39.600 244.757,39.600 245.624 C 39.600 246.491,39.420 247.200,39.200 247.200 C 38.980 247.200,38.800 247.909,38.800 248.776 C 38.800 249.643,38.620 250.464,38.400 250.600 C 38.180 250.736,38.000 251.827,38.000 253.024 C 38.000 254.221,37.820 255.200,37.600 255.200 C 37.378 255.200,37.200 256.267,37.200 257.600 C 37.200 258.933,37.022 260.000,36.800 260.000 C 36.567 260.000,36.400 261.325,36.400 263.176 C 36.400 264.923,36.220 266.464,36.000 266.600 C 35.452 266.939,35.452 298.661,36.000 299.000 C 36.220 299.136,36.400 300.666,36.400 302.400 C 36.400 304.134,36.580 305.664,36.800 305.800 C 37.020 305.936,37.200 307.027,37.200 308.224 C 37.200 309.421,37.380 310.400,37.600 310.400 C 37.820 310.400,38.000 311.379,38.000 312.576 C 38.000 313.773,38.180 314.864,38.400 315.000 C 38.620 315.136,38.800 315.957,38.800 316.824 C 38.800 317.691,38.980 318.400,39.200 318.400 C 39.420 318.400,39.600 319.109,39.600 319.976 C 39.600 320.843,39.780 321.664,40.000 321.800 C 40.220 321.936,40.400 322.566,40.400 323.200 C 40.400 323.834,40.580 324.464,40.800 324.600 C 41.020 324.736,41.203 325.332,41.206 325.924 C 41.209 326.516,41.482 327.776,41.812 328.723 C 42.142 329.671,42.465 330.792,42.529 331.213 C 42.593 331.635,42.771 332.104,42.923 332.256 C 43.075 332.409,43.200 332.943,43.200 333.443 C 43.200 333.943,43.344 334.442,43.521 334.551 C 43.697 334.660,44.090 335.661,44.393 336.775 C 44.696 337.889,45.092 338.800,45.272 338.800 C 45.453 338.800,45.600 339.250,45.600 339.800 C 45.600 340.350,45.780 340.800,46.000 340.800 C 46.220 340.800,46.400 341.160,46.400 341.600 C 46.400 342.040,46.580 342.400,46.800 342.400 C 47.020 342.400,47.200 342.672,47.200 343.005 C 47.200 343.338,47.380 343.968,47.600 344.405 C 47.820 344.842,48.180 345.558,48.400 345.995 C 48.620 346.432,48.800 347.062,48.800 347.395 C 48.800 347.728,48.980 348.000,49.200 348.000 C 49.420 348.000,49.600 348.360,49.600 348.800 C 49.600 349.240,49.780 349.600,50.000 349.600 C 50.220 349.600,50.400 349.960,50.400 350.400 C 50.400 350.840,50.580 351.200,50.800 351.200 C 51.020 351.200,51.200 351.560,51.200 352.000 C 51.200 352.440,51.380 352.800,51.600 352.800 C 51.820 352.800,52.000 353.070,52.000 353.400 C 52.000 353.730,52.180 354.000,52.400 354.000 C 52.620 354.000,52.800 354.270,52.800 354.600 C 52.800 354.930,52.980 355.200,53.200 355.200 C 53.420 355.200,53.600 355.560,53.600 356.000 C 53.600 356.440,53.780 356.800,54.000 356.800 C 54.220 356.800,54.400 357.030,54.400 357.312 C 54.400 357.593,54.760 358.083,55.200 358.400 C 55.640 358.717,56.000 359.297,56.000 359.688 C 56.000 360.080,56.180 360.400,56.400 360.400 C 56.620 360.400,56.800 360.694,56.800 361.053 C 56.800 361.412,57.133 361.997,57.541 362.353 C 57.948 362.709,58.602 363.621,58.993 364.380 C 59.384 365.140,59.950 366.008,60.252 366.309 C 60.553 366.610,60.800 367.016,60.800 367.210 C 60.800 367.405,61.209 367.977,61.709 368.482 C 62.208 368.987,63.060 370.030,63.601 370.800 C 64.142 371.570,65.488 373.126,66.593 374.257 C 67.697 375.388,69.579 377.323,70.775 378.557 C 71.971 379.791,73.109 380.800,73.303 380.800 C 73.497 380.800,74.475 381.700,75.476 382.800 C 76.477 383.900,77.473 384.800,77.688 384.800 C 77.903 384.800,78.583 385.340,79.200 386.000 C 79.817 386.660,80.543 387.200,80.814 387.200 C 81.084 387.200,81.597 387.528,81.953 387.928 C 82.309 388.329,83.410 389.094,84.400 389.628 C 85.390 390.163,86.438 390.825,86.729 391.100 C 87.019 391.375,87.604 391.600,88.029 391.600 C 88.453 391.600,88.800 391.780,88.800 392.000 C 88.800 392.220,89.160 392.400,89.600 392.400 C 90.040 392.400,90.400 392.580,90.400 392.800 C 90.400 393.020,90.760 393.200,91.200 393.200 C 91.640 393.200,92.001 393.335,92.003 393.500 C 92.007 393.865,93.949 394.800,94.703 394.800 C 95.002 394.800,95.136 394.980,95.000 395.200 C 94.856 395.433,95.263 395.600,95.976 395.600 C 96.649 395.600,97.200 395.780,97.200 396.000 C 97.200 396.220,97.560 396.400,98.000 396.400 C 98.440 396.400,98.800 396.580,98.800 396.800 C 98.800 397.020,99.329 397.200,99.976 397.200 C 100.623 397.200,101.264 397.380,101.400 397.600 C 101.536 397.820,102.166 398.000,102.800 398.000 C 103.434 398.000,104.064 398.180,104.200 398.400 C 104.336 398.620,105.142 398.800,105.990 398.800 C 106.869 398.800,107.605 399.015,107.700 399.300 C 107.829 399.687,111.049 399.800,122.000 399.800 C 132.951 399.800,136.171 399.687,136.300 399.300 C 136.392 399.025,137.071 398.800,137.810 398.800 C 138.548 398.800,139.264 398.620,139.400 398.400 C 139.536 398.180,140.267 398.000,141.024 398.000 C 141.781 398.000,142.400 397.820,142.400 397.600 C 142.400 397.380,142.760 397.200,143.200 397.200 C 143.640 397.200,144.000 397.020,144.000 396.800 C 144.000 396.580,144.540 396.400,145.200 396.400 C 145.860 396.400,146.400 396.220,146.400 396.000 C 146.400 395.780,146.839 395.600,147.376 395.600 C 147.913 395.600,148.464 395.420,148.600 395.200 C 148.736 394.980,149.197 394.800,149.624 394.800 C 150.051 394.800,150.400 394.620,150.400 394.400 C 150.400 394.180,150.760 394.000,151.200 394.000 C 151.640 394.000,152.000 393.820,152.000 393.600 C 152.000 393.380,152.360 393.200,152.800 393.200 C 153.240 393.200,153.600 393.020,153.600 392.800 C 153.600 392.580,153.945 392.400,154.367 392.400 C 154.788 392.400,155.193 392.265,155.267 392.100 C 155.340 391.935,156.067 391.461,156.881 391.047 C 157.696 390.633,158.724 389.958,159.165 389.547 C 159.944 388.821,161.999 388.497,162.001 389.100 C 162.002 389.265,163.037 389.940,164.301 390.600 C 165.566 391.260,166.660 391.935,166.733 392.100 C 166.807 392.265,167.212 392.400,167.633 392.400 C 168.055 392.400,168.400 392.580,168.400 392.800 C 168.400 393.020,168.760 393.200,169.200 393.200 C 169.640 393.200,170.000 393.380,170.000 393.600 C 170.000 393.820,170.360 394.000,170.800 394.000 C 171.240 394.000,171.600 394.180,171.600 394.400 C 171.600 394.620,171.960 394.800,172.400 394.800 C 172.840 394.800,173.200 394.980,173.200 395.200 C 173.200 395.420,173.740 395.600,174.400 395.600 C 175.060 395.600,175.600 395.780,175.600 396.000 C 175.600 396.220,176.050 396.400,176.600 396.400 C 177.150 396.400,177.600 396.580,177.600 396.800 C 177.600 397.020,178.039 397.200,178.576 397.200 C 179.113 397.200,179.664 397.380,179.800 397.600 C 179.936 397.820,180.577 398.000,181.224 398.000 C 181.871 398.000,182.400 398.180,182.400 398.400 C 182.400 398.620,183.105 398.800,183.967 398.800 C 184.864 398.800,185.604 399.013,185.700 399.300 C 185.943 400.028,214.057 400.028,214.300 399.300 C 214.396 399.013,215.136 398.800,216.033 398.800 C 216.895 398.800,217.600 398.620,217.600 398.400 C 217.600 398.180,218.230 398.000,219.000 398.000 C 219.770 398.000,220.400 397.820,220.400 397.600 C 220.400 397.380,220.850 397.200,221.400 397.200 C 221.950 397.200,222.400 397.020,222.400 396.800 C 222.400 396.580,222.839 396.400,223.376 396.400 C 223.913 396.400,224.464 396.220,224.600 396.000 C 224.736 395.780,225.287 395.600,225.824 395.600 C 226.361 395.600,226.800 395.420,226.800 395.200 C 226.800 394.980,227.160 394.800,227.600 394.800 C 228.040 394.800,228.400 394.620,228.400 394.400 C 228.400 394.180,228.760 394.000,229.200 394.000 C 229.640 394.000,230.000 393.820,230.000 393.600 C 230.000 393.380,230.360 393.200,230.800 393.200 C 231.240 393.200,231.600 393.020,231.600 392.800 C 231.600 392.580,231.960 392.400,232.400 392.400 C 232.840 392.400,233.200 392.234,233.200 392.032 C 233.200 391.829,233.740 391.545,234.400 391.400 C 235.060 391.255,235.600 390.971,235.600 390.768 C 235.600 390.566,235.836 390.400,236.125 390.400 C 236.413 390.400,237.036 390.040,237.508 389.600 C 238.594 388.588,239.798 388.581,240.870 389.579 C 241.330 390.008,242.717 390.863,243.953 391.479 C 245.189 392.096,246.260 392.735,246.333 392.900 C 246.407 393.065,246.812 393.200,247.233 393.200 C 247.655 393.200,248.000 393.380,248.000 393.600 C 248.000 393.820,248.360 394.000,248.800 394.000 C 249.240 394.000,249.600 394.180,249.600 394.400 C 249.600 394.620,250.050 394.800,250.600 394.800 C 251.150 394.800,251.600 394.980,251.600 395.200 C 251.600 395.420,252.050 395.600,252.600 395.600 C 253.150 395.600,253.600 395.780,253.600 396.000 C 253.600 396.220,254.140 396.400,254.800 396.400 C 255.460 396.400,256.000 396.580,256.000 396.800 C 256.000 397.020,256.349 397.200,256.776 397.200 C 257.203 397.200,257.664 397.380,257.800 397.600 C 257.936 397.820,258.566 398.000,259.200 398.000 C 259.834 398.000,260.464 398.180,260.600 398.400 C 260.736 398.620,261.452 398.800,262.190 398.800 C 262.929 398.800,263.608 399.025,263.700 399.300 C 263.943 400.028,292.057 400.028,292.300 399.300 C 292.395 399.015,293.131 398.800,294.010 398.800 C 294.858 398.800,295.664 398.620,295.800 398.400 C 295.936 398.180,296.667 398.000,297.424 398.000 C 298.181 398.000,298.800 397.820,298.800 397.600 C 298.800 397.380,299.340 397.200,300.000 397.200 C 300.660 397.200,301.200 397.020,301.200 396.800 C 301.200 396.580,301.560 396.400,302.000 396.400 C 302.440 396.400,302.800 396.220,302.800 396.000 C 302.800 395.780,303.340 395.600,304.000 395.600 C 304.660 395.600,305.200 395.420,305.200 395.200 C 305.200 394.980,305.560 394.800,306.000 394.800 C 306.440 394.800,306.800 394.620,306.800 394.400 C 306.800 394.180,307.160 394.000,307.600 394.000 C 308.040 394.000,308.400 393.820,308.400 393.600 C 308.400 393.380,308.670 393.200,309.000 393.200 C 309.330 393.200,309.600 393.020,309.600 392.800 C 309.600 392.580,309.960 392.400,310.400 392.400 C 310.840 392.400,311.200 392.220,311.200 392.000 C 311.200 391.780,311.547 391.600,311.971 391.600 C 312.396 391.600,313.013 391.330,313.343 391.000 C 313.673 390.670,314.226 390.400,314.571 390.400 C 314.917 390.400,315.200 390.232,315.200 390.027 C 315.200 389.822,315.566 389.538,316.013 389.396 C 316.460 389.254,317.262 388.702,317.795 388.169 C 318.328 387.636,318.970 387.200,319.221 387.200 C 319.473 387.200,320.183 386.660,320.800 386.000 C 321.417 385.340,322.074 384.799,322.260 384.798 C 322.682 384.796,324.797 382.796,325.588 381.651 C 325.912 381.183,326.363 380.800,326.591 380.800 C 327.234 380.800,331.600 376.420,331.600 375.775 C 331.600 375.459,331.765 375.200,331.967 375.200 C 332.485 375.200,335.236 372.471,336.404 370.800 C 336.942 370.030,337.792 368.987,338.291 368.482 C 338.791 367.977,339.200 367.420,339.200 367.244 C 339.200 367.068,339.650 366.401,340.200 365.762 C 340.749 365.123,341.199 364.403,341.200 364.162 C 341.200 363.921,341.650 363.201,342.200 362.562 C 342.749 361.923,343.199 361.175,343.200 360.900 C 343.200 360.625,343.380 360.400,343.600 360.400 C 343.820 360.400,344.000 360.080,344.000 359.688 C 344.000 359.297,344.360 358.717,344.800 358.400 C 345.240 358.083,345.600 357.593,345.600 357.312 C 345.600 357.030,345.780 356.800,346.000 356.800 C 346.220 356.800,346.400 356.440,346.400 356.000 C 346.400 355.560,346.580 355.200,346.800 355.200 C 347.020 355.200,347.200 354.964,347.200 354.675 C 347.200 354.387,347.560 353.764,348.000 353.292 C 348.440 352.820,348.800 352.156,348.800 351.817 C 348.800 351.478,348.980 351.200,349.200 351.200 C 349.420 351.200,349.600 350.840,349.600 350.400 C 349.600 349.960,349.780 349.600,350.000 349.600 C 350.220 349.600,350.400 349.240,350.400 348.800 C 350.400 348.360,350.580 348.000,350.800 348.000 C 351.020 348.000,351.200 347.728,351.200 347.395 C 351.200 346.807,351.367 346.382,352.338 344.505 C 352.592 344.013,352.800 343.338,352.800 343.005 C 352.800 342.672,352.980 342.400,353.200 342.400 C 353.420 342.400,353.600 342.040,353.600 341.600 C 353.600 341.160,353.780 340.800,354.000 340.800 C 354.220 340.800,354.400 340.474,354.400 340.075 C 354.400 339.676,354.760 338.605,355.200 337.694 C 355.640 336.784,356.000 335.771,356.000 335.443 C 356.000 335.115,356.180 334.736,356.400 334.600 C 356.620 334.464,356.800 334.001,356.800 333.571 C 356.800 333.141,356.963 332.477,357.163 332.095 C 357.803 330.870,358.800 327.145,358.800 325.978 C 358.800 325.356,358.980 324.736,359.200 324.600 C 359.420 324.464,359.600 323.733,359.600 322.976 C 359.600 322.219,359.780 321.600,360.000 321.600 C 360.220 321.600,360.400 320.880,360.400 320.000 C 360.400 319.120,360.580 318.400,360.800 318.400 C 361.020 318.400,361.200 317.601,361.200 316.624 C 361.200 315.647,361.380 314.736,361.600 314.600 C 361.820 314.464,362.000 313.463,362.000 312.376 C 362.000 311.289,362.180 310.400,362.400 310.400 C 362.620 310.400,362.800 309.421,362.800 308.224 C 362.800 307.027,362.980 305.936,363.200 305.800 C 363.420 305.664,363.600 304.033,363.600 302.176 C 363.600 300.192,363.765 298.800,364.000 298.800 C 364.260 298.800,364.400 293.208,364.400 282.824 C 364.400 272.604,364.256 266.758,364.000 266.600 C 363.780 266.464,363.600 264.923,363.600 263.176 C 363.600 261.325,363.433 260.000,363.200 260.000 C 362.978 260.000,362.800 258.933,362.800 257.600 C 362.800 256.267,362.622 255.200,362.400 255.200 C 362.180 255.200,362.000 254.210,362.000 253.000 C 362.000 251.790,361.820 250.800,361.600 250.800 C 361.380 250.800,361.200 249.990,361.200 249.000 C 361.200 248.010,361.020 247.200,360.800 247.200 C 360.580 247.200,360.400 246.491,360.400 245.624 C 360.400 244.757,360.220 243.936,360.000 243.800 C 359.780 243.664,359.600 243.023,359.600 242.376 C 359.600 241.729,359.446 241.200,359.257 241.200 C 359.068 241.200,358.797 240.083,358.654 238.718 C 358.512 237.352,358.216 236.056,357.998 235.838 C 357.779 235.619,357.600 235.037,357.600 234.544 C 357.600 234.051,357.420 233.536,357.200 233.400 C 356.980 233.264,356.800 232.801,356.800 232.371 C 356.800 231.941,356.641 231.277,356.447 230.895 C 356.252 230.513,355.871 229.660,355.600 229.000 C 355.329 228.340,354.948 227.487,354.753 227.105 C 354.559 226.723,354.400 226.048,354.400 225.605 C 354.400 225.162,354.220 224.800,354.000 224.800 C 353.780 224.800,353.600 224.440,353.600 224.000 C 353.600 223.560,353.420 223.200,353.200 223.200 C 352.980 223.200,352.800 222.851,352.800 222.424 C 352.800 221.997,352.620 221.536,352.400 221.400 C 352.180 221.264,352.000 220.713,352.000 220.176 C 352.000 219.639,351.820 219.200,351.600 219.200 C 351.380 219.200,351.200 218.840,351.200 218.400 C 351.200 217.960,351.020 217.600,350.800 217.600 C 350.580 217.600,350.400 217.240,350.400 216.800 C 350.400 216.360,350.220 216.000,350.000 216.000 C 349.780 216.000,349.600 215.640,349.600 215.200 C 349.600 214.760,349.441 214.400,349.247 214.400 C 349.052 214.400,348.782 214.085,348.646 213.700 C 348.511 213.315,348.295 212.775,348.166 212.500 C 348.020 212.185,348.242 212.000,348.767 212.000 C 349.225 212.000,349.600 211.820,349.600 211.600 C 349.600 211.380,349.960 211.200,350.400 211.200 C 350.840 211.200,351.200 211.020,351.200 210.800 C 351.200 210.580,351.560 210.400,352.000 210.400 C 352.440 210.400,352.800 210.220,352.800 210.000 C 352.800 209.780,353.083 209.600,353.429 209.600 C 353.774 209.600,354.314 209.375,354.627 209.100 C 354.941 208.825,355.997 207.970,356.974 207.200 C 357.952 206.430,358.762 205.575,358.776 205.300 C 358.789 205.025,358.980 204.800,359.200 204.800 C 359.420 204.800,359.600 204.570,359.600 204.288 C 359.600 204.007,359.960 203.517,360.400 203.200 C 360.840 202.883,361.200 202.303,361.200 201.912 C 361.200 201.520,361.380 201.200,361.600 201.200 C 361.820 201.200,362.000 200.840,362.000 200.400 C 362.000 199.960,362.180 199.600,362.400 199.600 C 362.620 199.600,362.800 199.240,362.800 198.800 C 362.800 198.360,362.980 198.000,363.200 198.000 C 363.420 198.000,363.600 197.460,363.600 196.800 C 363.600 196.140,363.780 195.600,364.000 195.600 C 364.251 195.600,364.400 193.133,364.400 189.000 C 364.400 184.867,364.251 182.400,364.000 182.400 C 363.780 182.400,363.600 181.860,363.600 181.200 C 363.600 180.540,363.420 180.000,363.200 180.000 C 362.980 180.000,362.800 179.640,362.800 179.200 C 362.800 178.760,362.664 178.400,362.498 178.400 C 362.331 178.400,361.940 177.815,361.628 177.100 C 361.316 176.385,360.732 175.509,360.330 175.153 C 359.929 174.797,359.600 174.282,359.600 174.009 C 359.600 173.463,356.238 170.000,355.707 170.000 C 355.525 170.000,355.117 169.640,354.800 169.200 C 354.483 168.760,353.903 168.400,353.512 168.400 C 353.120 168.400,352.800 168.220,352.800 168.000 C 352.800 167.780,352.440 167.600,352.000 167.600 C 351.560 167.600,351.200 167.420,351.200 167.200 C 351.200 166.980,350.917 166.800,350.571 166.800 C 348.722 166.800,348.800 169.516,348.800 105.452 C 348.800 65.747,348.664 45.163,348.400 45.000 C 348.180 44.864,348.000 43.953,348.000 42.976 C 348.000 41.999,347.820 41.200,347.600 41.200 C 347.380 41.200,347.200 40.581,347.200 39.824 C 347.200 39.067,347.020 38.336,346.800 38.200 C 346.580 38.064,346.400 37.524,346.400 37.000 C 346.400 36.476,346.220 35.936,346.000 35.800 C 345.780 35.664,345.600 35.203,345.600 34.776 C 345.600 34.349,345.420 34.000,345.200 34.000 C 344.980 34.000,344.800 33.561,344.800 33.024 C 344.800 32.487,344.620 31.936,344.400 31.800 C 344.180 31.664,344.000 31.203,344.000 30.776 C 344.000 30.349,343.820 30.000,343.600 30.000 C 343.380 30.000,343.200 29.629,343.200 29.176 C 343.200 28.723,343.020 28.464,342.800 28.600 C 342.580 28.736,342.400 28.492,342.400 28.057 C 342.400 27.622,342.258 27.207,342.084 27.133 C 341.910 27.060,341.255 26.010,340.628 24.800 C 340.002 23.590,339.154 22.309,338.745 21.953 C 338.335 21.597,338.000 21.111,338.000 20.872 C 338.000 20.219,328.614 10.922,327.643 10.614 C 327.179 10.467,326.800 10.148,326.800 9.906 C 326.800 9.665,326.681 9.586,326.536 9.731 C 326.391 9.876,326.020 9.636,325.713 9.197 C 325.406 8.759,324.895 8.400,324.577 8.400 C 324.260 8.400,324.000 8.220,324.000 8.000 C 324.000 7.780,323.722 7.600,323.383 7.600 C 323.044 7.600,322.380 7.240,321.908 6.800 C 321.436 6.360,320.813 6.000,320.525 6.000 C 320.236 6.000,320.000 5.820,320.000 5.600 C 320.000 5.380,319.640 5.200,319.200 5.200 C 318.760 5.200,318.400 5.020,318.400 4.800 C 318.400 4.580,318.040 4.400,317.600 4.400 C 317.160 4.400,316.800 4.220,316.800 4.000 C 316.800 3.780,316.260 3.600,315.600 3.600 C 314.940 3.600,314.400 3.420,314.400 3.200 C 314.400 2.980,314.051 2.800,313.624 2.800 C 313.197 2.800,312.736 2.620,312.600 2.400 C 312.464 2.180,311.924 2.000,311.400 2.000 C 310.876 2.000,310.336 1.820,310.200 1.600 C 310.064 1.380,309.348 1.200,308.610 1.200 C 307.871 1.200,307.192 0.975,307.100 0.700 C 306.943 0.229,100.406 -0.169,94.700 0.291 M293.600 16.400 C 293.600 16.639,295.133 16.800,297.400 16.800 C 299.667 16.800,301.200 16.961,301.200 17.200 C 301.200 17.420,301.920 17.600,302.800 17.600 C 303.680 17.600,304.400 17.780,304.400 18.000 C 304.400 18.220,304.940 18.400,305.600 18.400 C 306.260 18.400,306.800 18.580,306.800 18.800 C 306.800 19.020,307.160 19.200,307.600 19.200 C 308.040 19.200,308.400 19.380,308.400 19.600 C 308.400 19.820,308.760 20.000,309.200 20.000 C 309.640 20.000,310.000 20.180,310.000 20.400 C 310.000 20.620,310.315 20.804,310.700 20.809 C 311.085 20.814,311.850 21.170,312.400 21.600 C 312.950 22.030,313.625 22.386,313.900 22.391 C 314.175 22.396,314.400 22.550,314.400 22.732 C 314.400 22.915,314.895 23.320,315.500 23.632 C 317.496 24.662,324.159 31.016,324.825 32.525 C 325.038 33.006,325.563 33.940,325.993 34.600 C 327.188 36.435,328.400 38.890,328.400 39.475 C 328.400 39.764,328.580 40.000,328.800 40.000 C 329.020 40.000,329.200 40.349,329.200 40.776 C 329.200 41.203,329.380 41.664,329.600 41.800 C 329.820 41.936,330.000 42.476,330.000 43.000 C 330.000 43.524,330.180 44.064,330.400 44.200 C 330.620 44.336,330.800 45.067,330.800 45.824 C 330.800 46.581,330.980 47.200,331.200 47.200 C 331.438 47.200,331.600 48.725,331.600 50.976 C 331.600 53.063,331.779 54.863,332.000 55.000 C 332.625 55.386,332.546 165.694,331.920 166.320 C 331.656 166.584,331.116 166.800,330.720 166.800 C 330.324 166.800,330.000 166.980,330.000 167.200 C 330.000 167.420,329.640 167.600,329.200 167.600 C 328.760 167.600,328.400 167.780,328.400 168.000 C 328.400 168.220,328.164 168.400,327.875 168.400 C 327.587 168.400,326.964 168.760,326.492 169.200 C 326.020 169.640,325.531 170.000,325.406 170.000 C 324.972 170.000,321.600 173.582,321.600 174.043 C 321.600 174.298,321.284 174.797,320.897 175.153 C 320.511 175.509,319.932 176.340,319.611 177.000 C 319.289 177.660,318.977 178.274,318.916 178.364 C 318.855 178.454,318.489 178.172,318.103 177.736 C 317.716 177.300,316.365 176.423,315.100 175.788 C 313.835 175.153,312.800 174.490,312.800 174.316 C 312.800 174.142,312.440 174.000,312.000 174.000 C 311.560 174.000,311.200 173.820,311.200 173.600 C 311.200 173.380,310.840 173.200,310.400 173.200 C 309.960 173.200,309.600 173.020,309.600 172.800 C 309.600 172.580,309.330 172.400,309.000 172.400 C 308.670 172.400,308.400 172.220,308.400 172.000 C 308.400 171.780,308.040 171.600,307.600 171.600 C 307.160 171.600,306.800 171.420,306.800 171.200 C 306.800 170.980,306.451 170.800,306.024 170.800 C 305.597 170.800,305.136 170.620,305.000 170.400 C 304.864 170.180,304.313 170.000,303.776 170.000 C 303.239 170.000,302.800 169.820,302.800 169.600 C 302.800 169.380,302.451 169.200,302.024 169.200 C 301.597 169.200,301.136 169.020,301.000 168.800 C 300.864 168.580,300.313 168.400,299.776 168.400 C 299.239 168.400,298.800 168.220,298.800 168.000 C 298.800 167.780,298.080 167.600,297.200 167.600 C 296.320 167.600,295.600 167.420,295.600 167.200 C 295.600 166.980,294.880 166.800,294.000 166.800 C 293.120 166.800,292.400 166.620,292.400 166.400 C 292.400 166.180,291.500 166.000,290.400 166.000 C 289.300 166.000,288.400 165.820,288.400 165.600 C 288.400 165.380,287.950 165.200,287.400 165.200 L 286.400 165.200 286.400 134.000 C 286.400 102.997,286.405 102.800,287.205 102.800 C 287.648 102.800,288.368 102.620,288.805 102.400 C 289.242 102.180,289.958 101.820,290.395 101.600 C 290.832 101.380,291.462 101.200,291.795 101.200 C 292.128 101.200,292.400 101.020,292.400 100.800 C 292.400 100.580,292.720 100.400,293.112 100.400 C 293.503 100.400,294.083 100.040,294.400 99.600 C 294.717 99.160,295.257 98.800,295.600 98.800 C 295.943 98.800,296.483 98.440,296.800 98.000 C 297.117 97.560,297.583 97.200,297.835 97.200 C 298.783 97.200,305.200 90.279,305.200 89.257 C 305.200 89.042,305.341 88.807,305.514 88.733 C 306.161 88.458,308.443 83.398,308.671 81.732 L 308.909 80.000 311.107 80.000 C 312.730 80.000,313.476 79.809,313.953 79.272 C 314.309 78.872,314.915 78.428,315.300 78.285 C 315.685 78.142,316.000 77.789,316.000 77.501 C 316.000 77.213,316.360 76.717,316.800 76.400 C 317.506 75.891,317.600 75.365,317.600 71.920 L 317.600 68.017 315.391 65.809 C 313.264 63.681,313.104 63.600,311.044 63.600 L 308.905 63.600 308.668 62.142 C 308.395 60.458,306.017 55.200,305.529 55.200 C 305.348 55.200,305.200 54.880,305.200 54.488 C 305.200 54.097,304.840 53.517,304.400 53.200 C 303.960 52.883,303.600 52.403,303.600 52.134 C 303.600 51.496,298.504 46.400,297.866 46.400 C 297.597 46.400,297.117 46.040,296.800 45.600 C 296.483 45.160,295.903 44.800,295.512 44.800 C 295.120 44.800,294.800 44.645,294.800 44.455 C 294.800 43.986,290.310 42.000,289.250 42.000 C 288.782 42.000,288.400 41.820,288.400 41.600 C 288.400 41.380,287.770 41.200,287.000 41.200 C 286.230 41.200,285.600 41.020,285.600 40.800 C 285.600 40.548,282.867 40.400,278.200 40.400 C 273.533 40.400,270.800 40.548,270.800 40.800 C 270.800 41.020,270.091 41.200,269.224 41.200 C 268.357 41.200,267.548 41.360,267.427 41.556 C 267.306 41.751,266.711 42.028,266.104 42.170 C 264.565 42.530,261.200 44.125,261.200 44.494 C 261.200 44.662,261.000 44.800,260.756 44.800 C 259.757 44.800,252.800 51.185,252.800 52.101 C 252.800 52.388,252.440 52.883,252.000 53.200 C 251.560 53.517,251.200 54.057,251.200 54.400 C 251.200 54.743,250.840 55.283,250.400 55.600 C 249.960 55.917,249.600 56.497,249.600 56.888 C 249.600 57.280,249.420 57.600,249.200 57.600 C 248.980 57.600,248.800 58.050,248.800 58.600 C 248.800 59.150,248.620 59.600,248.400 59.600 C 248.180 59.600,248.000 60.050,248.000 60.600 C 248.000 61.150,247.820 61.600,247.600 61.600 C 247.380 61.600,247.200 62.050,247.200 62.600 C 247.200 63.540,247.074 63.600,245.088 63.600 C 243.435 63.600,242.851 63.774,242.400 64.400 C 242.083 64.840,241.587 65.200,241.299 65.200 C 241.011 65.200,240.658 65.515,240.515 65.900 C 240.372 66.285,239.928 66.891,239.528 67.247 C 238.918 67.789,238.800 68.527,238.800 71.800 C 238.800 75.073,238.918 75.811,239.528 76.353 C 239.928 76.709,240.372 77.315,240.515 77.700 C 240.658 78.085,241.011 78.400,241.299 78.400 C 241.587 78.400,242.083 78.760,242.400 79.200 C 242.846 79.819,243.435 80.000,245.001 80.000 L 247.025 80.000 247.580 81.900 C 247.885 82.945,248.265 84.070,248.423 84.400 C 248.582 84.730,249.120 85.855,249.619 86.900 C 250.118 87.945,250.677 88.800,250.863 88.800 C 251.048 88.800,251.200 89.036,251.200 89.325 C 251.200 89.613,251.560 90.236,252.000 90.708 C 252.440 91.180,252.800 91.667,252.800 91.791 C 252.800 92.322,258.044 97.200,258.616 97.200 C 258.963 97.200,259.146 97.364,259.021 97.565 C 258.897 97.766,259.336 98.170,259.998 98.463 C 260.659 98.756,261.200 99.103,261.200 99.235 C 261.200 99.469,264.003 100.906,266.000 101.697 C 266.550 101.915,267.313 102.252,267.695 102.447 C 268.077 102.641,268.752 102.800,269.195 102.800 C 269.995 102.800,270.000 102.997,270.000 134.000 L 270.000 165.200 269.024 165.200 C 268.487 165.200,267.936 165.380,267.800 165.600 C 267.664 165.820,266.663 166.000,265.576 166.000 C 264.489 166.000,263.600 166.180,263.600 166.400 C 263.600 166.620,263.006 166.800,262.280 166.800 C 261.554 166.800,260.786 166.974,260.573 167.187 C 260.361 167.399,259.605 167.617,258.893 167.672 C 258.182 167.726,257.600 167.912,257.600 168.085 C 257.600 168.258,257.251 168.400,256.824 168.400 C 256.397 168.400,255.936 168.580,255.800 168.800 C 255.664 169.020,255.113 169.200,254.576 169.200 C 254.039 169.200,253.600 169.380,253.600 169.600 C 253.600 169.820,253.251 170.000,252.824 170.000 C 252.397 170.000,251.936 170.180,251.800 170.400 C 251.664 170.620,251.113 170.800,250.576 170.800 C 250.039 170.800,249.600 170.980,249.600 171.200 C 249.600 171.420,249.240 171.600,248.800 171.600 C 248.360 171.600,248.000 171.780,248.000 172.000 C 248.000 172.220,247.640 172.400,247.200 172.400 C 246.760 172.400,246.400 172.580,246.400 172.800 C 246.400 173.020,246.122 173.200,245.783 173.200 C 245.444 173.200,244.780 173.560,244.308 174.000 C 243.836 174.440,243.213 174.800,242.925 174.800 C 242.636 174.800,242.400 174.960,242.400 175.157 C 242.400 175.353,241.950 175.626,241.400 175.764 C 240.850 175.902,240.400 176.192,240.400 176.408 C 240.400 177.006,238.346 176.875,237.631 176.232 C 237.284 175.919,236.737 175.604,236.416 175.532 C 236.094 175.459,235.475 175.085,235.040 174.700 C 234.605 174.315,234.013 174.000,233.725 174.000 C 233.436 174.000,233.200 173.820,233.200 173.600 C 233.200 173.380,232.840 173.200,232.400 173.200 C 231.960 173.200,231.600 173.020,231.600 172.800 C 231.600 172.580,231.240 172.400,230.800 172.400 C 230.360 172.400,230.000 172.220,230.000 172.000 C 230.000 171.780,229.640 171.600,229.200 171.600 C 228.760 171.600,228.400 171.420,228.400 171.200 C 228.400 170.980,228.040 170.800,227.600 170.800 C 227.160 170.800,226.800 170.620,226.800 170.400 C 226.800 170.180,226.386 170.000,225.880 170.000 C 224.178 170.000,224.000 169.375,224.000 163.400 L 224.000 157.761 225.500 157.254 C 228.591 156.210,232.400 154.358,232.400 153.901 C 232.400 153.735,232.720 153.600,233.112 153.600 C 233.503 153.600,234.083 153.240,234.400 152.800 C 234.717 152.360,235.207 152.000,235.488 152.000 C 235.770 152.000,236.000 151.820,236.000 151.600 C 236.000 151.380,236.199 151.200,236.443 151.200 C 237.097 151.200,240.677 147.262,241.225 145.941 C 241.484 145.313,241.855 144.800,242.049 144.800 C 242.242 144.800,242.400 144.480,242.400 144.088 C 242.400 143.697,242.760 143.117,243.200 142.800 C 243.640 142.483,244.000 141.903,244.000 141.512 C 244.000 141.120,244.180 140.800,244.400 140.800 C 244.620 140.800,244.800 140.528,244.800 140.195 C 244.800 139.862,244.980 139.232,245.200 138.795 C 245.420 138.358,245.780 137.642,246.000 137.205 C 246.220 136.768,246.400 136.048,246.400 135.605 C 246.400 134.896,246.662 134.800,248.591 134.800 C 250.715 134.800,250.851 134.732,252.991 132.591 L 255.200 130.383 255.200 126.600 L 255.200 122.817 252.991 120.609 C 250.851 118.468,250.715 118.400,248.591 118.400 C 246.423 118.400,246.400 118.387,246.400 117.200 C 246.400 116.540,246.220 116.000,246.000 116.000 C 245.780 116.000,245.600 115.728,245.600 115.395 C 245.600 115.062,245.435 114.477,245.234 114.095 C 245.032 113.713,244.585 112.750,244.241 111.955 C 243.897 111.160,243.341 110.283,243.007 110.006 C 242.673 109.729,242.400 109.254,242.400 108.951 C 242.400 108.648,242.242 108.400,242.049 108.400 C 241.855 108.400,241.473 107.858,241.199 107.197 C 240.628 105.820,236.216 101.200,235.471 101.200 C 235.199 101.200,234.717 100.840,234.400 100.400 C 234.083 99.960,233.586 99.600,233.295 99.600 C 233.004 99.600,232.380 99.240,231.908 98.800 C 231.436 98.360,230.813 98.000,230.525 98.000 C 230.236 98.000,230.000 97.809,230.000 97.576 C 230.000 97.343,229.858 97.241,229.684 97.348 C 229.397 97.525,227.700 96.904,225.905 95.964 C 225.523 95.764,224.769 95.600,224.229 95.600 C 223.689 95.600,223.136 95.420,223.000 95.200 C 222.665 94.658,208.400 94.658,208.400 95.200 C 208.400 95.420,207.858 95.600,207.195 95.600 C 206.532 95.600,205.677 95.765,205.295 95.966 C 204.913 96.168,203.925 96.618,203.100 96.966 C 199.925 98.308,198.800 98.904,198.800 99.246 C 198.800 99.441,198.564 99.600,198.275 99.600 C 197.987 99.600,197.364 99.960,196.892 100.400 C 196.420 100.840,195.846 101.200,195.617 101.200 C 195.388 101.200,195.200 101.350,195.200 101.532 C 195.200 101.715,194.750 102.106,194.201 102.400 C 193.651 102.694,193.272 103.006,193.359 103.093 C 193.446 103.180,192.816 103.945,191.959 104.794 C 191.101 105.643,190.400 106.582,190.400 106.880 C 190.400 107.179,190.040 107.683,189.600 108.000 C 189.160 108.317,188.800 108.785,188.800 109.039 C 188.800 109.294,188.527 109.729,188.193 110.006 C 187.859 110.283,187.303 111.160,186.959 111.955 C 186.615 112.750,186.168 113.713,185.966 114.095 C 185.765 114.477,185.600 115.152,185.600 115.595 C 185.600 116.038,185.420 116.400,185.200 116.400 C 184.980 116.400,184.800 116.850,184.800 117.400 C 184.800 118.317,184.652 118.400,183.019 118.400 C 181.198 118.400,179.200 119.062,179.200 119.664 C 179.200 119.849,178.942 120.000,178.627 120.000 C 178.312 120.000,177.940 120.360,177.800 120.800 C 177.660 121.240,177.348 121.600,177.106 121.600 C 176.865 121.600,176.778 121.711,176.914 121.848 C 177.050 121.984,176.900 122.357,176.581 122.676 C 175.902 123.355,175.767 128.534,176.386 130.162 C 177.313 132.603,180.269 134.800,182.624 134.800 C 184.538 134.800,184.800 134.897,184.800 135.605 C 184.800 136.383,184.942 136.769,185.938 138.695 C 186.192 139.187,186.400 139.862,186.400 140.195 C 186.400 140.528,186.580 140.800,186.800 140.800 C 187.020 140.800,187.200 141.120,187.200 141.512 C 187.200 141.903,187.560 142.483,188.000 142.800 C 188.440 143.117,188.800 143.657,188.800 144.000 C 188.800 144.343,189.160 144.883,189.600 145.200 C 190.040 145.517,190.400 146.024,190.400 146.325 C 190.400 147.276,197.186 153.600,198.207 153.600 C 198.533 153.600,198.800 153.748,198.800 153.929 C 198.800 154.327,203.530 156.558,205.900 157.278 L 207.600 157.795 207.600 161.497 L 207.600 165.200 198.600 165.200 C 192.867 165.200,189.600 165.345,189.600 165.600 C 189.600 165.820,188.801 166.000,187.824 166.000 C 186.847 166.000,185.936 166.180,185.800 166.400 C 185.664 166.620,184.944 166.800,184.200 166.800 C 183.456 166.800,182.736 166.980,182.600 167.200 C 182.464 167.420,181.733 167.600,180.976 167.600 C 180.219 167.600,179.600 167.780,179.600 168.000 C 179.600 168.220,179.150 168.400,178.600 168.400 C 178.050 168.400,177.600 168.580,177.600 168.800 C 177.600 169.020,177.150 169.200,176.600 169.200 C 176.050 169.200,175.600 169.380,175.600 169.600 C 175.600 169.820,175.060 170.000,174.400 170.000 C 173.740 170.000,173.200 170.180,173.200 170.400 C 173.200 170.620,172.840 170.800,172.400 170.800 C 171.960 170.800,171.600 170.980,171.600 171.200 C 171.600 171.420,171.240 171.600,170.800 171.600 C 170.360 171.600,170.000 171.780,170.000 172.000 C 170.000 172.220,169.640 172.400,169.200 172.400 C 168.760 172.400,168.400 172.580,168.400 172.800 C 168.400 173.020,168.040 173.200,167.600 173.200 C 167.160 173.200,166.800 173.380,166.800 173.600 C 166.800 173.820,166.564 174.000,166.275 174.000 C 165.987 174.000,165.395 174.315,164.960 174.700 C 164.525 175.085,163.906 175.459,163.584 175.532 C 163.263 175.604,162.716 175.919,162.369 176.232 C 161.636 176.891,160.161 176.984,159.796 176.393 C 159.658 176.170,159.377 176.091,159.172 176.217 C 158.968 176.344,158.800 176.257,158.800 176.024 C 158.800 175.791,158.530 175.600,158.200 175.600 C 157.870 175.600,157.600 175.420,157.600 175.200 C 157.600 174.980,157.330 174.800,157.000 174.800 C 156.670 174.800,156.400 174.620,156.400 174.400 C 156.400 174.180,156.130 174.000,155.800 174.000 C 155.470 174.000,155.200 173.820,155.200 173.600 C 155.200 173.380,154.840 173.200,154.400 173.200 C 153.960 173.200,153.600 173.020,153.600 172.800 C 153.600 172.580,153.240 172.400,152.800 172.400 C 152.360 172.400,152.000 172.220,152.000 172.000 C 152.000 171.780,151.640 171.600,151.200 171.600 C 150.760 171.600,150.400 171.420,150.400 171.200 C 150.400 170.980,150.040 170.800,149.600 170.800 C 149.160 170.800,148.800 170.620,148.800 170.400 C 148.800 170.180,148.260 170.000,147.600 170.000 C 146.940 170.000,146.400 169.820,146.400 169.600 C 146.400 169.380,146.051 169.200,145.624 169.200 C 145.197 169.200,144.736 169.020,144.600 168.800 C 144.464 168.580,143.924 168.400,143.400 168.400 C 142.876 168.400,142.336 168.220,142.200 168.000 C 142.064 167.780,141.549 167.600,141.056 167.600 C 140.563 167.600,139.675 167.375,139.083 167.100 L 138.006 166.600 138.003 154.671 C 138.000 141.248,137.854 141.871,141.093 141.487 C 143.317 141.224,148.511 139.601,148.733 139.101 C 148.807 138.935,149.212 138.800,149.633 138.800 C 150.055 138.800,150.400 138.620,150.400 138.400 C 150.400 138.180,150.760 138.000,151.200 138.000 C 151.640 138.000,152.000 137.820,152.000 137.600 C 152.000 137.380,152.360 137.200,152.800 137.200 C 153.240 137.200,153.600 137.020,153.600 136.800 C 153.600 136.580,153.836 136.400,154.125 136.400 C 154.413 136.400,155.036 136.040,155.508 135.600 C 155.980 135.160,156.509 134.797,156.683 134.793 C 157.874 134.765,169.165 123.474,169.193 122.283 C 169.197 122.109,169.560 121.580,170.000 121.108 C 170.440 120.636,170.800 120.013,170.800 119.725 C 170.800 119.436,170.980 119.200,171.200 119.200 C 171.420 119.200,171.600 118.840,171.600 118.400 C 171.600 117.960,171.780 117.600,172.000 117.600 C 172.220 117.600,172.400 117.240,172.400 116.800 C 172.400 116.360,172.580 116.000,172.800 116.000 C 173.020 116.000,173.200 115.764,173.200 115.475 C 173.200 115.186,173.563 114.199,174.007 113.280 C 174.451 112.361,174.926 110.793,175.063 109.794 C 175.200 108.795,175.467 107.882,175.656 107.765 C 175.845 107.648,176.000 106.843,176.000 105.976 C 176.000 105.109,176.180 104.400,176.400 104.400 C 176.655 104.400,176.800 101.133,176.800 95.400 C 176.800 89.667,176.655 86.400,176.400 86.400 C 176.180 86.400,176.000 85.680,176.000 84.800 C 176.000 83.920,175.820 83.200,175.600 83.200 C 175.380 83.200,175.200 82.608,175.200 81.885 C 175.200 81.161,174.832 79.586,174.382 78.385 C 173.933 77.183,173.462 75.885,173.336 75.500 C 173.210 75.115,172.948 74.800,172.753 74.800 C 172.559 74.800,172.400 74.440,172.400 74.000 C 172.400 73.560,172.220 73.200,172.000 73.200 C 171.780 73.200,171.600 72.840,171.600 72.400 C 171.600 71.960,171.420 71.600,171.200 71.600 C 170.980 71.600,170.800 71.240,170.800 70.800 C 170.800 70.360,170.650 70.000,170.468 70.000 C 170.285 70.000,169.880 69.508,169.568 68.907 C 169.255 68.306,168.505 67.289,167.900 66.648 C 167.295 66.006,166.800 65.319,166.800 65.121 C 166.800 64.429,159.534 57.600,158.797 57.600 C 158.579 57.600,158.400 57.462,158.400 57.294 C 158.400 57.126,157.680 56.544,156.800 56.000 C 155.920 55.456,155.200 54.874,155.200 54.706 C 155.200 54.538,154.840 54.400,154.400 54.400 C 153.960 54.400,153.600 54.220,153.600 54.000 C 153.600 53.780,153.240 53.600,152.800 53.600 C 152.360 53.600,152.000 53.420,152.000 53.200 C 152.000 52.980,151.640 52.800,151.200 52.800 C 150.760 52.800,150.400 52.620,150.400 52.400 C 150.400 52.180,150.040 52.000,149.600 52.000 C 149.160 52.000,148.800 51.820,148.800 51.600 C 148.800 51.380,148.440 51.200,148.000 51.200 C 147.560 51.200,147.200 51.020,147.200 50.800 C 147.200 50.580,146.660 50.400,146.000 50.400 C 145.340 50.400,144.800 50.220,144.800 50.000 C 144.800 49.780,144.080 49.600,143.200 49.600 C 142.320 49.600,141.600 49.420,141.600 49.200 C 141.600 48.980,140.981 48.800,140.224 48.800 C 139.467 48.800,138.736 48.620,138.600 48.400 C 138.447 48.153,134.996 48.000,129.576 48.000 C 123.992 48.000,120.800 48.145,120.800 48.400 C 120.800 48.620,120.080 48.800,119.200 48.800 C 118.320 48.800,117.600 48.980,117.600 49.200 C 117.600 49.420,116.880 49.600,116.000 49.600 C 115.120 49.600,114.400 49.780,114.400 50.000 C 114.400 50.220,113.961 50.400,113.424 50.400 C 112.887 50.400,112.336 50.580,112.200 50.800 C 112.064 51.020,111.603 51.200,111.176 51.200 C 110.749 51.200,110.400 51.346,110.400 51.525 C 110.400 51.704,109.770 52.098,109.000 52.400 C 108.230 52.702,107.600 53.096,107.600 53.275 C 107.600 53.454,107.240 53.600,106.800 53.600 C 106.360 53.600,106.000 53.780,106.000 54.000 C 106.000 54.220,105.640 54.400,105.200 54.400 C 104.760 54.400,104.400 54.550,104.400 54.732 C 104.400 54.915,103.905 55.319,103.300 55.630 C 102.695 55.940,101.930 56.467,101.600 56.800 C 101.270 57.133,100.525 57.649,99.944 57.947 C 98.123 58.880,92.020 65.189,92.005 66.153 C 92.002 66.347,91.684 66.797,91.297 67.153 C 90.911 67.509,90.340 68.295,90.030 68.900 C 89.719 69.505,89.315 70.000,89.132 70.000 C 88.950 70.000,88.800 70.360,88.800 70.800 C 88.800 71.240,88.620 71.600,88.400 71.600 C 88.180 71.600,88.000 71.960,88.000 72.400 C 88.000 72.840,87.820 73.200,87.600 73.200 C 87.380 73.200,87.200 73.560,87.200 74.000 C 87.200 74.440,87.020 74.800,86.800 74.800 C 86.580 74.800,86.400 75.171,86.400 75.624 C 86.400 76.077,86.220 76.336,86.000 76.200 C 85.774 76.060,85.600 76.388,85.600 76.953 C 85.600 77.503,85.420 78.064,85.200 78.200 C 84.980 78.336,84.800 78.797,84.800 79.224 C 84.800 79.651,84.620 80.000,84.400 80.000 C 84.180 80.000,84.000 80.619,84.000 81.376 C 84.000 82.133,83.820 82.864,83.600 83.000 C 83.380 83.136,83.200 83.946,83.200 84.800 C 83.200 85.654,83.020 86.464,82.800 86.600 C 82.554 86.752,82.400 90.130,82.400 95.400 C 82.400 100.670,82.554 104.048,82.800 104.200 C 83.020 104.336,83.200 105.146,83.200 106.000 C 83.200 106.854,83.380 107.664,83.600 107.800 C 83.820 107.936,84.000 108.577,84.000 109.224 C 84.000 109.871,84.180 110.400,84.400 110.400 C 84.620 110.400,84.800 110.940,84.800 111.600 C 84.800 112.260,84.980 112.800,85.200 112.800 C 85.420 112.800,85.600 113.160,85.600 113.600 C 85.600 114.040,85.780 114.400,86.000 114.400 C 86.220 114.400,86.400 114.634,86.400 114.920 C 86.400 115.656,87.341 117.593,87.700 117.597 C 87.865 117.599,88.000 117.960,88.000 118.400 C 88.000 118.840,88.180 119.200,88.400 119.200 C 88.620 119.200,88.800 119.520,88.800 119.912 C 88.800 120.303,89.160 120.883,89.600 121.200 C 90.040 121.517,90.400 122.057,90.400 122.400 C 90.400 122.743,90.760 123.283,91.200 123.600 C 91.640 123.917,92.000 124.393,92.000 124.658 C 92.000 125.301,99.879 133.200,100.520 133.200 C 100.797 133.200,101.283 133.560,101.600 134.000 C 101.917 134.440,102.457 134.800,102.800 134.800 C 103.143 134.800,103.683 135.160,104.000 135.600 C 104.317 136.040,104.897 136.400,105.288 136.400 C 105.680 136.400,106.000 136.580,106.000 136.800 C 106.000 137.020,106.345 137.200,106.767 137.200 C 107.188 137.200,107.593 137.335,107.667 137.500 C 107.794 137.787,110.922 139.373,112.600 140.001 C 113.040 140.166,113.914 140.508,114.542 140.761 C 115.170 141.014,116.788 141.336,118.137 141.477 C 121.786 141.859,121.600 141.186,121.600 153.971 L 121.600 165.200 116.600 165.200 C 113.533 165.200,111.600 165.355,111.600 165.600 C 111.600 165.820,110.700 166.000,109.600 166.000 C 108.500 166.000,107.600 166.180,107.600 166.400 C 107.600 166.620,106.880 166.800,106.000 166.800 C 105.120 166.800,104.400 166.980,104.400 167.200 C 104.400 167.420,103.781 167.600,103.024 167.600 C 102.267 167.600,101.536 167.780,101.400 168.000 C 101.264 168.220,100.623 168.400,99.976 168.400 C 99.329 168.400,98.800 168.580,98.800 168.800 C 98.800 169.020,98.440 169.200,98.000 169.200 C 97.560 169.200,97.200 169.380,97.200 169.600 C 97.200 169.820,96.649 170.000,95.976 170.000 C 95.263 170.000,94.856 170.167,95.000 170.400 C 95.141 170.628,94.796 170.800,94.200 170.800 C 93.604 170.800,93.259 170.972,93.400 171.200 C 93.536 171.420,93.277 171.600,92.824 171.600 C 92.371 171.600,92.000 171.780,92.000 172.000 C 92.000 172.220,91.640 172.400,91.200 172.400 C 90.760 172.400,90.400 172.580,90.400 172.800 C 90.400 173.020,90.040 173.200,89.600 173.200 C 89.160 173.200,88.800 173.380,88.800 173.600 C 88.800 173.820,88.455 174.000,88.033 174.000 C 87.612 174.000,87.207 174.142,87.133 174.315 C 87.060 174.488,85.785 175.336,84.300 176.198 C 82.815 177.061,81.600 177.909,81.600 178.083 C 81.600 178.841,80.949 178.295,80.428 177.100 C 80.116 176.385,79.532 175.509,79.130 175.153 C 78.729 174.797,78.400 174.298,78.400 174.043 C 78.400 173.582,75.028 170.000,74.594 170.000 C 74.469 170.000,73.980 169.640,73.508 169.200 C 73.036 168.760,72.413 168.400,72.125 168.400 C 71.836 168.400,71.600 168.220,71.600 168.000 C 71.600 167.780,71.240 167.600,70.800 167.600 C 70.360 167.600,70.000 167.420,70.000 167.200 C 70.000 166.980,69.717 166.800,69.371 166.800 C 67.525 166.800,67.600 169.186,67.600 110.229 C 67.600 73.543,67.735 54.800,68.000 54.800 C 68.239 54.800,68.400 53.267,68.400 51.000 C 68.400 48.733,68.561 47.200,68.800 47.200 C 69.020 47.200,69.200 46.480,69.200 45.600 C 69.200 44.720,69.380 44.000,69.600 44.000 C 69.820 44.000,70.000 43.460,70.000 42.800 C 70.000 42.140,70.180 41.600,70.400 41.600 C 70.620 41.600,70.800 41.240,70.800 40.800 C 70.800 40.360,70.980 40.000,71.200 40.000 C 71.420 40.000,71.600 39.735,71.600 39.412 C 71.600 38.689,73.747 34.724,74.700 33.687 C 74.975 33.388,75.200 32.897,75.200 32.596 C 75.200 31.672,82.438 24.697,84.500 23.632 C 85.105 23.320,85.600 22.915,85.600 22.732 C 85.600 22.550,85.825 22.396,86.100 22.391 C 86.375 22.386,87.050 22.030,87.600 21.600 C 88.150 21.170,88.915 20.814,89.300 20.809 C 89.685 20.804,90.000 20.620,90.000 20.400 C 90.000 20.180,90.360 20.000,90.800 20.000 C 91.240 20.000,91.600 19.820,91.600 19.600 C 91.600 19.380,91.960 19.200,92.400 19.200 C 92.840 19.200,93.200 19.020,93.200 18.800 C 93.200 18.580,93.740 18.400,94.400 18.400 C 95.060 18.400,95.600 18.220,95.600 18.000 C 95.600 17.780,96.320 17.600,97.200 17.600 C 98.080 17.600,98.800 17.420,98.800 17.200 C 98.800 16.961,100.333 16.800,102.600 16.800 C 104.867 16.800,106.400 16.639,106.400 16.400 C 106.400 16.134,137.867 16.000,200.000 16.000 C 262.133 16.000,293.600 16.134,293.600 16.400 M283.086 57.045 C 285.526 57.868,288.783 60.165,290.407 62.208 L 291.672 63.800 278.375 63.905 C 263.638 64.022,264.384 64.108,265.576 62.434 C 269.131 57.441,277.041 55.007,283.086 57.045 M138.117 65.239 C 159.409 72.431,167.749 95.323,155.591 113.200 C 151.863 118.683,144.098 123.831,136.800 125.660 C 133.282 126.542,122.228 126.560,121.058 125.686 C 120.806 125.498,119.790 125.094,118.800 124.788 C 117.037 124.244,112.796 122.131,112.400 121.600 C 112.290 121.452,111.906 121.167,111.547 120.966 C 97.806 113.263,94.392 90.390,104.906 76.460 C 112.947 65.806,126.368 61.271,138.117 65.239 M291.403 80.005 C 291.541 80.228,290.607 81.445,289.327 82.709 C 282.627 89.327,273.773 89.327,267.073 82.709 C 265.793 81.445,264.859 80.228,264.997 80.005 C 265.158 79.745,269.886 79.600,278.200 79.600 C 286.514 79.600,291.242 79.745,291.403 80.005 M220.573 111.656 C 224.319 112.978,229.658 117.335,228.946 118.488 C 228.570 119.096,202.400 118.865,202.400 118.254 C 202.400 117.413,206.259 113.688,208.107 112.746 C 212.272 110.621,216.573 110.245,220.573 111.656 M228.956 134.730 C 229.328 135.330,225.728 139.003,223.671 140.123 C 218.153 143.126,212.855 143.141,207.784 140.170 C 205.731 138.966,202.400 135.719,202.400 134.921 C 202.400 134.321,228.587 134.132,228.956 134.730 M63.703 182.379 C 71.615 187.397,65.117 200.184,56.487 196.579 C 48.370 193.188,50.640 181.200,59.400 181.200 C 61.418 181.200,62.167 181.405,63.703 182.379 M128.400 181.777 C 133.253 182.581,136.744 183.482,140.000 184.772 C 143.312 186.084,148.000 188.515,148.000 188.920 C 148.000 189.117,146.605 190.892,144.900 192.864 C 133.933 205.552,128.451 215.552,130.185 219.703 C 133.293 227.142,141.301 226.675,145.685 218.800 C 154.582 202.820,168.436 189.769,181.800 184.779 C 185.862 183.263,188.793 182.516,193.565 181.780 C 198.323 181.047,201.677 181.047,206.435 181.780 C 211.208 182.516,214.187 183.275,218.200 184.781 C 231.003 189.583,244.253 201.670,253.085 216.600 C 256.501 222.376,257.266 223.351,259.047 224.196 C 264.117 226.601,270.400 222.726,270.400 217.195 C 270.400 213.620,262.952 201.744,255.049 192.717 C 251.298 188.432,251.232 188.903,255.900 186.685 C 265.889 181.937,275.702 180.271,284.800 181.777 C 289.672 182.584,293.159 183.485,296.400 184.777 C 338.424 201.523,360.115 268.397,341.948 325.200 C 326.782 372.617,289.075 395.885,255.180 378.742 C 251.486 376.874,251.455 376.778,253.737 374.400 C 258.812 369.112,266.756 357.783,269.512 351.904 C 272.141 346.295,268.028 340.367,261.862 340.878 C 258.368 341.168,257.246 342.158,253.718 348.061 C 242.067 367.559,226.507 380.120,210.200 383.189 C 208.880 383.437,206.931 383.811,205.869 384.020 C 203.312 384.523,197.121 384.504,194.167 383.983 C 187.913 382.880,186.108 382.463,183.800 381.585 C 183.360 381.418,182.370 381.055,181.600 380.778 C 169.083 376.286,155.805 364.014,146.536 348.368 C 143.978 344.050,143.072 342.865,141.622 341.937 C 136.595 338.723,129.600 342.618,129.600 348.631 C 129.600 351.978,137.901 365.023,145.267 373.253 C 148.642 377.024,148.661 376.799,144.820 378.742 C 119.481 391.557,92.904 382.664,72.078 354.400 C 67.019 347.534,60.364 333.278,57.419 323.000 C 56.852 321.020,56.226 318.860,56.028 318.200 C 55.502 316.448,54.124 309.837,53.610 306.600 C 53.366 305.060,53.072 303.260,52.957 302.600 C 51.206 292.523,51.310 273.458,53.179 261.800 C 53.391 260.480,53.673 258.680,53.806 257.800 C 54.044 256.216,54.318 254.882,55.197 251.000 C 61.810 221.821,77.945 197.939,98.200 187.352 C 107.954 182.253,118.982 180.217,128.400 181.777 M345.027 182.500 C 349.248 185.362,349.928 190.664,346.553 194.399 C 341.563 199.923,332.827 196.514,332.807 189.035 C 332.789 182.577,339.694 178.884,345.027 182.500 M165.600 299.069 C 162.702 300.320,146.587 317.076,145.775 319.684 C 143.809 325.996,150.111 331.570,156.293 328.987 C 157.137 328.634,159.985 326.171,162.998 323.187 C 165.879 320.334,168.501 318.000,168.825 318.000 C 169.148 318.000,171.480 320.090,174.007 322.645 C 179.852 328.556,181.412 329.600,184.400 329.600 C 187.388 329.600,188.948 328.556,194.793 322.645 C 197.320 320.090,199.652 318.000,199.975 318.000 C 200.299 318.000,202.921 320.334,205.802 323.187 C 214.722 332.020,216.680 332.004,225.594 323.029 C 228.341 320.263,230.852 318.000,231.176 318.000 C 231.499 318.000,234.121 320.334,237.002 323.187 C 244.510 330.621,249.040 331.689,252.799 326.911 C 256.794 321.832,256.011 320.008,245.073 308.924 C 231.853 295.527,231.036 295.401,221.232 305.243 C 218.407 308.079,215.952 310.400,215.777 310.400 C 215.601 310.400,213.007 307.988,210.012 305.040 C 200.834 296.006,199.109 296.025,189.837 305.258 C 186.997 308.086,184.555 310.400,184.409 310.400 C 184.263 310.400,181.816 308.097,178.972 305.282 C 172.168 298.550,169.585 297.350,165.600 299.069 " stroke="none" fill="#fb9474" fill-rule="evenodd"></path><path id="path2" d="M125.200 64.683 C 119.988 65.588,114.258 68.084,110.578 71.049 C 107.295 73.695,107.303 73.632,110.116 75.024 C 118.479 79.163,124.723 84.947,128.051 91.640 C 129.941 95.442,130.313 95.261,133.367 89.059 C 136.857 81.968,138.835 67.502,136.617 65.284 C 135.925 64.592,128.096 64.179,125.200 64.683 M158.739 87.111 C 157.350 90.554,143.093 95.690,134.763 95.747 C 130.545 95.777,129.813 95.870,130.263 96.320 C 130.558 96.615,130.800 97.069,130.800 97.329 C 130.800 99.182,137.687 107.637,141.701 110.712 C 145.094 113.311,151.318 116.594,152.207 116.252 C 153.079 115.918,156.374 111.269,157.489 108.800 C 160.658 101.785,161.214 97.822,160.169 89.707 C 159.924 87.801,159.079 86.268,158.739 87.111 M117.934 95.827 C 112.692 96.775,104.979 100.178,101.756 102.963 C 100.241 104.273,100.238 104.282,100.732 105.932 C 101.288 107.788,103.595 112.290,104.686 113.646 C 109.015 119.032,114.017 122.708,119.391 124.452 C 122.042 125.313,121.907 125.588,121.906 119.305 C 121.904 110.887,123.750 104.004,127.567 98.199 C 128.664 96.531,128.997 95.719,128.669 95.511 C 127.912 95.029,121.260 95.225,117.934 95.827 M214.400 111.584 C 214.070 111.806,213.136 111.991,212.324 111.994 C 211.512 111.997,210.736 112.180,210.600 112.400 C 210.464 112.620,210.003 112.800,209.576 112.800 C 209.149 112.800,208.800 112.980,208.800 113.200 C 208.800 113.420,208.534 113.600,208.209 113.600 C 207.883 113.600,206.582 114.635,205.317 115.900 L 203.017 118.200 215.369 118.306 C 222.163 118.364,227.829 118.302,227.961 118.168 C 228.285 117.838,223.631 113.600,222.945 113.600 C 222.645 113.600,222.400 113.420,222.400 113.200 C 222.400 112.980,222.076 112.800,221.680 112.800 C 221.284 112.800,220.789 112.638,220.580 112.441 C 220.371 112.244,219.480 111.988,218.600 111.873 C 217.720 111.758,216.550 111.556,216.000 111.423 C 215.450 111.290,214.730 111.363,214.400 111.584 M203.651 135.500 C 204.824 136.996,207.754 139.600,208.264 139.600 C 208.559 139.600,208.800 139.780,208.800 140.000 C 208.800 140.220,209.124 140.400,209.520 140.400 C 209.916 140.400,210.411 140.562,210.620 140.759 C 211.741 141.818,219.459 141.818,220.580 140.759 C 220.789 140.562,221.284 140.400,221.680 140.400 C 222.076 140.400,222.400 140.220,222.400 140.000 C 222.400 139.780,222.654 139.600,222.964 139.600 C 223.540 139.600,228.000 135.602,228.000 135.085 C 228.000 134.928,222.398 134.800,215.551 134.800 C 203.752 134.800,203.131 134.837,203.651 135.500 M56.081 182.451 C 49.238 185.839,51.761 196.592,59.400 196.592 C 67.056 196.592,69.567 185.773,62.685 182.441 C 60.472 181.370,58.260 181.373,56.081 182.451 M337.339 182.423 C 331.209 185.457,332.212 194.238,338.934 196.393 C 343.773 197.944,349.352 192.344,347.917 187.377 C 346.535 182.596,341.630 180.299,337.339 182.423 M140.134 235.703 C 134.740 243.784,133.955 253.933,138.117 261.800 C 138.349 262.240,138.913 263.309,139.370 264.175 C 145.906 276.573,165.377 279.710,177.228 270.275 C 181.759 266.668,186.401 258.800,183.998 258.800 C 183.824 258.800,182.538 258.110,181.141 257.266 C 179.743 256.423,177.610 255.188,176.400 254.522 C 175.190 253.856,170.240 251.013,165.400 248.205 C 153.573 241.343,154.090 241.640,151.600 240.283 C 150.390 239.624,149.220 238.947,149.000 238.779 C 148.225 238.188,141.534 234.400,141.268 234.403 C 141.121 234.404,140.610 234.989,140.134 235.703 M264.200 235.686 C 262.319 236.838,261.696 237.202,258.200 239.200 C 257.430 239.640,256.170 240.360,255.400 240.800 C 254.630 241.240,253.415 241.934,252.700 242.343 C 250.215 243.763,240.978 249.110,237.400 251.200 C 232.920 253.817,230.676 255.110,227.055 257.162 C 222.527 259.729,222.735 259.395,224.076 261.945 C 233.881 280.583,259.845 280.688,269.716 262.130 C 273.837 254.382,273.106 243.092,268.029 236.100 C 266.581 234.106,266.751 234.124,264.200 235.686 " stroke="none" fill="#fcf9f9" fill-rule="evenodd"></path><path id="path3" d="M275.600 56.800 C 275.270 57.013,274.612 57.191,274.138 57.194 C 272.015 57.209,266.838 60.888,265.547 63.300 C 265.193 63.960,265.917 64.000,278.213 64.000 L 291.254 64.000 290.414 62.820 C 287.317 58.470,278.537 54.902,275.600 56.800 M266.228 81.402 C 272.032 89.011,283.810 88.961,290.189 81.300 L 291.271 80.000 278.215 80.000 L 265.159 80.000 266.228 81.402 " stroke="none" fill="#e4ec9c" fill-rule="evenodd"></path><path id="path4" d="M123.800 64.430 C 117.409 65.999,112.951 68.282,108.300 72.366 C 106.965 73.539,106.913 74.132,108.100 74.682 C 111.252 76.142,113.026 77.016,113.200 77.195 C 113.310 77.308,113.877 77.670,114.460 78.000 C 118.958 80.546,125.821 87.735,127.538 91.697 C 127.896 92.524,128.326 93.200,128.494 93.200 C 128.662 93.200,128.800 93.515,128.800 93.900 C 128.800 94.514,128.348 94.603,125.100 94.626 C 121.125 94.653,115.578 95.490,113.400 96.391 C 112.960 96.573,111.579 97.115,110.331 97.595 C 104.760 99.738,100.000 103.060,100.000 104.804 C 100.000 105.904,102.230 110.791,103.375 112.200 C 103.733 112.640,103.396 111.782,102.627 110.293 C 101.857 108.804,101.005 106.842,100.732 105.932 L 100.237 104.277 101.818 102.901 C 106.152 99.132,115.609 95.723,122.845 95.321 C 128.284 95.020,129.531 95.277,128.643 96.517 C 127.002 98.809,124.966 102.809,123.941 105.754 C 122.793 109.050,122.416 111.213,123.200 110.000 C 123.413 109.670,123.591 108.916,123.594 108.324 C 123.597 107.732,123.780 107.136,124.000 107.000 C 124.220 106.864,124.400 106.409,124.400 105.989 C 124.400 105.568,124.760 104.583,125.200 103.800 C 125.640 103.017,126.000 102.111,126.000 101.788 C 126.000 101.465,126.146 101.200,126.325 101.200 C 126.504 101.200,126.898 100.570,127.200 99.800 C 127.502 99.030,127.896 98.400,128.075 98.400 C 128.254 98.400,128.400 98.207,128.400 97.971 C 128.400 97.736,128.652 97.291,128.960 96.983 C 129.619 96.324,129.797 96.505,131.135 99.207 C 133.298 103.573,139.697 110.547,143.268 112.429 C 143.781 112.699,144.290 113.050,144.400 113.210 C 144.989 114.064,151.322 116.856,152.182 116.640 C 154.854 115.970,160.059 105.887,160.566 100.400 L 160.769 98.200 160.359 100.000 C 159.342 104.472,159.077 105.285,157.489 108.800 C 156.374 111.269,153.079 115.918,152.207 116.252 C 151.318 116.594,145.094 113.311,141.701 110.712 C 137.687 107.637,130.800 99.182,130.800 97.329 C 130.800 97.069,130.558 96.615,130.263 96.320 C 129.813 95.870,130.545 95.777,134.763 95.747 C 140.945 95.705,145.574 94.624,151.200 91.910 C 153.798 90.657,158.391 87.770,158.835 87.111 C 159.545 86.059,160.193 88.744,160.790 95.200 L 161.068 98.200 161.113 95.600 C 161.164 92.647,160.319 87.359,159.696 86.736 C 159.409 86.449,158.373 86.925,156.340 88.276 C 154.723 89.351,152.140 90.827,150.600 91.557 C 149.060 92.287,147.487 93.045,147.105 93.242 C 146.723 93.439,145.969 93.600,145.429 93.600 C 144.889 93.600,144.348 93.761,144.226 93.958 C 143.711 94.792,130.800 95.641,130.800 94.841 C 130.800 94.618,131.267 93.753,131.838 92.918 C 134.119 89.582,135.415 86.378,137.165 79.754 C 137.404 78.848,137.576 76.958,137.548 75.554 L 137.495 73.000 137.135 76.153 C 136.453 82.129,133.377 90.629,130.836 93.559 C 129.769 94.789,129.537 94.629,128.051 91.640 C 124.723 84.947,118.479 79.163,110.116 75.024 C 107.303 73.632,107.295 73.695,110.578 71.049 C 116.537 66.246,125.357 63.724,133.241 64.568 C 136.653 64.934,136.779 65.045,137.166 68.034 L 137.499 70.600 137.549 68.109 C 137.621 64.570,137.059 64.255,130.437 64.131 C 127.667 64.080,124.680 64.214,123.800 64.430 M122.206 112.800 C 122.011 114.010,121.872 117.202,121.896 119.894 C 121.921 122.586,121.820 124.860,121.671 124.947 C 119.523 126.198,104.800 116.258,104.800 113.557 C 104.800 113.361,104.610 113.200,104.377 113.200 C 102.248 113.200,111.442 121.329,116.000 123.476 C 122.730 126.646,123.302 126.460,122.368 121.410 C 122.050 119.687,122.061 118.223,122.413 115.837 C 122.676 114.056,122.816 112.150,122.726 111.600 C 122.612 110.906,122.453 111.273,122.206 112.800 M212.000 111.345 C 208.245 112.433,202.400 116.709,202.400 118.368 C 202.400 118.669,206.415 118.800,215.600 118.800 C 222.860 118.800,228.800 118.644,228.800 118.454 C 228.800 118.264,228.399 117.589,227.909 116.954 C 224.330 112.322,217.247 109.825,212.000 111.345 M218.600 111.873 C 219.480 111.988,220.371 112.244,220.580 112.441 C 220.789 112.638,221.284 112.800,221.680 112.800 C 222.076 112.800,222.400 112.980,222.400 113.200 C 222.400 113.420,222.645 113.600,222.945 113.600 C 223.631 113.600,228.285 117.838,227.961 118.168 C 227.829 118.302,222.163 118.364,215.369 118.306 L 203.017 118.200 205.317 115.900 C 206.582 114.635,207.883 113.600,208.209 113.600 C 208.534 113.600,208.800 113.420,208.800 113.200 C 208.800 112.980,209.149 112.800,209.576 112.800 C 210.003 112.800,210.464 112.620,210.600 112.400 C 210.736 112.180,211.512 111.997,212.324 111.994 C 213.136 111.991,214.070 111.806,214.400 111.584 C 214.730 111.363,215.450 111.290,216.000 111.423 C 216.550 111.556,217.720 111.758,218.600 111.873 M202.400 134.832 C 202.400 136.843,208.990 141.237,213.132 141.988 C 218.933 143.040,228.800 138.435,228.800 134.675 C 228.800 134.524,222.860 134.400,215.600 134.400 C 206.415 134.400,202.400 134.531,202.400 134.832 M228.000 135.085 C 228.000 135.602,223.540 139.600,222.964 139.600 C 222.654 139.600,222.400 139.780,222.400 140.000 C 222.400 140.220,222.076 140.400,221.680 140.400 C 221.284 140.400,220.789 140.562,220.580 140.759 C 219.459 141.818,211.741 141.818,210.620 140.759 C 210.411 140.562,209.916 140.400,209.520 140.400 C 209.124 140.400,208.800 140.220,208.800 140.000 C 208.800 139.780,208.559 139.600,208.264 139.600 C 207.754 139.600,204.824 136.996,203.651 135.500 C 203.131 134.837,203.752 134.800,215.551 134.800 C 222.398 134.800,228.000 134.928,228.000 135.085 M56.309 181.749 C 49.488 184.774,50.777 197.072,57.884 196.770 C 58.288 196.752,58.031 196.533,57.296 196.266 C 49.258 193.351,50.944 181.600,59.400 181.600 C 67.856 181.600,69.542 193.351,61.504 196.266 C 60.769 196.533,60.512 196.752,60.916 196.770 C 62.381 196.832,64.843 195.160,66.021 193.303 C 70.088 186.889,63.199 178.693,56.309 181.749 M337.400 181.865 C 330.700 185.397,332.020 197.080,339.084 196.768 C 339.511 196.750,339.315 196.567,338.600 196.317 C 333.699 194.604,331.724 188.950,334.585 184.821 C 338.150 179.677,346.510 181.180,347.816 187.200 C 347.983 187.970,348.198 188.377,348.292 188.103 C 349.650 184.189,341.666 179.616,337.400 181.865 M348.049 190.000 C 348.016 190.330,347.889 191.050,347.767 191.600 C 347.575 192.464,347.607 192.503,347.999 191.888 C 348.248 191.497,348.375 190.777,348.281 190.288 C 348.186 189.800,348.082 189.670,348.049 190.000 M345.683 194.301 C 344.959 195.071,344.437 195.770,344.522 195.856 C 344.771 196.104,346.766 194.412,347.217 193.569 C 347.837 192.409,347.159 192.733,345.683 194.301 M342.200 196.400 L 341.400 196.744 342.200 196.766 C 342.640 196.778,343.270 196.613,343.600 196.400 C 344.395 195.886,343.396 195.886,342.200 196.400 M139.145 236.303 C 132.407 246.940,133.693 259.757,142.400 268.754 C 145.050 271.491,151.031 275.200,152.797 275.200 C 153.151 275.200,153.611 275.362,153.820 275.559 C 155.134 276.801,167.464 276.790,168.233 275.547 C 168.351 275.356,168.799 275.200,169.229 275.200 C 169.659 275.200,170.368 275.020,170.805 274.800 C 171.242 274.580,171.960 274.220,172.400 274.000 C 173.918 273.241,174.971 272.598,175.513 272.100 C 175.812 271.825,176.208 271.600,176.393 271.600 C 177.188 271.600,182.074 266.213,183.541 263.720 C 185.724 260.011,185.811 259.172,184.100 258.295 C 182.900 257.680,181.344 256.790,178.082 254.856 C 176.918 254.165,175.906 253.600,175.834 253.600 C 175.761 253.600,174.104 252.643,172.151 251.473 C 170.198 250.303,167.610 248.799,166.400 248.132 C 163.707 246.646,162.039 245.691,159.282 244.056 C 158.118 243.365,156.993 242.800,156.782 242.800 C 156.572 242.800,156.400 242.641,156.400 242.447 C 156.400 242.252,156.085 241.990,155.700 241.864 C 155.315 241.738,154.190 241.152,153.200 240.561 C 152.210 239.970,150.860 239.175,150.200 238.795 C 149.540 238.414,147.411 237.180,145.468 236.051 C 141.061 233.491,140.923 233.497,139.145 236.303 M262.400 236.084 C 258.306 238.513,256.746 239.415,252.755 241.662 C 252.230 241.958,251.710 242.290,251.600 242.400 C 251.490 242.510,250.680 242.974,249.800 243.430 C 247.731 244.504,246.252 245.348,246.000 245.600 C 245.890 245.710,245.370 246.042,244.845 246.338 C 243.187 247.271,234.492 252.257,232.100 253.645 C 231.385 254.060,230.215 254.735,229.500 255.143 C 228.785 255.552,227.390 256.370,226.400 256.961 C 225.410 257.552,224.321 258.129,223.980 258.243 C 220.622 259.371,226.912 269.338,233.062 272.636 C 237.490 275.010,237.913 275.200,238.771 275.200 C 239.201 275.200,239.649 275.356,239.767 275.547 C 240.536 276.790,252.866 276.801,254.180 275.559 C 254.389 275.362,254.866 275.200,255.239 275.200 C 256.069 275.200,259.709 273.314,262.240 271.572 C 267.018 268.285,270.394 263.300,272.381 256.600 C 273.210 253.802,272.668 244.337,271.521 241.600 C 268.148 233.551,267.416 233.109,262.400 236.084 M145.068 236.437 C 147.011 237.558,148.780 238.612,149.000 238.779 C 149.220 238.947,150.390 239.624,151.600 240.283 C 154.090 241.640,153.573 241.343,165.400 248.205 C 170.240 251.013,175.190 253.856,176.400 254.522 C 177.610 255.188,179.743 256.423,181.141 257.266 C 182.538 258.110,183.824 258.800,183.998 258.800 C 186.401 258.800,181.759 266.668,177.228 270.275 C 165.377 279.710,145.906 276.573,139.370 264.175 C 138.913 263.309,138.349 262.240,138.117 261.800 C 133.955 253.933,134.740 243.784,140.134 235.703 C 141.219 234.077,140.893 234.029,145.068 236.437 M268.029 236.100 C 273.106 243.092,273.837 254.382,269.716 262.130 C 259.845 280.688,233.881 280.583,224.076 261.945 C 222.735 259.395,222.527 259.729,227.055 257.162 C 230.676 255.110,232.920 253.817,237.400 251.200 C 240.978 249.110,250.215 243.763,252.700 242.343 C 253.415 241.934,254.630 241.240,255.400 240.800 C 256.170 240.360,257.430 239.640,258.200 239.200 C 261.696 237.202,262.319 236.838,264.200 235.686 C 266.751 234.124,266.581 234.106,268.029 236.100 " stroke="none" fill="#fcddb8" fill-rule="evenodd"></path></g></svg>