<svg id="svg" version="1.1" xmlns="http://www.w3.org/2000/svg" xmlns:xlink="http://www.w3.org/1999/xlink" width="400" height="400" viewBox="0, 0, 400,400"><g id="svgg"><path id="path0" d="M191.800 44.835 C 167.090 46.479,138.869 56.804,122.479 70.199 C 122.105 70.504,120.270 71.976,118.400 73.471 C 107.488 82.193,95.568 95.783,88.992 107.000 C 88.348 108.100,87.495 109.540,87.098 110.200 C 80.924 120.455,74.565 137.739,72.382 150.200 C 71.389 155.867,71.754 155.343,67.467 157.256 C 49.454 165.297,56.422 193.559,76.427 193.595 C 95.805 193.630,102.766 165.668,85.428 157.440 L 83.917 156.723 84.197 154.462 C 87.133 130.672,103.242 102.372,123.642 85.166 C 128.168 81.348,128.307 81.240,132.200 78.477 C 157.482 60.533,188.521 53.526,220.000 58.657 C 227.800 59.928,237.617 62.714,243.800 65.411 C 244.460 65.699,245.810 66.256,246.800 66.649 C 249.524 67.729,256.513 71.370,261.000 74.045 C 264.478 76.119,266.437 77.464,272.179 81.725 C 286.040 92.010,299.815 109.574,307.531 126.800 C 311.118 134.808,314.989 147.748,315.807 154.462 L 316.083 156.723 314.572 157.440 C 305.813 161.597,302.003 173.778,306.571 183.021 C 314.073 198.199,336.273 196.664,342.046 180.568 C 345.416 171.169,339.259 158.419,330.268 156.179 C 328.888 155.835,328.604 155.195,327.796 150.600 C 324.454 131.600,316.108 112.807,303.471 95.830 C 290.757 78.750,270.082 62.718,250.389 54.669 C 249.405 54.267,248.150 53.748,247.600 53.515 C 247.050 53.283,246.240 52.947,245.800 52.768 C 244.692 52.318,238.185 50.221,236.000 49.610 C 235.010 49.334,233.750 48.960,233.200 48.779 C 223.757 45.681,205.388 43.931,191.800 44.835 M161.097 102.300 C 160.752 102.685,159.977 104.525,159.376 106.390 C 157.338 112.704,155.118 113.515,149.766 109.900 C 144.671 106.458,141.846 107.178,140.472 112.270 C 138.589 119.245,135.891 120.375,130.600 116.402 C 128.128 114.546,127.089 114.000,126.026 114.000 C 124.498 114.000,124.309 113.701,137.064 131.400 C 138.015 132.720,139.965 135.407,141.397 137.372 C 144.507 141.639,144.473 141.326,142.072 143.585 C 136.448 148.877,132.851 156.899,132.814 164.234 L 132.800 167.068 183.900 167.328 C 241.429 167.622,236.053 167.863,238.641 164.880 C 239.718 163.638,242.569 160.457,244.975 157.811 C 259.825 141.483,259.005 142.453,258.209 142.148 C 256.028 141.311,246.188 145.233,241.600 148.768 C 238.445 151.199,238.639 151.182,237.811 149.100 C 229.012 126.982,203.817 117.258,182.155 127.618 C 179.000 129.127,173.361 133.015,171.853 134.722 C 171.170 135.495,170.825 135.547,167.853 135.329 C 162.856 134.962,163.356 136.523,163.043 120.317 C 162.685 101.730,162.569 100.657,161.097 102.300 M279.544 149.109 C 278.963 149.929,277.091 152.130,275.385 154.000 C 273.678 155.870,271.543 158.212,270.641 159.204 C 269.738 160.196,267.875 162.227,266.500 163.718 C 265.125 165.209,264.000 166.603,264.000 166.815 C 264.000 167.055,269.862 167.200,279.600 167.200 C 293.125 167.200,295.200 167.121,295.200 166.606 C 295.200 163.115,289.345 154.136,284.169 149.689 C 281.282 147.208,280.922 147.163,279.544 149.109 M158.599 204.295 C 157.060 206.878,155.728 209.173,155.641 209.396 C 155.553 209.618,154.995 210.520,154.400 211.400 C 153.805 212.280,153.247 213.184,153.159 213.409 C 153.072 213.635,151.399 216.515,149.442 219.809 C 147.485 223.104,144.560 228.030,142.942 230.755 C 141.324 233.480,140.000 235.865,140.000 236.055 C 140.000 236.245,149.720 236.400,161.600 236.400 C 178.616 236.400,183.199 236.294,183.195 235.900 C 183.193 235.625,182.721 234.590,182.147 233.600 C 181.573 232.610,180.791 231.260,180.410 230.600 C 179.087 228.311,172.122 216.586,170.465 213.859 C 169.549 212.352,168.800 211.066,168.800 211.002 C 168.800 210.630,162.048 199.816,161.754 199.718 C 161.559 199.653,160.139 201.713,158.599 204.295 M236.892 201.500 C 235.485 203.745,232.214 209.198,231.218 210.960 C 229.906 213.281,221.514 227.394,220.555 228.891 C 220.030 229.712,219.600 230.489,219.600 230.619 C 219.600 230.749,219.070 231.626,218.423 232.567 C 217.776 233.507,217.126 234.755,216.980 235.339 L 216.713 236.400 238.357 236.400 C 255.512 236.400,260.000 236.295,260.000 235.895 C 260.000 235.618,258.650 233.169,257.000 230.453 C 255.350 227.737,254.000 225.458,254.000 225.387 C 254.000 225.316,253.123 223.830,252.052 222.084 C 250.980 220.338,250.035 218.746,249.952 218.546 C 249.415 217.259,238.639 199.600,238.391 199.600 C 238.222 199.600,237.547 200.455,236.892 201.500 M138.674 263.380 C 131.388 265.978,131.866 272.274,140.133 282.600 C 144.247 287.739,145.406 288.909,152.273 294.854 C 157.124 299.055,168.377 305.204,175.560 307.581 C 196.400 314.476,220.162 312.193,237.820 301.599 C 239.151 300.800,240.515 300.042,240.851 299.913 C 246.235 297.847,261.890 281.813,265.638 274.527 C 268.067 269.804,265.182 263.726,260.153 262.972 C 257.734 262.609,257.071 262.829,249.600 266.472 C 245.970 268.243,242.640 269.831,242.200 270.003 C 238.365 271.496,237.001 271.980,234.308 272.800 L 231.216 273.742 231.108 281.971 L 231.000 290.200 224.000 290.314 C 214.248 290.473,215.242 291.212,215.110 283.695 L 215.000 277.400 213.800 277.474 C 199.958 278.334,194.367 278.336,186.200 277.483 C 185.436 277.404,185.395 277.671,185.290 283.459 C 185.152 291.048,185.922 290.444,176.548 290.309 L 169.000 290.200 168.892 281.985 L 168.784 273.770 166.892 273.249 C 162.313 271.989,155.530 269.163,147.463 265.154 C 142.478 262.677,141.306 262.441,138.674 263.380 " stroke="none" fill="#48435c" fill-rule="evenodd"></path><path id="path1" d="M196.900 57.094 C 197.945 57.176,199.655 57.176,200.700 57.094 C 201.745 57.012,200.890 56.944,198.800 56.944 C 196.710 56.944,195.855 57.012,196.900 57.094 M119.375 88.900 L 118.200 90.200 119.500 89.025 C 120.712 87.930,120.984 87.600,120.675 87.600 C 120.606 87.600,120.021 88.185,119.375 88.900 M114.175 94.100 L 113.000 95.400 114.300 94.225 C 115.512 93.130,115.784 92.800,115.475 92.800 C 115.406 92.800,114.821 93.385,114.175 94.100 M162.501 103.000 C 162.505 103.880,162.587 104.193,162.683 103.695 C 162.779 103.198,162.775 102.478,162.675 102.095 C 162.575 101.713,162.496 102.120,162.501 103.000 M250.400 102.388 C 237.147 104.869,227.971 114.903,231.905 122.613 C 235.178 129.029,242.465 130.163,248.250 125.157 C 255.819 118.606,266.207 123.479,265.015 133.021 C 264.626 136.134,260.654 141.600,258.782 141.600 C 258.064 141.600,257.951 141.711,258.306 142.066 C 258.662 142.422,258.427 142.922,257.322 144.166 C 255.648 146.051,251.229 150.935,244.975 157.811 C 242.569 160.457,239.706 163.652,238.614 164.911 C 237.521 166.170,236.366 167.200,236.047 167.200 C 235.728 167.200,235.601 167.335,235.766 167.500 C 235.930 167.665,240.145 167.890,245.132 168.000 L 254.200 168.200 256.890 173.560 C 258.369 176.508,260.407 181.098,261.418 183.760 C 262.429 186.422,263.418 189.002,263.616 189.493 C 265.962 195.309,268.977 208.803,269.984 218.000 C 271.769 234.290,270.689 250.372,266.822 265.080 L 266.380 266.759 264.601 264.980 C 263.622 264.001,262.604 263.200,262.339 263.200 C 262.073 263.200,262.613 263.848,263.538 264.640 C 266.691 267.338,267.463 270.977,265.638 274.527 C 261.879 281.835,246.041 298.038,240.831 299.904 C 240.484 300.028,239.720 300.463,239.133 300.869 C 237.923 301.707,231.596 304.918,229.845 305.583 C 229.209 305.825,228.793 306.127,228.921 306.254 C 229.311 306.644,237.975 302.228,242.000 299.587 C 248.377 295.404,255.226 289.269,259.626 283.800 L 260.913 282.200 260.668 283.495 C 260.324 285.304,255.395 295.385,252.405 300.392 C 243.977 314.505,233.331 326.802,220.994 336.676 C 216.084 340.605,214.822 341.601,213.069 342.933 L 211.139 344.400 241.575 344.400 C 271.707 344.400,272.958 344.353,274.000 343.174 C 274.110 343.049,275.100 342.341,276.200 341.600 C 284.893 335.745,298.360 322.976,304.464 314.800 C 305.039 314.030,305.906 312.950,306.390 312.400 C 306.874 311.850,307.563 310.905,307.921 310.300 C 308.280 309.695,308.714 309.200,308.886 309.200 C 309.059 309.200,309.200 309.013,309.200 308.785 C 309.200 308.556,310.249 306.801,311.531 304.885 C 315.451 299.025,320.521 289.360,322.854 283.300 C 323.869 280.663,324.854 278.277,325.247 277.505 C 325.441 277.123,325.600 276.459,325.600 276.029 C 325.600 275.599,325.780 275.136,326.000 275.000 C 326.220 274.864,326.400 274.324,326.400 273.800 C 326.400 273.276,326.580 272.736,326.800 272.600 C 327.020 272.464,327.200 271.834,327.200 271.200 C 327.200 270.566,327.359 269.949,327.554 269.829 C 327.749 269.708,328.007 269.113,328.128 268.505 C 328.354 267.371,328.982 264.631,329.664 261.800 C 331.496 254.202,332.784 242.229,332.784 232.800 C 332.784 224.150,331.441 210.797,330.009 205.200 C 329.812 204.430,329.448 202.900,329.200 201.800 C 328.476 198.587,327.938 196.662,327.501 195.726 C 327.277 195.246,327.179 194.526,327.284 194.126 C 327.458 193.465,327.213 193.412,324.531 193.532 C 311.202 194.129,301.127 180.875,305.394 168.358 C 305.857 167.000,305.870 166.759,305.452 167.300 C 304.524 168.502,296.107 168.331,295.612 167.100 C 295.413 166.605,295.239 166.425,295.225 166.700 C 295.194 167.328,264.000 167.442,264.000 166.815 C 264.000 166.603,265.125 165.209,266.500 163.718 C 267.875 162.227,269.738 160.196,270.641 159.204 C 271.543 158.212,273.678 155.870,275.385 154.000 C 277.091 152.130,278.963 149.929,279.544 149.109 C 280.125 148.288,280.819 147.613,281.087 147.609 C 281.356 147.604,281.481 147.356,281.367 147.058 C 281.252 146.760,281.512 145.905,281.943 145.158 C 284.641 140.488,286.043 131.107,284.768 126.246 C 284.531 125.341,284.143 123.880,283.906 123.000 C 280.233 109.347,264.598 99.729,250.400 102.388 M162.959 113.200 C 162.959 116.390,163.021 117.695,163.097 116.100 C 163.173 114.505,163.173 111.895,163.097 110.300 C 163.021 108.705,162.959 110.010,162.959 113.200 M141.923 108.700 C 141.218 109.521,140.690 110.400,140.901 110.400 C 140.983 110.400,141.449 109.860,141.937 109.200 C 142.901 107.896,142.892 107.572,141.923 108.700 M124.802 114.415 C 124.801 114.753,125.295 115.573,125.900 116.237 C 126.505 116.901,126.787 117.164,126.528 116.821 C 126.268 116.479,125.774 115.659,125.430 114.999 C 125.086 114.340,124.804 114.077,124.802 114.415 M135.400 118.400 C 134.293 118.682,134.277 118.709,135.200 118.747 C 135.750 118.769,136.470 118.613,136.800 118.400 C 137.481 117.960,137.129 117.960,135.400 118.400 M128.800 120.400 C 129.270 121.060,129.744 121.600,129.854 121.600 C 129.964 121.600,129.670 121.060,129.200 120.400 C 128.730 119.740,128.256 119.200,128.146 119.200 C 128.036 119.200,128.330 119.740,128.800 120.400 M163.246 132.476 C 163.221 133.508,163.342 134.441,163.516 134.548 C 163.690 134.656,163.770 134.082,163.693 133.272 C 163.459 130.798,163.295 130.507,163.246 132.476 M138.540 134.237 C 138.589 134.805,137.602 135.168,133.000 136.273 C 129.920 137.013,126.725 137.794,125.900 138.009 C 124.256 138.438,122.022 138.999,119.700 139.567 C 116.844 140.266,114.595 140.856,113.372 141.227 C 112.696 141.432,111.672 141.600,111.095 141.600 C 110.519 141.600,109.936 141.780,109.800 142.000 C 109.664 142.220,109.122 142.400,108.595 142.400 C 108.069 142.400,107.224 142.567,106.719 142.770 C 106.213 142.974,104.675 143.371,103.300 143.653 C 101.925 143.934,100.800 144.299,100.800 144.462 C 100.800 144.626,101.446 147.334,102.236 150.480 C 103.026 153.626,103.826 156.920,104.014 157.800 C 105.079 162.780,106.206 166.766,106.684 167.244 C 107.286 167.846,193.391 168.262,193.760 167.665 C 193.977 167.313,186.589 167.200,163.424 167.200 L 132.800 167.200 132.814 164.300 C 132.851 156.898,136.426 148.898,142.072 143.585 C 144.475 141.324,144.510 141.635,141.371 137.376 C 138.250 133.140,138.465 133.380,138.540 134.237 M165.105 135.083 C 165.602 135.179,166.322 135.175,166.705 135.075 C 167.087 134.975,166.680 134.896,165.800 134.901 C 164.920 134.905,164.607 134.987,165.105 135.083 M284.000 149.325 C 284.000 149.394,284.585 149.979,285.300 150.625 L 286.600 151.800 285.425 150.500 C 284.330 149.288,284.000 149.016,284.000 149.325 M94.588 168.200 C 98.983 180.470,88.740 194.136,75.596 193.539 C 73.879 193.461,72.559 193.533,72.661 193.699 C 73.210 194.587,81.041 193.889,83.295 192.751 C 83.677 192.558,84.262 192.400,84.595 192.400 C 84.928 192.400,85.200 192.264,85.200 192.098 C 85.200 191.931,85.739 191.557,86.398 191.265 C 87.544 190.758,91.136 187.486,92.400 185.799 C 93.067 184.908,94.430 182.143,95.259 180.000 C 96.119 177.776,95.956 169.626,95.026 168.376 C 94.455 167.607,94.362 167.569,94.588 168.200 M160.792 200.100 C 160.364 200.982,160.369 200.984,161.013 200.200 L 161.670 199.400 162.217 200.200 C 163.539 202.130,163.972 202.466,163.122 200.903 C 162.088 198.999,161.434 198.774,160.792 200.100 M235.484 202.900 C 232.035 208.801,231.032 210.623,231.429 210.267 C 231.633 210.084,233.167 207.663,234.837 204.888 C 238.436 198.907,238.368 198.948,240.002 201.804 C 240.708 203.038,241.376 203.957,241.487 203.847 C 241.597 203.736,241.346 203.141,240.929 202.523 C 240.512 201.905,239.922 200.905,239.618 200.300 C 238.654 198.384,237.815 198.911,235.484 202.900 M159.353 202.500 C 157.976 204.836,157.886 205.035,158.587 204.200 C 159.400 203.232,160.100 202.000,159.838 202.000 C 159.733 202.000,159.515 202.225,159.353 202.500 M164.524 203.800 C 164.862 204.460,165.438 205.360,165.804 205.800 C 166.170 206.240,166.065 205.880,165.570 205.000 C 164.480 203.058,163.664 202.122,164.524 203.800 M242.675 206.300 C 243.285 207.345,245.183 210.515,246.892 213.344 C 248.601 216.174,250.000 218.546,250.000 218.615 C 250.000 218.684,250.900 220.208,252.000 222.000 C 253.100 223.792,254.000 225.316,254.000 225.387 C 254.000 225.458,255.350 227.737,257.000 230.453 C 258.650 233.169,260.000 235.618,260.000 235.895 C 260.000 236.295,255.512 236.400,238.357 236.400 L 216.713 236.400 216.980 235.339 C 217.126 234.755,217.776 233.507,218.423 232.567 C 219.070 231.626,219.600 230.777,219.600 230.681 C 219.600 230.584,221.137 227.937,223.016 224.797 C 226.952 218.218,227.661 216.897,226.445 218.400 C 226.000 218.950,225.408 219.850,225.130 220.400 C 224.852 220.950,224.124 222.152,223.512 223.072 C 222.901 223.992,222.400 224.817,222.400 224.906 C 222.400 224.995,220.960 227.478,219.200 230.425 C 217.440 233.371,216.000 236.011,216.000 236.291 C 216.000 236.697,220.501 236.800,238.200 236.800 L 260.400 236.800 260.391 235.900 C 260.386 235.405,260.030 234.550,259.600 234.000 C 259.170 233.450,258.814 232.852,258.809 232.672 C 258.804 232.492,258.287 231.592,257.659 230.672 C 257.032 229.752,256.447 228.814,256.359 228.587 C 256.196 228.163,253.111 222.931,249.332 216.668 C 248.159 214.725,247.200 212.970,247.200 212.768 C 247.200 212.566,247.041 212.400,246.847 212.400 C 246.652 212.400,246.393 212.085,246.271 211.700 C 246.054 211.015,244.796 208.796,244.400 208.400 C 244.004 208.004,242.746 205.785,242.529 205.100 C 242.407 204.715,242.140 204.400,241.936 204.400 C 241.733 204.400,242.065 205.255,242.675 206.300 M154.653 210.500 L 153.933 211.800 154.758 210.800 C 155.489 209.913,155.814 209.200,155.486 209.200 C 155.424 209.200,155.049 209.785,154.653 210.500 M229.040 213.840 C 228.021 215.535,227.260 216.993,227.348 217.081 C 227.436 217.169,228.341 215.855,229.360 214.160 C 230.379 212.465,231.140 211.007,231.052 210.919 C 230.964 210.831,230.059 212.145,229.040 213.840 M152.253 214.500 L 151.533 215.800 152.358 214.800 C 153.089 213.913,153.414 213.200,153.086 213.200 C 153.024 213.200,152.649 213.785,152.253 214.500 M171.000 214.800 C 171.341 215.460,171.711 216.000,171.821 216.000 C 171.931 216.000,171.741 215.460,171.400 214.800 C 171.059 214.140,170.689 213.600,170.579 213.600 C 170.469 213.600,170.659 214.140,171.000 214.800 M150.600 217.200 C 150.259 217.860,150.069 218.400,150.179 218.400 C 150.289 218.400,150.659 217.860,151.000 217.200 C 151.341 216.540,151.531 216.000,151.421 216.000 C 151.311 216.000,150.941 216.540,150.600 217.200 M173.400 218.800 C 173.741 219.460,174.111 220.000,174.221 220.000 C 174.331 220.000,174.141 219.460,173.800 218.800 C 173.459 218.140,173.089 217.600,172.979 217.600 C 172.869 217.600,173.059 218.140,173.400 218.800 M174.760 221.000 C 175.434 222.305,175.988 223.028,175.985 222.600 C 175.983 222.380,175.614 221.750,175.164 221.200 C 174.621 220.536,174.485 220.469,174.760 221.000 M146.614 223.835 C 146.241 224.404,146.005 224.938,146.089 225.022 C 146.173 225.107,146.558 224.641,146.944 223.988 C 147.806 222.528,147.548 222.409,146.614 223.835 M144.653 227.191 C 143.653 228.702,143.215 229.796,143.936 228.980 C 144.492 228.352,146.079 225.600,145.886 225.600 C 145.787 225.600,145.232 226.316,144.653 227.191 M178.749 227.800 C 178.965 228.240,179.434 228.960,179.793 229.400 L 180.444 230.200 180.051 229.400 C 179.835 228.960,179.366 228.240,179.007 227.800 L 178.356 227.000 178.749 227.800 M142.494 230.900 C 140.818 233.727,139.964 235.386,140.677 234.431 C 141.634 233.147,143.664 229.600,143.441 229.600 C 143.344 229.600,142.918 230.185,142.494 230.900 M180.415 230.600 C 180.417 230.820,180.786 231.450,181.236 232.000 C 181.779 232.664,181.915 232.731,181.640 232.200 C 180.966 230.895,180.412 230.172,180.415 230.600 M182.590 234.380 C 182.925 235.029,183.200 235.749,183.200 235.980 C 183.200 236.559,140.150 236.568,139.863 235.990 C 139.751 235.764,139.706 235.810,139.763 236.090 C 139.936 236.941,183.600 237.034,183.600 236.184 C 183.600 235.504,182.503 233.200,182.179 233.200 C 182.069 233.200,182.254 233.731,182.590 234.380 M139.316 262.720 C 139.050 262.889,139.887 263.021,141.176 263.014 C 142.465 263.006,143.313 262.868,143.060 262.706 C 142.455 262.319,139.932 262.329,139.316 262.720 M256.262 262.700 C 256.160 262.865,257.302 263.000,258.800 263.000 C 260.298 263.000,261.316 262.868,261.062 262.706 C 260.454 262.319,256.500 262.314,256.262 262.700 M144.033 263.352 C 144.441 263.724,148.400 265.593,148.400 265.413 C 148.400 265.188,144.580 263.200,144.147 263.200 C 143.993 263.200,143.942 263.268,144.033 263.352 M135.025 265.679 C 131.613 269.666,132.890 275.299,138.486 280.943 C 139.671 282.138,139.663 282.111,138.334 280.400 C 132.810 273.293,132.178 269.239,135.948 265.100 C 136.499 264.495,136.840 264.000,136.706 264.000 C 136.572 264.000,135.816 264.755,135.025 265.679 M249.600 266.026 C 246.303 267.723,244.398 268.574,239.600 270.493 C 239.050 270.713,238.287 271.052,237.905 271.247 C 237.523 271.441,236.936 271.600,236.600 271.600 C 236.264 271.600,235.677 271.762,235.295 271.961 C 234.913 272.160,233.834 272.549,232.898 272.826 C 231.962 273.103,231.276 273.409,231.374 273.507 C 231.634 273.767,238.014 271.699,242.200 269.997 C 244.296 269.145,254.000 264.379,254.000 264.201 C 254.000 263.821,253.392 264.073,249.600 266.026 M163.000 272.000 C 163.880 272.407,164.960 272.748,165.400 272.756 C 165.840 272.764,165.217 272.418,164.015 271.986 C 161.314 271.014,160.884 271.020,163.000 272.000 M230.891 281.900 L 230.800 289.600 223.200 289.600 L 215.600 289.600 215.600 283.400 C 215.600 279.990,215.465 277.200,215.300 277.199 C 214.774 277.198,215.184 289.742,215.720 290.083 C 216.603 290.644,230.801 290.463,231.022 289.888 C 231.130 289.606,231.165 285.961,231.100 281.788 L 230.981 274.200 230.891 281.900 M184.710 283.500 L 184.600 289.800 176.738 289.800 C 172.414 289.800,168.959 289.935,169.061 290.100 C 169.409 290.661,184.255 290.456,184.730 289.884 C 185.211 289.304,185.574 277.198,185.110 277.199 C 184.951 277.200,184.771 280.035,184.710 283.500 M188.200 277.618 C 190.947 278.046,193.231 278.012,190.800 277.580 C 189.810 277.403,188.370 277.270,187.600 277.283 C 186.455 277.303,186.565 277.364,188.200 277.618 M206.600 277.600 C 204.213 278.027,208.664 278.045,211.400 277.618 L 213.400 277.307 210.800 277.310 C 209.370 277.312,207.480 277.442,206.600 277.600 M197.107 278.290 C 197.826 278.379,198.906 278.377,199.507 278.286 C 200.108 278.195,199.520 278.122,198.200 278.124 C 196.880 278.126,196.388 278.201,197.107 278.290 M141.200 284.400 C 142.121 285.500,142.964 286.400,143.074 286.400 C 143.184 286.400,142.521 285.500,141.600 284.400 C 140.679 283.300,139.836 282.400,139.726 282.400 C 139.616 282.400,140.279 283.300,141.200 284.400 M147.271 290.906 C 148.852 292.418,152.703 295.600,152.952 295.600 C 153.111 295.600,152.197 294.730,150.921 293.666 C 149.644 292.602,148.353 291.432,148.051 291.066 C 147.749 290.700,147.331 290.400,147.122 290.400 C 146.914 290.400,146.981 290.628,147.271 290.906 M153.600 296.182 C 153.600 296.285,154.635 297.066,155.900 297.915 C 158.701 299.798,159.200 300.095,159.200 299.882 C 159.200 299.792,157.940 298.880,156.400 297.855 C 154.860 296.831,153.600 296.078,153.600 296.182 M163.600 302.596 C 163.600 302.870,166.049 304.084,166.232 303.901 C 166.319 303.814,165.762 303.444,164.995 303.078 C 164.228 302.712,163.600 302.495,163.600 302.596 M226.800 306.800 C 226.267 307.145,226.267 307.188,226.800 307.188 C 227.130 307.188,227.670 307.013,228.000 306.800 C 228.533 306.455,228.533 306.412,228.000 306.412 C 227.670 306.412,227.130 306.587,226.800 306.800 M221.800 308.421 C 219.617 309.105,218.635 309.560,219.305 309.575 C 219.913 309.589,220.723 309.438,221.105 309.239 C 221.487 309.040,222.610 308.649,223.600 308.369 C 224.590 308.090,225.571 307.712,225.780 307.530 C 226.341 307.043,225.821 307.159,221.800 308.421 M183.000 309.981 C 183.768 310.329,185.910 310.556,185.567 310.253 C 185.475 310.172,184.680 309.996,183.800 309.862 C 182.685 309.693,182.442 309.729,183.000 309.981 M216.000 310.000 C 215.045 310.306,215.057 310.322,216.276 310.360 C 216.978 310.382,217.664 310.220,217.800 310.000 C 218.084 309.540,217.436 309.540,216.000 310.000 M210.800 310.871 C 209.590 311.075,205.450 311.391,201.600 311.572 L 194.600 311.901 201.800 311.781 C 208.676 311.667,214.147 311.186,214.683 310.650 C 215.009 310.324,213.545 310.408,210.800 310.871 M188.700 311.082 C 189.195 311.178,190.005 311.178,190.500 311.082 C 190.995 310.987,190.590 310.909,189.600 310.909 C 188.610 310.909,188.205 310.987,188.700 311.082 M192.100 311.476 C 192.485 311.576,193.115 311.576,193.500 311.476 C 193.885 311.375,193.570 311.293,192.800 311.293 C 192.030 311.293,191.715 311.375,192.100 311.476 " stroke="none" fill="#f9631a" fill-rule="evenodd"></path><path id="path2" d="M188.400 57.600 C 186.751 57.856,186.717 57.883,188.000 57.917 C 188.770 57.937,190.120 57.805,191.000 57.623 C 193.066 57.196,191.112 57.178,188.400 57.600 M208.200 57.601 C 209.794 57.953,213.484 58.136,213.167 57.849 C 213.075 57.765,211.560 57.596,209.800 57.473 C 207.450 57.308,207.025 57.342,208.200 57.601 M216.000 58.380 C 216.999 58.720,219.482 58.932,219.167 58.651 C 219.075 58.569,218.100 58.399,217.000 58.272 C 215.651 58.116,215.326 58.151,216.000 58.380 M180.900 58.676 C 181.285 58.776,181.915 58.776,182.300 58.676 C 182.685 58.575,182.370 58.493,181.600 58.493 C 180.830 58.493,180.515 58.575,180.900 58.676 M221.000 59.181 C 221.768 59.529,223.910 59.756,223.567 59.453 C 223.475 59.372,222.680 59.196,221.800 59.062 C 220.685 58.893,220.442 58.929,221.000 59.181 M225.200 59.982 C 225.530 60.205,226.145 60.391,226.567 60.394 C 227.590 60.402,227.271 60.173,225.800 59.844 C 224.924 59.648,224.762 59.685,225.200 59.982 M170.200 60.800 C 169.696 61.017,169.622 61.144,170.000 61.144 C 170.330 61.144,170.960 60.989,171.400 60.800 C 171.904 60.583,171.978 60.456,171.600 60.456 C 171.270 60.456,170.640 60.611,170.200 60.800 M243.952 65.809 C 245.135 66.370,246.178 66.756,246.268 66.665 C 246.359 66.574,245.661 66.188,244.717 65.806 C 241.980 64.700,241.617 64.701,243.952 65.809 M139.800 73.600 C 139.140 74.037,138.780 74.392,139.000 74.388 C 139.401 74.382,141.576 72.823,141.200 72.812 C 141.090 72.808,140.460 73.163,139.800 73.600 M259.600 73.564 C 260.150 74.014,260.780 74.383,261.000 74.385 C 261.428 74.388,260.705 73.834,259.400 73.160 C 258.869 72.885,258.936 73.021,259.600 73.564 M265.400 77.089 C 266.099 77.800,272.000 82.040,272.000 81.831 C 272.000 81.721,270.695 80.670,269.100 79.494 C 266.079 77.268,264.684 76.361,265.400 77.089 M129.185 80.829 L 127.800 82.058 129.300 80.981 C 130.626 80.030,131.057 79.600,130.685 79.600 C 130.622 79.600,129.947 80.153,129.185 80.829 M124.175 84.900 L 123.000 86.200 124.300 85.025 C 125.512 83.930,125.784 83.600,125.475 83.600 C 125.406 83.600,124.821 84.185,124.175 84.900 M274.400 83.725 C 274.400 83.794,274.985 84.379,275.700 85.025 L 277.000 86.200 275.825 84.900 C 274.730 83.688,274.400 83.416,274.400 83.725 M120.800 87.800 C 119.828 88.790,119.123 89.600,119.233 89.600 C 119.343 89.600,120.228 88.790,121.200 87.800 C 122.172 86.810,122.877 86.000,122.767 86.000 C 122.657 86.000,121.772 86.810,120.800 87.800 M278.886 87.801 C 279.923 88.879,280.833 89.680,280.907 89.581 C 280.981 89.481,280.133 88.599,279.021 87.620 L 277.000 85.840 278.886 87.801 M283.234 91.847 C 283.765 92.533,284.280 93.023,284.379 92.935 C 284.477 92.847,284.043 92.286,283.413 91.688 L 282.269 90.600 283.234 91.847 M112.778 95.900 L 111.400 97.400 112.900 96.022 C 113.725 95.263,114.400 94.588,114.400 94.522 C 114.400 94.216,114.062 94.504,112.778 95.900 M286.800 95.800 C 287.546 96.570,288.247 97.200,288.357 97.200 C 288.467 97.200,287.946 96.570,287.200 95.800 C 286.454 95.030,285.753 94.400,285.643 94.400 C 285.533 94.400,286.054 95.030,286.800 95.800 M289.600 99.000 C 290.346 99.770,291.047 100.400,291.157 100.400 C 291.267 100.400,290.746 99.770,290.000 99.000 C 289.254 98.230,288.553 97.600,288.443 97.600 C 288.333 97.600,288.854 98.230,289.600 99.000 M109.775 99.300 L 108.600 100.600 109.900 99.425 C 111.112 98.330,111.384 98.000,111.075 98.000 C 111.006 98.000,110.421 98.585,109.775 99.300 M250.600 101.957 C 249.720 102.091,251.970 102.200,255.600 102.200 C 259.399 102.200,261.436 102.085,260.400 101.930 C 258.236 101.605,252.818 101.620,250.600 101.957 M162.934 104.800 C 162.934 106.450,163.005 107.125,163.091 106.300 C 163.178 105.475,163.178 104.125,163.091 103.300 C 163.005 102.475,162.934 103.150,162.934 104.800 M247.000 102.800 L 246.200 103.144 247.000 103.166 C 247.440 103.178,248.070 103.013,248.400 102.800 C 249.195 102.286,248.196 102.286,247.000 102.800 M262.400 102.546 C 262.400 102.733,266.189 104.008,266.675 103.984 C 267.146 103.962,264.792 102.978,263.500 102.657 C 262.895 102.507,262.400 102.457,262.400 102.546 M242.122 104.815 C 240.405 105.703,238.730 106.714,238.400 107.061 C 238.070 107.408,238.610 107.190,239.600 106.577 C 240.590 105.963,242.480 104.961,243.800 104.349 C 245.120 103.737,245.985 103.228,245.722 103.218 C 245.458 103.208,243.838 103.927,242.122 104.815 M267.387 104.379 C 267.530 104.611,267.883 104.800,268.172 104.800 C 270.908 104.800,279.203 112.825,281.885 118.065 C 282.824 119.899,283.593 121.213,283.596 120.984 C 283.613 119.315,279.143 112.647,276.006 109.662 C 273.397 107.178,266.507 102.956,267.387 104.379 M233.869 110.776 C 232.506 112.285,231.195 114.403,231.205 115.080 C 231.207 115.256,231.670 114.590,232.232 113.600 C 232.795 112.610,233.818 111.215,234.506 110.500 C 235.194 109.785,235.653 109.200,235.525 109.200 C 235.397 109.200,234.652 109.909,233.869 110.776 M300.600 114.400 C 300.941 115.060,301.311 115.600,301.421 115.600 C 301.531 115.600,301.341 115.060,301.000 114.400 C 300.659 113.740,300.289 113.200,300.179 113.200 C 300.069 113.200,300.259 113.740,300.600 114.400 M230.643 116.633 C 230.322 117.469,230.381 119.207,230.763 120.184 C 230.959 120.685,231.078 120.072,231.093 118.484 C 231.117 115.885,231.045 115.586,230.643 116.633 M302.200 117.200 C 302.541 117.860,302.911 118.400,303.021 118.400 C 303.131 118.400,302.941 117.860,302.600 117.200 C 302.259 116.540,301.889 116.000,301.779 116.000 C 301.669 116.000,301.859 116.540,302.200 117.200 M163.366 123.600 C 163.366 127.670,163.425 129.335,163.498 127.300 C 163.571 125.265,163.571 121.935,163.498 119.900 C 163.425 117.865,163.366 119.530,163.366 123.600 M231.216 121.746 C 231.188 122.355,232.933 125.200,233.336 125.200 C 233.549 125.200,233.449 124.885,233.112 124.500 C 232.775 124.115,232.215 123.260,231.866 122.600 C 231.517 121.940,231.225 121.555,231.216 121.746 M252.800 122.400 C 252.036 122.894,252.858 122.894,254.400 122.400 L 255.400 122.080 254.400 122.046 C 253.850 122.027,253.130 122.187,252.800 122.400 M255.633 122.147 C 255.725 122.228,256.520 122.404,257.400 122.538 C 258.515 122.707,258.758 122.671,258.200 122.419 C 257.432 122.071,255.290 121.844,255.633 122.147 M305.478 123.395 C 305.844 124.162,306.214 124.719,306.301 124.632 C 306.484 124.449,305.270 122.000,304.996 122.000 C 304.895 122.000,305.112 122.628,305.478 123.395 M249.760 124.000 C 248.902 124.659,247.498 125.739,246.641 126.400 C 245.783 127.060,245.254 127.600,245.464 127.600 C 245.675 127.600,246.745 126.835,247.843 125.900 C 248.940 124.965,250.279 123.894,250.819 123.521 C 251.358 123.148,251.692 122.833,251.560 122.821 C 251.428 122.809,250.618 123.340,249.760 124.000 M262.135 125.139 C 262.979 126.096,263.854 127.410,264.081 128.060 C 264.307 128.709,264.572 129.161,264.670 129.064 C 265.199 128.534,263.099 125.287,261.395 124.000 C 260.958 123.670,261.291 124.183,262.135 125.139 M284.468 124.800 C 284.462 125.350,284.611 126.160,284.800 126.600 L 285.144 127.400 285.132 126.600 C 285.126 126.160,284.976 125.350,284.800 124.800 L 284.480 123.800 284.468 124.800 M234.097 126.154 C 234.915 126.972,237.860 128.403,238.684 128.382 C 239.078 128.373,238.693 128.113,237.829 127.805 C 236.965 127.497,235.757 126.875,235.145 126.423 C 233.876 125.484,233.272 125.329,234.097 126.154 M243.400 128.000 L 242.200 128.305 243.276 128.353 C 243.868 128.379,244.464 128.220,244.600 128.000 C 244.736 127.780,244.792 127.621,244.724 127.647 C 244.656 127.673,244.060 127.832,243.400 128.000 M285.334 131.600 C 285.334 133.250,285.405 133.925,285.491 133.100 C 285.578 132.275,285.578 130.925,285.491 130.100 C 285.405 129.275,285.334 129.950,285.334 131.600 M264.909 131.600 C 264.909 132.590,264.987 132.995,265.082 132.500 C 265.178 132.005,265.178 131.195,265.082 130.700 C 264.987 130.205,264.909 130.610,264.909 131.600 M137.200 134.637 C 136.430 134.916,131.570 136.147,126.400 137.373 C 121.230 138.599,116.460 139.764,115.800 139.962 C 115.140 140.159,112.980 140.707,111.000 141.179 C 109.020 141.652,106.680 142.224,105.800 142.452 C 104.920 142.680,103.480 143.052,102.600 143.280 C 101.720 143.508,100.756 143.765,100.458 143.851 C 100.161 143.936,100.017 144.268,100.140 144.587 C 100.262 144.906,101.108 148.234,102.019 151.983 C 102.930 155.732,103.769 158.800,103.882 158.800 C 104.217 158.800,103.773 156.544,102.243 150.480 C 101.449 147.334,100.800 144.626,100.800 144.462 C 100.800 144.299,101.925 143.934,103.300 143.653 C 104.675 143.371,106.213 142.974,106.719 142.770 C 107.224 142.567,108.069 142.400,108.595 142.400 C 109.122 142.400,109.664 142.220,109.800 142.000 C 109.936 141.780,110.519 141.600,111.095 141.600 C 111.672 141.600,112.696 141.432,113.372 141.227 C 114.544 140.871,116.280 140.414,119.800 139.534 C 120.680 139.314,122.120 138.954,123.000 138.734 C 123.880 138.514,125.230 138.173,126.000 137.976 C 126.770 137.779,129.830 137.048,132.800 136.351 C 137.719 135.197,139.253 134.663,138.773 134.272 C 138.678 134.194,137.970 134.358,137.200 134.637 M164.500 134.676 C 164.885 134.776,165.515 134.776,165.900 134.676 C 166.285 134.575,165.970 134.493,165.200 134.493 C 164.430 134.493,164.115 134.575,164.500 134.676 M284.622 137.422 C 284.472 138.225,284.428 138.962,284.526 139.060 C 284.624 139.157,284.827 138.581,284.978 137.778 C 285.128 136.975,285.172 136.238,285.074 136.140 C 284.976 136.043,284.773 136.619,284.622 137.422 M261.760 138.779 C 260.682 140.087,259.440 141.188,259.000 141.225 C 258.253 141.288,258.249 141.305,258.953 141.486 C 259.447 141.613,260.035 141.286,260.657 140.540 C 263.193 137.500,264.053 136.400,263.893 136.400 C 263.798 136.400,262.838 137.471,261.760 138.779 M283.800 140.400 C 283.650 140.873,283.617 141.350,283.727 141.460 C 283.837 141.570,284.050 141.273,284.200 140.800 C 284.350 140.327,284.383 139.850,284.273 139.740 C 284.163 139.630,283.950 139.927,283.800 140.400 M282.267 144.467 C 281.645 145.789,281.201 146.935,281.280 147.013 C 281.358 147.091,281.932 146.076,282.556 144.756 C 283.179 143.436,283.623 142.290,283.542 142.209 C 283.462 142.129,282.888 143.145,282.267 144.467 M314.068 147.400 C 314.062 147.840,314.211 148.560,314.400 149.000 C 314.838 150.019,314.838 148.968,314.400 147.600 C 314.143 146.796,314.077 146.757,314.068 147.400 M240.400 149.234 L 238.600 150.865 240.500 149.384 C 242.166 148.086,242.659 147.597,242.300 147.601 C 242.245 147.602,241.390 148.336,240.400 149.234 M285.200 150.125 C 285.200 150.194,285.785 150.779,286.500 151.425 L 287.800 152.600 286.625 151.300 C 285.530 150.088,285.200 149.816,285.200 150.125 M314.868 151.000 C 314.862 151.440,315.011 152.160,315.200 152.600 C 315.638 153.619,315.638 152.568,315.200 151.200 C 314.943 150.396,314.877 150.357,314.868 151.000 M84.600 152.000 C 84.448 152.691,84.407 153.341,84.509 153.442 C 84.611 153.544,84.809 153.053,84.950 152.350 C 85.283 150.683,84.960 150.360,84.600 152.000 M85.200 157.220 C 86.587 158.161,87.378 158.435,86.400 157.636 C 85.850 157.186,85.220 156.817,85.000 156.815 C 84.780 156.813,84.870 156.996,85.200 157.220 M313.600 157.636 C 312.936 158.179,312.869 158.315,313.400 158.040 C 314.705 157.366,315.428 156.812,315.000 156.815 C 314.780 156.817,314.150 157.186,313.600 157.636 M104.007 159.633 C 104.011 159.945,104.368 161.550,104.800 163.200 C 105.232 164.850,105.589 166.425,105.593 166.700 C 105.607 167.735,94.965 167.371,94.223 166.311 C 93.880 165.822,93.600 165.600,93.600 165.818 C 93.600 166.036,94.084 166.927,94.676 167.798 C 95.685 169.283,95.753 169.666,95.776 173.990 C 95.800 178.677,95.632 179.484,93.859 183.199 C 92.434 186.183,88.659 190.264,86.398 191.265 C 85.739 191.557,85.200 191.931,85.200 192.098 C 85.200 192.264,84.928 192.400,84.595 192.400 C 84.262 192.400,83.677 192.558,83.295 192.751 C 80.733 194.045,73.542 194.540,72.421 193.500 C 72.043 193.149,71.963 193.142,72.152 193.478 C 72.299 193.741,71.800 196.531,71.042 199.678 C 69.115 207.678,68.956 208.526,67.528 218.400 C 67.234 220.436,67.037 226.213,67.037 232.800 C 67.037 243.166,67.172 245.130,68.454 253.400 C 71.070 270.281,76.939 286.442,85.885 301.403 C 88.295 305.431,88.748 306.110,92.860 311.847 C 100.890 323.049,116.201 337.674,126.413 343.897 L 127.826 344.758 200.207 344.764 L 272.588 344.770 275.594 342.701 C 295.842 328.760,314.564 305.999,322.560 285.600 C 322.948 284.610,323.501 283.260,323.789 282.600 C 330.553 267.093,334.456 243.607,333.245 225.700 C 332.764 218.584,331.764 210.413,331.326 210.013 C 331.083 209.792,331.169 210.812,332.180 220.200 C 333.395 231.473,332.737 245.682,330.422 258.200 C 330.074 260.087,329.625 262.110,328.736 265.800 C 328.524 266.680,328.251 267.897,328.129 268.505 C 328.007 269.113,327.749 269.708,327.554 269.829 C 327.359 269.949,327.200 270.566,327.200 271.200 C 327.200 271.834,327.020 272.464,326.800 272.600 C 326.580 272.736,326.400 273.276,326.400 273.800 C 326.400 274.324,326.220 274.864,326.000 275.000 C 325.780 275.136,325.600 275.599,325.600 276.029 C 325.600 276.459,325.441 277.123,325.247 277.505 C 325.052 277.887,324.716 278.650,324.500 279.200 C 323.685 281.272,323.362 282.069,322.028 285.300 C 319.712 290.910,315.004 299.692,311.531 304.885 C 310.249 306.801,309.200 308.556,309.200 308.785 C 309.200 309.013,309.059 309.200,308.886 309.200 C 308.714 309.200,308.280 309.695,307.921 310.300 C 307.563 310.905,306.874 311.850,306.390 312.400 C 305.906 312.950,305.039 314.030,304.464 314.800 C 298.360 322.976,284.893 335.745,276.200 341.600 C 275.100 342.341,274.110 343.049,274.000 343.174 C 272.958 344.353,271.707 344.400,241.575 344.400 L 211.139 344.400 213.069 342.933 C 214.822 341.601,216.084 340.605,220.994 336.676 C 233.331 326.802,243.977 314.505,252.405 300.392 C 255.395 295.385,260.324 285.304,260.668 283.495 L 260.913 282.200 259.626 283.800 C 252.066 293.196,239.648 302.348,229.000 306.371 C 227.680 306.870,226.240 307.429,225.800 307.613 C 225.360 307.797,224.280 308.161,223.400 308.423 C 222.520 308.684,221.487 309.056,221.105 309.249 C 220.723 309.442,219.879 309.600,219.229 309.600 C 218.579 309.600,217.951 309.756,217.833 309.947 C 217.715 310.138,216.759 310.421,215.709 310.576 C 214.659 310.730,212.720 311.034,211.400 311.249 C 207.297 311.919,197.667 312.116,193.200 311.620 C 185.002 310.710,176.529 308.698,172.705 306.753 C 172.323 306.559,171.809 306.400,171.563 306.400 C 170.658 306.400,162.880 302.374,158.882 299.836 C 151.848 295.371,145.627 289.826,140.368 283.335 C 138.972 281.611,137.711 280.110,137.566 280.000 C 136.580 279.249,133.269 273.395,133.048 272.011 C 132.500 268.583,134.654 264.909,138.185 263.249 C 141.026 261.914,142.118 262.119,148.038 265.100 C 155.031 268.622,158.400 270.067,164.000 271.948 L 168.600 273.493 168.800 281.647 L 169.000 289.800 176.800 289.800 L 184.600 289.800 184.710 283.441 L 184.821 277.082 188.510 277.432 C 193.047 277.862,203.664 277.852,210.500 277.412 L 215.600 277.084 215.600 283.342 L 215.600 289.600 223.200 289.600 L 230.800 289.600 230.805 282.300 C 230.812 273.418,230.807 273.442,232.933 272.814 C 233.850 272.544,234.913 272.160,235.295 271.961 C 235.677 271.762,236.264 271.600,236.600 271.600 C 236.936 271.600,237.523 271.441,237.905 271.247 C 238.768 270.808,240.075 270.271,242.394 269.403 C 243.381 269.034,247.072 267.307,250.597 265.566 C 258.869 261.480,261.854 261.467,265.180 265.502 L 266.336 266.905 266.800 265.153 C 272.093 245.137,272.156 221.388,266.970 201.000 C 265.936 196.936,264.159 190.837,263.616 189.493 C 263.418 189.002,262.429 186.422,261.418 183.760 C 260.407 181.098,258.369 176.508,256.890 173.560 L 254.200 168.200 243.800 167.948 C 238.080 167.810,224.490 167.720,213.600 167.748 C 163.081 167.880,107.059 167.619,106.689 167.249 C 106.293 166.853,105.382 163.860,104.813 161.084 C 104.493 159.524,103.995 158.628,104.007 159.633 M91.804 163.000 C 93.407 165.226,93.850 165.639,92.957 164.073 C 92.541 163.343,91.852 162.443,91.426 162.073 C 90.976 161.682,91.134 162.069,91.804 163.000 M308.035 162.500 C 306.504 164.973,306.284 165.369,306.649 165.000 C 307.566 164.072,309.215 161.600,308.917 161.600 C 308.738 161.600,308.342 162.005,308.035 162.500 M305.681 166.418 C 305.241 167.124,304.723 167.200,300.373 167.200 C 297.261 167.200,295.640 167.342,295.800 167.600 C 296.416 168.596,304.948 168.047,305.739 166.960 C 306.146 166.402,306.409 165.876,306.324 165.791 C 306.239 165.706,305.950 165.988,305.681 166.418 M342.640 170.266 C 343.008 171.799,343.200 171.944,343.200 170.690 C 343.200 170.117,343.013 169.532,342.784 169.390 C 342.511 169.221,342.462 169.523,342.640 170.266 M342.854 177.467 C 342.825 177.944,342.696 178.664,342.570 179.067 C 342.352 179.761,342.364 179.762,342.796 179.088 C 343.047 178.697,343.175 177.977,343.081 177.488 C 342.909 176.601,342.909 176.601,342.854 177.467 M340.032 184.739 C 339.379 185.960,339.514 186.300,340.241 185.263 C 340.593 184.760,340.788 184.254,340.673 184.140 C 340.559 184.025,340.270 184.295,340.032 184.739 M337.200 188.200 C 336.228 189.190,335.523 190.000,335.633 190.000 C 335.743 190.000,336.628 189.190,337.600 188.200 C 338.572 187.210,339.277 186.400,339.167 186.400 C 339.057 186.400,338.172 187.210,337.200 188.200 M327.467 193.467 C 327.088 193.845,327.136 195.089,327.561 195.905 C 327.980 196.712,328.574 198.883,329.228 202.000 C 329.482 203.210,329.850 204.613,330.045 205.119 C 330.240 205.624,330.403 206.614,330.406 207.319 C 330.409 208.023,330.587 208.870,330.800 209.200 C 331.748 210.667,330.042 201.725,328.269 195.931 C 327.860 194.595,327.820 193.940,328.129 193.631 C 328.414 193.346,328.420 193.200,328.147 193.200 C 327.919 193.200,327.613 193.320,327.467 193.467 M164.000 202.277 C 164.990 203.964,166.266 206.166,166.836 207.172 C 167.406 208.177,169.701 212.041,171.936 215.757 C 174.171 219.474,176.000 222.548,176.000 222.588 C 176.000 222.629,177.710 225.528,179.800 229.031 C 181.890 232.534,183.600 235.715,183.600 236.100 C 183.600 236.928,140.304 237.215,139.794 236.391 C 139.655 236.166,140.297 234.681,141.221 233.091 C 142.145 231.501,143.259 229.570,143.697 228.800 C 144.135 228.030,144.833 226.922,145.247 226.338 C 145.661 225.754,146.000 225.152,146.000 225.000 C 146.000 224.848,146.339 224.246,146.753 223.662 C 147.167 223.078,147.860 221.970,148.292 221.200 C 148.725 220.430,151.388 215.930,154.211 211.200 C 157.033 206.470,159.776 201.835,160.306 200.900 C 161.604 198.607,161.914 198.723,164.000 202.277 M239.856 200.700 C 241.036 202.901,241.774 204.174,242.000 204.400 C 242.110 204.510,242.425 205.005,242.700 205.500 C 242.975 205.995,243.425 206.805,243.700 207.300 C 243.975 207.795,244.290 208.290,244.400 208.400 C 244.796 208.796,246.054 211.015,246.271 211.700 C 246.393 212.085,246.652 212.400,246.847 212.400 C 247.041 212.400,247.200 212.566,247.200 212.768 C 247.200 212.970,248.159 214.725,249.332 216.668 C 253.111 222.931,256.196 228.163,256.359 228.587 C 256.447 228.814,257.032 229.752,257.659 230.672 C 258.287 231.592,258.804 232.492,258.809 232.672 C 258.814 232.852,259.170 233.450,259.600 234.000 C 260.030 234.550,260.386 235.405,260.391 235.900 L 260.400 236.800 238.200 236.800 C 220.501 236.800,216.000 236.697,216.000 236.291 C 216.000 236.011,217.440 233.371,219.200 230.425 C 220.960 227.478,222.400 224.995,222.400 224.906 C 222.400 224.817,222.940 223.959,223.600 223.000 C 224.260 222.041,224.800 221.141,224.800 221.000 C 224.800 220.859,225.313 219.992,225.941 219.072 C 226.568 218.152,227.153 217.216,227.241 216.991 C 227.328 216.766,228.681 214.426,230.247 211.791 C 231.813 209.156,234.118 205.245,235.370 203.100 C 237.931 198.713,238.599 198.355,239.856 200.700 " stroke="none" fill="#fb8804" fill-rule="evenodd"></path><path id="path3" d="M66.629 49.429 C 66.205 49.738,65.936 50.069,66.030 50.163 C 66.124 50.257,66.548 50.081,66.971 49.771 C 67.395 49.462,67.664 49.131,67.570 49.037 C 67.476 48.943,67.052 49.119,66.629 49.429 M189.800 57.651 C 188.260 57.854,185.560 58.202,183.800 58.423 C 180.389 58.852,177.082 59.437,174.800 60.014 C 174.030 60.209,172.230 60.659,170.800 61.016 C 169.370 61.372,167.570 61.823,166.800 62.017 C 161.472 63.359,144.010 70.790,142.400 72.400 C 142.290 72.510,141.770 72.842,141.245 73.138 C 140.720 73.433,139.664 74.027,138.898 74.457 C 129.262 79.870,114.402 93.128,107.600 102.382 C 107.050 103.130,106.224 104.206,105.764 104.771 C 99.224 112.821,90.644 129.944,87.559 141.100 C 87.362 141.815,87.011 143.075,86.781 143.900 C 84.988 150.316,84.043 156.799,84.900 156.802 C 86.465 156.807,91.375 161.493,93.428 164.939 L 94.655 167.000 100.128 167.111 C 103.682 167.184,105.600 167.078,105.600 166.811 C 105.600 166.401,100.625 146.140,100.180 144.737 C 100.041 144.298,100.160 143.935,100.472 143.845 C 100.763 143.762,101.720 143.508,102.600 143.280 C 103.480 143.052,104.920 142.680,105.800 142.452 C 106.680 142.224,109.020 141.652,111.000 141.179 C 112.980 140.707,115.140 140.160,115.800 139.962 C 116.460 139.765,121.140 138.615,126.200 137.407 C 136.896 134.852,138.400 134.449,138.400 134.139 C 138.400 134.014,136.915 131.845,135.100 129.320 C 131.305 124.040,128.785 120.516,126.823 117.745 C 126.066 116.675,125.301 115.740,125.123 115.667 C 124.031 115.216,124.891 114.000,126.300 114.002 C 127.808 114.004,128.330 114.265,131.810 116.755 C 134.138 118.420,136.322 118.589,137.784 117.215 C 138.728 116.328,139.036 115.681,139.977 112.600 C 141.805 106.621,144.848 105.717,150.000 109.623 C 153.743 112.461,158.400 111.837,158.400 108.498 C 158.400 106.856,160.092 102.802,161.194 101.806 C 163.019 100.154,163.120 100.901,163.429 118.231 L 163.714 134.262 167.261 134.787 L 170.808 135.313 173.104 133.331 C 194.524 114.845,228.123 123.201,237.995 149.469 L 238.472 150.739 240.883 148.796 C 242.209 147.727,244.848 146.099,246.747 145.177 C 248.646 144.256,250.513 143.344,250.895 143.151 C 251.277 142.958,252.031 142.800,252.571 142.800 C 253.111 142.800,253.664 142.620,253.800 142.400 C 253.936 142.180,254.574 142.000,255.218 142.000 C 261.778 142.000,266.800 133.847,263.961 127.807 C 261.012 121.532,253.763 120.529,248.200 125.627 C 242.997 130.395,234.848 129.202,231.827 123.230 C 228.852 117.350,231.073 112.012,238.621 106.904 C 257.758 93.954,283.592 106.285,285.415 129.239 C 285.838 134.562,284.319 142.222,282.200 145.457 C 281.387 146.697,281.446 147.497,282.373 147.791 C 284.263 148.391,293.200 158.622,293.200 160.186 C 293.200 160.432,294.654 163.801,295.233 164.895 C 295.435 165.277,295.600 165.957,295.600 166.407 C 295.600 167.192,295.795 167.220,300.456 167.112 L 305.313 167.000 306.815 164.528 C 308.881 161.128,313.561 156.800,315.172 156.800 C 315.691 156.800,315.736 154.160,315.243 152.560 C 315.047 151.922,314.673 150.320,314.413 149.000 C 313.935 146.574,313.362 144.230,312.800 142.400 C 312.631 141.850,312.261 140.590,311.977 139.600 C 311.693 138.610,311.312 137.629,311.130 137.420 C 310.949 137.211,310.800 136.714,310.800 136.315 C 310.800 135.916,310.634 135.277,310.431 134.895 C 310.228 134.513,309.472 132.670,308.751 130.800 C 305.901 123.413,297.010 107.336,294.814 105.600 C 294.675 105.490,294.123 104.770,293.586 104.000 C 287.192 94.818,269.620 78.737,261.604 74.731 C 261.052 74.455,260.138 73.919,259.573 73.539 C 253.500 69.461,237.883 63.052,228.600 60.829 C 227.500 60.565,225.970 60.188,225.200 59.991 C 224.430 59.794,223.170 59.536,222.400 59.418 C 221.630 59.300,219.830 59.009,218.400 58.771 C 211.184 57.571,195.157 56.943,189.800 57.651 M340.800 164.302 C 340.800 164.563,341.160 165.417,341.600 166.200 C 342.040 166.983,342.400 167.968,342.400 168.389 C 342.400 168.809,342.580 169.264,342.800 169.400 C 343.355 169.743,343.306 177.815,342.738 179.572 C 340.689 185.909,333.471 193.200,329.246 193.200 C 327.926 193.200,327.660 193.941,328.266 195.931 C 330.718 203.992,332.477 214.487,333.226 225.515 C 334.456 243.625,330.591 267.004,323.789 282.600 C 323.501 283.260,322.948 284.610,322.560 285.600 C 314.564 305.999,295.842 328.760,275.594 342.701 L 272.588 344.770 200.207 344.764 L 127.826 344.758 126.413 343.899 C 122.544 341.548,115.359 335.891,109.800 330.820 C 108.480 329.615,123.116 344.381,142.325 363.632 C 161.534 382.883,177.412 398.896,177.610 399.217 C 177.918 399.714,180.867 399.804,197.685 399.825 C 219.827 399.853,225.236 399.721,224.375 399.176 C 224.004 398.941,225.034 398.810,227.276 398.806 C 229.188 398.803,230.864 398.620,231.000 398.400 C 231.136 398.180,232.216 398.000,233.400 398.000 C 234.584 398.000,235.664 397.820,235.800 397.600 C 235.936 397.380,236.667 397.200,237.424 397.200 C 238.181 397.200,238.800 397.020,238.800 396.800 C 238.800 396.580,238.991 396.400,239.224 396.400 C 239.457 396.400,239.536 396.580,239.400 396.800 C 239.264 397.020,239.343 397.200,239.576 397.200 C 239.809 397.200,240.000 397.020,240.000 396.800 C 240.000 396.580,240.709 396.400,241.576 396.400 C 242.443 396.400,243.264 396.220,243.400 396.000 C 243.536 395.780,244.447 395.600,245.424 395.600 C 246.401 395.600,247.200 395.420,247.200 395.200 C 247.200 394.980,247.751 394.800,248.424 394.800 C 249.137 394.800,249.544 394.633,249.400 394.400 C 249.264 394.180,249.328 394.000,249.543 394.000 C 249.758 394.000,250.024 394.225,250.135 394.500 C 250.296 394.900,250.343 394.900,250.368 394.500 C 250.387 394.203,250.959 394.000,251.776 394.000 C 252.533 394.000,253.264 393.820,253.400 393.600 C 253.536 393.380,254.177 393.200,254.824 393.200 C 255.471 393.200,256.000 393.020,256.000 392.800 C 256.000 392.580,256.630 392.400,257.400 392.400 C 258.170 392.400,258.800 392.243,258.800 392.052 C 258.800 391.860,259.700 391.584,260.800 391.438 C 261.900 391.292,262.800 391.037,262.800 390.871 C 262.800 390.706,263.382 390.526,264.093 390.472 C 264.805 390.417,265.561 390.199,265.773 389.987 C 265.986 389.774,266.486 389.600,266.885 389.600 C 267.284 389.600,267.923 389.441,268.305 389.247 C 268.687 389.052,269.540 388.671,270.200 388.400 C 270.860 388.129,271.713 387.748,272.095 387.553 C 272.477 387.359,273.152 387.200,273.595 387.200 C 274.038 387.200,274.400 387.020,274.400 386.800 C 274.400 386.580,274.760 386.400,275.200 386.400 C 275.640 386.400,276.000 386.220,276.000 386.000 C 276.000 385.780,276.540 385.600,277.200 385.600 C 277.860 385.600,278.400 385.420,278.400 385.200 C 278.400 384.980,278.760 384.800,279.200 384.800 C 279.640 384.800,280.000 384.620,280.000 384.400 C 280.000 384.180,280.360 384.000,280.800 384.000 C 281.240 384.000,281.600 383.820,281.600 383.600 C 281.600 383.380,281.949 383.200,282.376 383.200 C 282.803 383.200,283.264 383.020,283.400 382.800 C 283.536 382.580,284.007 382.400,284.447 382.400 C 284.887 382.400,285.136 382.220,285.000 382.000 C 284.856 381.767,285.263 381.600,285.976 381.600 C 286.649 381.600,287.201 381.465,287.201 381.300 C 287.202 381.135,288.180 380.553,289.375 380.008 C 290.731 379.388,291.370 378.902,291.074 378.714 C 290.805 378.543,291.162 378.410,291.900 378.406 C 292.615 378.403,293.200 378.220,293.200 378.000 C 293.200 377.780,293.560 377.600,294.000 377.600 C 294.440 377.600,294.800 377.420,294.800 377.200 C 294.800 376.980,295.036 376.800,295.325 376.800 C 295.613 376.800,296.204 376.469,296.638 376.065 C 297.072 375.661,297.950 375.199,298.589 375.039 C 299.228 374.878,300.240 374.399,300.837 373.973 C 301.435 373.548,302.121 373.200,302.362 373.200 C 302.603 373.200,302.800 373.054,302.800 372.875 C 302.800 372.696,303.430 372.302,304.200 372.000 C 304.970 371.698,305.600 371.347,305.600 371.220 C 305.600 371.093,306.320 370.544,307.200 370.000 C 308.080 369.456,308.800 368.874,308.800 368.706 C 308.800 368.538,309.120 368.400,309.512 368.400 C 309.903 368.400,310.483 368.040,310.800 367.600 C 311.117 367.160,311.657 366.800,312.000 366.800 C 312.343 366.800,312.883 366.440,313.200 366.000 C 313.517 365.560,314.057 365.200,314.400 365.200 C 314.743 365.200,315.283 364.840,315.600 364.400 C 315.917 363.960,316.380 363.600,316.629 363.600 C 316.878 363.600,317.646 363.060,318.337 362.400 C 319.028 361.740,319.792 361.200,320.036 361.200 C 320.280 361.200,320.983 360.660,321.600 360.000 C 322.217 359.340,322.934 358.800,323.194 358.800 C 323.454 358.800,324.279 358.170,325.026 357.400 C 325.774 356.630,326.524 356.000,326.693 356.000 C 326.863 356.000,328.019 355.055,329.262 353.900 C 331.985 351.372,333.139 350.400,333.419 350.400 C 333.534 350.400,335.427 348.555,337.627 346.300 C 339.826 344.045,341.809 342.020,342.032 341.800 C 342.255 341.580,344.409 339.458,346.819 337.084 C 349.229 334.710,351.200 332.624,351.200 332.448 C 351.200 332.271,352.009 331.270,352.999 330.223 C 353.988 329.176,354.680 328.129,354.537 327.898 C 354.389 327.658,354.467 327.594,354.718 327.749 C 354.961 327.900,355.366 327.638,355.617 327.168 C 355.869 326.698,356.688 325.718,357.437 324.990 C 358.187 324.262,358.800 323.454,358.800 323.194 C 358.800 322.934,359.340 322.217,360.000 321.600 C 360.660 320.983,361.200 320.231,361.200 319.928 C 361.200 319.625,361.560 319.117,362.000 318.800 C 362.440 318.483,362.800 317.993,362.800 317.712 C 362.800 317.430,362.980 317.200,363.200 317.200 C 363.420 317.200,363.600 316.970,363.600 316.688 C 363.600 316.407,363.960 315.917,364.400 315.600 C 364.840 315.283,365.200 314.743,365.200 314.400 C 365.200 314.057,365.560 313.517,366.000 313.200 C 366.440 312.883,366.800 312.343,366.800 312.000 C 366.800 311.657,367.160 311.117,367.600 310.800 C 368.040 310.483,368.400 309.918,368.400 309.545 C 368.400 309.172,368.547 308.807,368.728 308.733 C 369.193 308.544,372.400 303.731,372.400 303.222 C 372.400 302.990,372.580 302.800,372.800 302.800 C 373.020 302.800,373.200 302.522,373.200 302.183 C 373.200 301.844,373.551 301.190,373.980 300.729 C 374.409 300.269,374.880 299.346,375.026 298.679 C 375.173 298.013,375.632 297.103,376.046 296.658 C 376.461 296.213,376.800 295.613,376.800 295.325 C 376.800 295.036,376.980 294.800,377.200 294.800 C 377.420 294.800,377.600 294.440,377.600 294.000 C 377.600 293.560,377.780 293.200,378.000 293.200 C 378.220 293.200,378.400 292.840,378.400 292.400 C 378.400 291.960,378.546 291.600,378.725 291.600 C 379.132 291.600,380.247 288.790,380.067 288.220 C 379.993 287.989,380.066 287.932,380.227 288.094 C 380.594 288.460,381.600 286.582,381.600 285.531 C 381.600 285.103,381.780 284.864,382.000 285.000 C 382.220 285.136,382.400 284.887,382.400 284.447 C 382.400 284.007,382.580 283.536,382.800 283.400 C 383.020 283.264,383.200 282.818,383.200 282.410 C 383.200 282.001,383.378 281.607,383.597 281.533 C 383.815 281.460,384.033 280.918,384.081 280.329 C 384.130 279.740,384.312 279.345,384.485 279.452 C 384.658 279.560,384.800 279.367,384.800 279.024 C 384.800 278.681,384.980 278.400,385.200 278.400 C 385.420 278.400,385.600 277.860,385.600 277.200 C 385.600 276.540,385.780 276.000,386.000 276.000 C 386.220 276.000,386.400 275.640,386.400 275.200 C 386.400 274.760,386.580 274.400,386.800 274.400 C 387.020 274.400,387.200 274.038,387.200 273.595 C 387.200 273.152,387.359 272.477,387.553 272.095 C 387.748 271.713,388.129 270.860,388.400 270.200 C 388.671 269.540,389.052 268.687,389.247 268.305 C 389.441 267.923,389.600 267.259,389.600 266.829 C 389.600 266.399,389.780 265.936,390.000 265.800 C 390.220 265.664,390.400 265.149,390.400 264.656 C 390.400 264.163,390.563 263.589,390.762 263.380 C 390.962 263.171,391.242 262.100,391.385 261.000 C 391.528 259.900,391.815 258.940,392.023 258.867 C 392.230 258.793,392.400 258.118,392.400 257.367 C 392.400 256.615,392.580 256.000,392.800 256.000 C 393.020 256.000,393.200 255.809,393.200 255.576 C 393.200 255.343,393.020 255.264,392.800 255.400 C 392.580 255.536,392.400 255.457,392.400 255.224 C 392.400 254.991,392.580 254.800,392.800 254.800 C 393.020 254.800,393.200 254.530,393.200 254.200 C 393.200 253.870,393.380 253.600,393.600 253.600 C 393.820 253.600,394.000 252.891,394.000 252.024 C 394.000 251.157,394.180 250.336,394.400 250.200 C 394.620 250.064,394.800 248.963,394.800 247.753 C 394.800 246.388,394.952 245.647,395.200 245.800 C 395.426 245.940,395.600 245.612,395.600 245.047 C 395.600 244.497,395.780 243.936,396.000 243.800 C 396.220 243.664,396.400 242.753,396.400 241.776 C 396.400 240.799,396.563 240.000,396.763 240.000 C 396.963 240.000,397.228 239.055,397.354 237.900 C 397.977 232.154,398.100 231.372,398.437 231.020 C 398.637 230.811,398.800 229.225,398.800 227.496 C 398.800 225.767,398.953 224.447,399.140 224.563 C 399.326 224.678,399.495 224.198,399.515 223.495 C 399.535 222.792,399.359 222.098,399.123 221.953 C 398.888 221.807,385.669 208.670,369.747 192.759 C 353.826 176.847,340.800 164.042,340.800 164.302 M68.310 193.709 C 69.899 195.310,71.216 196.975,71.236 197.409 C 71.255 197.844,71.523 197.300,71.830 196.200 C 72.491 193.831,72.342 193.204,71.113 193.187 C 70.611 193.181,69.124 192.640,67.810 191.987 L 65.420 190.800 68.310 193.709 M66.893 226.000 C 66.893 226.770,66.975 227.085,67.076 226.700 C 67.176 226.315,67.176 225.685,67.076 225.300 C 66.975 224.915,66.893 225.230,66.893 226.000 M66.893 239.600 C 66.893 240.370,66.975 240.685,67.076 240.300 C 67.176 239.915,67.176 239.285,67.076 238.900 C 66.975 238.515,66.893 238.830,66.893 239.600 " stroke="none" fill="#fbcb04" fill-rule="evenodd"></path><path id="path4" d="M179.003 0.275 C 177.025 0.362,175.234 0.606,175.023 0.817 C 174.812 1.028,173.517 1.200,172.144 1.200 C 170.771 1.200,169.536 1.380,169.400 1.600 C 169.264 1.820,168.184 2.000,167.000 2.000 C 165.816 2.000,164.736 2.180,164.600 2.400 C 164.464 2.620,163.564 2.800,162.600 2.800 C 161.636 2.800,160.736 2.980,160.600 3.200 C 160.464 3.420,159.553 3.600,158.576 3.600 C 157.599 3.600,156.800 3.780,156.800 4.000 C 156.800 4.220,156.001 4.400,155.024 4.400 C 154.047 4.400,153.136 4.580,153.000 4.800 C 152.864 5.020,152.234 5.200,151.600 5.200 C 150.966 5.200,150.336 5.380,150.200 5.600 C 150.064 5.820,149.344 6.000,148.600 6.000 C 147.856 6.000,147.136 6.180,147.000 6.400 C 146.864 6.620,146.223 6.800,145.576 6.800 C 144.929 6.800,144.400 6.980,144.400 7.200 C 144.400 7.420,143.890 7.600,143.267 7.600 C 142.643 7.600,142.001 7.732,141.840 7.894 C 141.678 8.055,140.613 8.399,139.473 8.657 C 135.873 9.473,134.531 9.876,133.185 10.547 C 132.466 10.906,131.669 11.200,131.414 11.200 C 131.159 11.200,130.205 11.560,129.294 12.000 C 128.384 12.440,127.448 12.800,127.214 12.800 C 126.980 12.800,126.432 12.980,125.995 13.200 C 125.558 13.420,124.842 13.780,124.405 14.000 C 123.968 14.220,123.338 14.400,123.005 14.400 C 122.672 14.400,122.400 14.580,122.400 14.800 C 122.400 15.020,122.045 15.200,121.612 15.200 C 121.179 15.200,120.183 15.560,119.400 16.000 C 118.617 16.440,117.711 16.800,117.388 16.800 C 117.065 16.800,116.800 16.980,116.800 17.200 C 116.800 17.420,116.562 17.600,116.270 17.600 C 115.979 17.600,113.594 18.703,110.970 20.050 C 108.347 21.398,105.796 22.703,105.303 22.950 C 104.810 23.198,104.405 23.535,104.403 23.700 C 104.401 23.865,104.040 24.000,103.600 24.000 C 103.160 24.000,102.800 24.180,102.800 24.400 C 102.800 24.620,102.476 24.800,102.080 24.800 C 101.684 24.800,101.189 24.958,100.980 25.151 C 100.771 25.343,99.776 25.953,98.768 26.504 C 95.840 28.109,95.013 28.587,94.800 28.800 C 94.197 29.403,91.973 30.800,91.616 30.800 C 91.387 30.800,91.200 30.958,91.200 31.151 C 91.200 31.345,90.660 31.727,90.000 32.000 C 89.340 32.273,88.800 32.655,88.800 32.849 C 88.800 33.042,88.575 33.200,88.300 33.201 C 88.025 33.201,87.170 33.741,86.400 34.400 C 85.630 35.059,84.815 35.599,84.588 35.599 C 84.362 35.600,83.917 35.960,83.600 36.400 C 83.283 36.840,82.838 37.200,82.612 37.200 C 82.385 37.201,81.729 37.606,81.153 38.100 C 80.578 38.595,79.514 39.450,78.790 40.000 C 78.066 40.550,77.245 41.225,76.965 41.500 C 76.686 41.775,76.309 42.000,76.128 42.000 C 75.948 42.000,75.046 42.675,74.126 43.500 C 73.205 44.325,71.868 45.450,71.155 46.000 C 70.443 46.550,69.165 47.630,68.316 48.400 C 61.379 54.691,59.651 56.332,59.010 57.238 C 58.607 57.809,57.809 58.604,57.238 59.004 C 56.667 59.404,54.580 61.512,52.600 63.689 C 50.620 65.866,48.251 68.446,47.336 69.423 C 46.420 70.400,45.744 71.200,45.833 71.200 C 45.989 71.200,45.469 71.837,43.106 74.546 C 42.505 75.236,42.010 75.948,42.006 76.129 C 42.003 76.309,41.775 76.686,41.500 76.965 C 41.225 77.245,40.550 78.066,40.000 78.790 C 39.450 79.514,38.685 80.470,38.300 80.915 C 37.915 81.359,37.600 81.867,37.600 82.043 C 37.600 82.219,37.150 82.814,36.600 83.364 C 36.050 83.914,35.600 84.507,35.599 84.682 C 35.599 84.857,35.059 85.630,34.400 86.400 C 33.741 87.170,33.201 87.943,33.201 88.117 C 33.200 88.291,32.840 88.820,32.400 89.292 C 31.960 89.764,31.600 90.387,31.600 90.675 C 31.600 90.964,31.420 91.200,31.200 91.200 C 30.980 91.200,30.800 91.387,30.800 91.616 C 30.800 92.090,29.155 94.531,28.700 94.733 C 28.535 94.807,28.400 95.049,28.400 95.272 C 28.400 95.494,28.060 96.154,27.644 96.738 C 27.228 97.322,26.899 97.890,26.912 98.000 C 26.925 98.110,26.456 98.961,25.868 99.892 C 25.281 100.823,24.800 101.858,24.800 102.192 C 24.800 102.526,24.620 102.800,24.400 102.800 C 24.180 102.800,24.000 103.145,24.000 103.567 C 24.000 103.988,23.837 104.393,23.638 104.467 C 23.174 104.638,18.400 113.918,18.400 114.650 C 18.400 114.952,18.220 115.200,18.000 115.200 C 17.780 115.200,17.600 115.560,17.600 116.000 C 17.600 116.440,17.420 116.800,17.200 116.800 C 16.980 116.800,16.800 117.065,16.800 117.388 C 16.800 117.711,16.440 118.617,16.000 119.400 C 15.560 120.183,15.200 121.179,15.200 121.612 C 15.200 122.045,15.020 122.400,14.800 122.400 C 14.580 122.400,14.400 122.672,14.400 123.005 C 14.400 123.338,14.220 123.968,14.000 124.405 C 13.780 124.842,13.420 125.558,13.200 125.995 C 12.980 126.432,12.800 126.974,12.800 127.199 C 12.800 127.424,12.461 128.372,12.047 129.304 C 11.633 130.237,11.075 131.630,10.807 132.400 C 10.539 133.170,10.166 134.160,9.978 134.600 C 9.302 136.183,8.400 139.768,8.400 140.873 C 8.400 141.493,8.220 142.000,8.000 142.000 C 7.780 142.000,7.600 142.540,7.600 143.200 C 7.600 143.860,7.420 144.400,7.200 144.400 C 6.980 144.400,6.800 144.929,6.800 145.576 C 6.800 146.223,6.620 146.864,6.400 147.000 C 6.180 147.136,6.000 147.867,6.000 148.624 C 6.000 149.381,5.820 150.000,5.600 150.000 C 5.380 150.000,5.200 150.619,5.200 151.376 C 5.200 152.133,5.020 152.864,4.800 153.000 C 4.580 153.136,4.400 154.047,4.400 155.024 C 4.400 156.001,4.220 156.800,4.000 156.800 C 3.780 156.800,3.600 157.599,3.600 158.576 C 3.600 159.553,3.420 160.464,3.200 160.600 C 2.980 160.736,2.800 161.647,2.800 162.624 C 2.800 163.601,2.620 164.400,2.400 164.400 C 2.178 164.400,2.000 165.467,2.000 166.800 C 2.000 168.133,1.822 169.200,1.600 169.200 C 1.373 169.200,1.200 170.373,1.200 171.920 C 1.200 173.563,1.002 174.838,0.700 175.140 C -0.029 175.869,-0.029 224.131,0.700 224.860 C 0.993 225.153,1.200 226.393,1.200 227.856 C 1.200 229.229,1.380 230.464,1.600 230.600 C 1.820 230.736,2.000 231.917,2.000 233.224 C 2.000 234.541,2.178 235.600,2.400 235.600 C 2.620 235.600,2.800 236.500,2.800 237.600 C 2.800 238.700,2.980 239.600,3.200 239.600 C 3.420 239.600,3.600 240.410,3.600 241.400 C 3.600 242.390,3.780 243.200,4.000 243.200 C 4.220 243.200,4.400 243.909,4.400 244.776 C 4.400 245.643,4.580 246.464,4.800 246.600 C 5.020 246.736,5.200 247.546,5.200 248.400 C 5.200 249.254,5.380 250.064,5.600 250.200 C 5.820 250.336,6.000 250.966,6.000 251.600 C 6.000 252.234,6.180 252.864,6.400 253.000 C 6.620 253.136,6.800 253.777,6.800 254.424 C 6.800 255.071,6.980 255.600,7.200 255.600 C 7.420 255.600,7.600 256.129,7.600 256.776 C 7.600 257.423,7.780 258.064,8.000 258.200 C 8.220 258.336,8.399 258.932,8.398 259.524 C 8.397 260.116,8.692 261.500,9.054 262.600 C 10.190 266.056,11.250 268.974,11.632 269.695 C 11.834 270.077,12.000 270.574,12.000 270.799 C 12.000 271.193,13.271 274.255,14.033 275.695 C 14.235 276.077,14.400 276.662,14.400 276.995 C 14.400 277.328,14.580 277.600,14.800 277.600 C 15.020 277.600,15.200 277.879,15.200 278.219 C 15.200 278.560,15.560 279.584,16.000 280.494 C 16.440 281.405,16.800 282.386,16.800 282.675 C 16.800 282.964,16.980 283.200,17.200 283.200 C 17.420 283.200,17.600 283.438,17.600 283.730 C 17.600 284.021,18.703 286.406,20.050 289.030 C 21.398 291.653,22.703 294.204,22.950 294.697 C 23.198 295.190,23.535 295.595,23.700 295.597 C 23.865 295.599,24.000 295.960,24.000 296.400 C 24.000 296.840,24.180 297.200,24.400 297.200 C 24.620 297.200,24.800 297.545,24.800 297.967 C 24.800 298.388,24.935 298.793,25.100 298.867 C 25.265 298.940,25.758 299.720,26.196 300.600 C 27.000 302.216,30.448 307.789,31.198 308.685 C 31.421 308.952,31.812 309.627,32.066 310.185 C 32.320 310.743,32.680 311.200,32.864 311.200 C 33.049 311.200,33.200 311.443,33.200 311.741 C 33.200 312.038,33.740 312.846,34.400 313.537 C 35.060 314.228,35.600 314.998,35.600 315.249 C 35.600 315.501,35.916 315.997,36.303 316.353 C 36.689 316.709,37.260 317.495,37.570 318.100 C 37.881 318.705,38.285 319.200,38.468 319.200 C 38.650 319.200,38.800 319.388,38.800 319.618 C 38.800 319.848,39.205 320.456,39.700 320.968 C 40.939 322.250,42.000 323.567,42.000 323.821 C 42.000 324.051,42.215 324.328,43.899 326.271 C 44.504 326.969,45.450 328.129,46.000 328.847 C 46.550 329.565,47.360 330.524,47.800 330.978 C 48.240 331.431,49.410 332.786,50.400 333.987 C 51.390 335.189,53.434 337.348,54.941 338.786 C 56.449 340.224,58.069 341.823,58.541 342.341 C 60.038 343.981,65.509 349.267,66.624 350.151 C 67.213 350.618,68.612 351.855,69.732 352.900 C 70.853 353.945,71.884 354.800,72.024 354.800 C 72.163 354.800,72.710 355.171,73.239 355.624 C 73.767 356.078,74.560 356.755,75.000 357.130 C 75.440 357.505,76.430 358.250,77.200 358.787 C 77.970 359.323,78.891 360.086,79.247 360.481 C 79.603 360.876,80.098 361.200,80.347 361.200 C 80.596 361.200,80.800 361.380,80.800 361.600 C 80.800 361.820,81.070 362.000,81.400 362.000 C 81.730 362.000,82.000 362.180,82.000 362.400 C 82.000 362.620,82.270 362.800,82.600 362.800 C 82.930 362.800,83.200 362.941,83.200 363.114 C 83.200 363.286,83.695 363.721,84.300 364.079 C 84.905 364.437,85.940 365.196,86.600 365.765 C 87.260 366.334,88.025 366.799,88.300 366.800 C 88.575 366.800,88.800 366.968,88.800 367.173 C 88.800 367.378,89.159 367.660,89.598 367.799 C 90.036 367.938,90.621 368.277,90.898 368.551 C 91.174 368.825,93.200 370.110,95.400 371.407 C 97.600 372.703,99.829 374.087,100.354 374.482 C 100.879 374.877,101.644 375.200,102.054 375.200 C 102.464 375.200,102.800 375.380,102.800 375.600 C 102.800 375.820,103.160 376.000,103.600 376.000 C 104.040 376.000,104.401 376.135,104.403 376.300 C 104.405 376.465,104.810 376.801,105.303 377.046 C 108.650 378.709,111.420 380.245,111.533 380.500 C 111.607 380.665,112.001 380.800,112.410 380.800 C 112.818 380.800,113.264 380.980,113.400 381.200 C 113.536 381.420,113.997 381.600,114.424 381.600 C 114.851 381.600,115.200 381.780,115.200 382.000 C 115.200 382.220,115.560 382.400,116.000 382.400 C 116.440 382.400,116.800 382.580,116.800 382.800 C 116.800 383.020,117.036 383.200,117.325 383.200 C 117.614 383.200,118.595 383.560,119.506 384.000 C 120.416 384.440,121.440 384.800,121.781 384.800 C 122.121 384.800,122.400 384.980,122.400 385.200 C 122.400 385.420,122.760 385.600,123.200 385.600 C 123.640 385.600,124.000 385.780,124.000 386.000 C 124.000 386.220,124.362 386.400,124.805 386.400 C 125.248 386.400,125.923 386.559,126.305 386.753 C 126.687 386.948,127.495 387.308,128.100 387.553 C 128.705 387.799,129.605 388.169,130.100 388.376 C 132.606 389.424,139.651 391.600,140.539 391.600 C 141.096 391.600,141.664 391.780,141.800 392.000 C 141.936 392.220,142.577 392.400,143.224 392.400 C 143.871 392.400,144.400 392.580,144.400 392.800 C 144.400 393.020,145.030 393.200,145.800 393.200 C 146.570 393.200,147.200 393.380,147.200 393.600 C 147.200 393.820,147.819 394.000,148.576 394.000 C 149.333 394.000,150.064 394.180,150.200 394.400 C 150.336 394.620,151.056 394.800,151.800 394.800 C 152.544 394.800,153.264 394.980,153.400 395.200 C 153.536 395.420,154.357 395.600,155.224 395.600 C 156.091 395.600,156.800 395.780,156.800 396.000 C 156.800 396.220,157.610 396.400,158.600 396.400 C 159.590 396.400,160.400 396.580,160.400 396.800 C 160.400 397.020,161.390 397.200,162.600 397.200 C 163.810 397.200,164.800 397.380,164.800 397.600 C 164.800 397.820,165.779 398.000,166.976 398.000 C 168.173 398.000,169.264 398.180,169.400 398.400 C 169.536 398.620,170.796 398.800,172.200 398.800 C 173.604 398.800,174.864 398.980,175.000 399.200 C 175.327 399.729,177.706 399.719,177.530 399.189 C 177.454 398.963,160.547 381.908,139.958 361.289 C 107.745 329.029,99.295 320.356,95.995 316.168 C 89.822 308.333,84.945 300.736,80.992 292.800 C 74.673 280.112,70.383 266.862,68.429 254.000 C 68.212 252.570,67.837 250.156,67.595 248.636 C 65.991 238.533,66.983 216.665,69.556 205.400 C 70.662 200.559,70.847 199.663,71.045 198.200 L 71.261 196.600 66.214 191.600 C 58.812 184.266,57.076 180.952,57.122 174.241 C 57.172 166.881,61.379 159.974,67.467 157.256 C 71.754 155.343,71.389 155.867,72.382 150.200 C 74.565 137.739,80.924 120.455,87.098 110.200 C 87.495 109.540,88.348 108.100,88.992 107.000 C 95.568 95.783,107.488 82.193,118.400 73.471 C 120.270 71.976,122.105 70.504,122.479 70.199 C 145.854 51.097,185.664 40.994,218.600 45.806 C 222.302 46.347,222.531 46.388,226.600 47.222 C 262.506 54.585,294.217 77.623,312.847 109.881 C 314.555 112.839,318.838 121.420,319.994 124.200 C 323.265 132.070,326.031 141.235,327.598 149.400 C 328.062 151.820,328.517 154.160,328.608 154.600 C 328.721 155.147,329.819 155.889,332.087 156.949 L 335.400 158.499 367.114 190.149 C 384.556 207.557,398.983 221.854,399.173 221.920 C 400.199 222.275,400.297 176.137,399.273 175.113 C 399.010 174.850,398.800 173.530,398.800 172.144 C 398.800 170.771,398.620 169.536,398.400 169.400 C 398.180 169.264,398.000 168.083,398.000 166.776 C 398.000 165.459,397.822 164.400,397.600 164.400 C 397.380 164.400,397.200 163.601,397.200 162.624 C 397.200 161.647,397.020 160.736,396.800 160.600 C 396.580 160.464,396.400 159.553,396.400 158.576 C 396.400 157.599,396.220 156.800,396.000 156.800 C 395.780 156.800,395.600 156.091,395.600 155.224 C 395.600 154.357,395.420 153.536,395.200 153.400 C 394.980 153.264,394.800 152.443,394.800 151.576 C 394.800 150.709,394.620 150.000,394.400 150.000 C 394.180 150.000,394.000 149.471,394.000 148.824 C 394.000 148.177,393.820 147.536,393.600 147.400 C 393.380 147.264,393.200 146.533,393.200 145.776 C 393.200 145.019,393.020 144.400,392.800 144.400 C 392.580 144.400,392.400 143.871,392.400 143.224 C 392.400 142.577,392.220 141.936,392.000 141.800 C 391.780 141.664,391.601 141.158,391.602 140.676 C 391.603 139.880,390.007 134.295,389.151 132.100 C 387.969 129.070,387.138 127.062,386.753 126.305 C 386.559 125.923,386.400 125.248,386.400 124.805 C 386.400 124.362,386.220 124.000,386.000 124.000 C 385.780 124.000,385.600 123.640,385.600 123.200 C 385.600 122.760,385.420 122.400,385.200 122.400 C 384.980 122.400,384.800 122.045,384.800 121.612 C 384.800 121.179,384.440 120.183,384.000 119.400 C 383.560 118.617,383.200 117.711,383.200 117.388 C 383.200 117.065,383.020 116.800,382.800 116.800 C 382.580 116.800,382.400 116.440,382.400 116.000 C 382.400 115.560,382.220 115.200,382.000 115.200 C 381.780 115.200,381.600 114.851,381.600 114.424 C 381.600 113.997,381.420 113.536,381.200 113.400 C 380.980 113.264,380.800 112.803,380.800 112.376 C 380.800 111.949,380.620 111.600,380.400 111.600 C 380.180 111.600,380.000 111.240,380.000 110.800 C 380.000 110.360,379.820 110.000,379.600 110.000 C 379.380 110.000,379.200 109.655,379.200 109.233 C 379.200 108.812,379.065 108.407,378.900 108.333 C 378.524 108.166,377.225 106.036,376.929 105.100 C 376.807 104.715,376.548 104.400,376.353 104.400 C 376.159 104.400,376.000 104.040,376.000 103.600 C 376.000 103.160,375.820 102.800,375.600 102.800 C 375.380 102.800,375.200 102.512,375.200 102.161 C 375.200 101.809,374.251 99.964,373.091 98.061 C 371.931 96.157,370.733 94.108,370.427 93.507 C 370.122 92.905,369.586 92.095,369.236 91.707 C 368.886 91.318,368.345 90.505,368.032 89.900 C 367.720 89.295,367.315 88.800,367.132 88.800 C 366.950 88.800,366.800 88.575,366.799 88.300 C 366.799 88.025,366.259 87.170,365.600 86.400 C 364.941 85.630,364.401 84.841,364.401 84.647 C 364.400 84.453,364.084 84.003,363.697 83.647 C 363.311 83.291,362.740 82.505,362.430 81.900 C 362.119 81.295,361.715 80.800,361.532 80.800 C 361.350 80.800,361.200 80.596,361.200 80.347 C 361.200 80.098,360.876 79.603,360.481 79.247 C 360.086 78.891,359.323 77.970,358.787 77.200 C 358.250 76.430,357.505 75.440,357.130 75.000 C 356.755 74.560,356.078 73.767,355.624 73.239 C 355.171 72.710,354.800 72.169,354.800 72.037 C 354.800 71.905,353.810 70.758,352.600 69.489 C 351.390 68.220,350.400 67.083,350.400 66.962 C 350.400 66.841,350.175 66.503,349.900 66.210 C 348.245 64.447,343.138 59.264,342.344 58.541 C 341.825 58.069,340.201 56.434,338.736 54.908 C 337.271 53.383,335.111 51.339,333.937 50.367 C 332.763 49.395,331.419 48.225,330.949 47.766 C 330.479 47.307,329.219 46.227,328.148 45.366 C 326.086 43.708,325.588 43.302,324.631 42.500 C 324.302 42.225,323.938 42.000,323.821 42.000 C 323.567 42.000,322.250 40.939,320.968 39.700 C 320.456 39.205,319.848 38.800,319.618 38.800 C 319.388 38.800,319.200 38.650,319.200 38.468 C 319.200 38.285,318.705 37.881,318.100 37.570 C 317.495 37.260,316.709 36.689,316.353 36.303 C 315.997 35.916,315.547 35.600,315.353 35.599 C 315.159 35.599,314.370 35.059,313.600 34.400 C 312.830 33.741,311.975 33.201,311.700 33.201 C 311.425 33.200,311.200 33.042,311.200 32.849 C 311.200 32.655,310.660 32.273,310.000 32.000 C 309.340 31.727,308.800 31.345,308.800 31.151 C 308.800 30.958,308.612 30.800,308.382 30.800 C 308.152 30.800,306.667 29.940,305.082 28.888 C 303.497 27.836,301.480 26.621,300.600 26.188 C 299.720 25.755,298.940 25.265,298.867 25.100 C 298.793 24.935,298.388 24.800,297.967 24.800 C 297.545 24.800,297.200 24.620,297.200 24.400 C 297.200 24.180,296.840 24.000,296.400 24.000 C 295.960 24.000,295.600 23.848,295.600 23.663 C 295.600 23.477,294.745 22.892,293.700 22.363 C 292.655 21.833,291.740 21.265,291.667 21.100 C 291.593 20.935,291.314 20.800,291.046 20.800 C 290.337 20.800,288.407 19.851,288.403 19.500 C 288.401 19.335,288.135 19.200,287.812 19.200 C 287.489 19.200,286.583 18.840,285.800 18.400 C 285.017 17.960,284.111 17.600,283.788 17.600 C 283.465 17.600,283.200 17.420,283.200 17.200 C 283.200 16.980,282.964 16.800,282.675 16.800 C 282.184 16.800,279.471 15.654,277.905 14.785 C 277.523 14.573,276.938 14.400,276.605 14.400 C 276.272 14.400,276.000 14.220,276.000 14.000 C 276.000 13.780,275.674 13.600,275.275 13.600 C 274.876 13.600,273.805 13.240,272.894 12.800 C 271.984 12.360,271.048 12.000,270.814 12.000 C 270.580 12.000,270.077 11.834,269.695 11.632 C 267.745 10.599,260.725 8.400,259.378 8.400 C 258.866 8.400,258.336 8.220,258.200 8.000 C 258.064 7.780,257.423 7.600,256.776 7.600 C 256.129 7.600,255.600 7.420,255.600 7.200 C 255.600 6.980,255.071 6.800,254.424 6.800 C 253.777 6.800,253.136 6.620,253.000 6.400 C 252.864 6.180,252.234 6.000,251.600 6.000 C 250.966 6.000,250.336 5.820,250.200 5.600 C 250.064 5.380,249.254 5.200,248.400 5.200 C 247.546 5.200,246.736 5.020,246.600 4.800 C 246.464 4.580,245.643 4.400,244.776 4.400 C 243.909 4.400,243.200 4.220,243.200 4.000 C 243.200 3.780,242.401 3.600,241.424 3.600 C 240.447 3.600,239.536 3.420,239.400 3.200 C 239.264 2.980,238.364 2.800,237.400 2.800 C 236.436 2.800,235.536 2.620,235.400 2.400 C 235.264 2.180,234.184 2.000,233.000 2.000 C 231.816 2.000,230.736 1.820,230.600 1.600 C 230.464 1.380,229.229 1.200,227.856 1.200 C 226.434 1.200,225.151 0.991,224.875 0.715 C 224.394 0.234,187.860 -0.116,179.003 0.275 M195.891 123.489 C 196.601 123.577,197.861 123.579,198.691 123.492 C 199.521 123.405,198.940 123.333,197.400 123.331 C 195.860 123.329,195.181 123.400,195.891 123.489 M175.185 131.629 L 173.800 132.858 175.300 131.781 C 176.626 130.830,177.057 130.400,176.685 130.400 C 176.622 130.400,175.947 130.953,175.185 131.629 M171.478 134.613 C 170.860 135.156,170.514 135.600,170.708 135.600 C 170.902 135.600,171.483 135.150,172.000 134.600 C 173.195 133.328,172.931 133.334,171.478 134.613 M195.511 167.493 C 196.451 167.578,197.891 167.577,198.711 167.491 C 199.530 167.405,198.760 167.336,197.000 167.337 C 195.240 167.339,194.570 167.409,195.511 167.493 " stroke="none" fill="#fbdb53" fill-rule="evenodd"></path></g></svg>