<svg id="svg" version="1.1" xmlns="http://www.w3.org/2000/svg" xmlns:xlink="http://www.w3.org/1999/xlink" width="400" height="400" viewBox="0, 0, 400,400"><g id="svgg"><path id="path0" d="M347.200 85.000 C 347.200 87.000,347.365 88.400,347.600 88.400 C 347.826 88.400,348.000 89.533,348.000 91.000 C 348.000 92.467,347.826 93.600,347.600 93.600 C 347.380 93.600,347.200 94.579,347.200 95.776 C 347.200 96.973,347.020 98.064,346.800 98.200 C 346.580 98.336,346.400 99.067,346.400 99.824 C 346.400 100.581,346.259 101.200,346.087 101.200 C 345.915 101.200,345.523 102.052,345.215 103.094 C 344.908 104.135,344.335 105.333,343.942 105.754 C 343.549 106.176,343.315 106.663,343.422 106.836 C 343.529 107.009,343.298 107.336,342.908 107.563 C 342.519 107.790,342.341 107.981,342.514 107.988 C 342.687 107.995,342.155 108.585,341.333 109.300 C 340.511 110.015,339.380 111.053,338.819 111.608 C 338.259 112.162,337.305 112.867,336.700 113.175 C 336.095 113.483,335.600 113.885,335.600 114.068 C 335.600 114.250,335.060 114.400,334.400 114.400 C 333.467 114.400,333.200 114.222,333.200 113.600 C 333.200 113.160,333.020 112.800,332.800 112.800 C 332.580 112.800,332.400 112.350,332.400 111.800 C 332.400 111.250,332.220 110.800,332.000 110.800 C 331.780 110.800,331.600 110.440,331.600 110.000 C 331.600 109.560,331.420 109.200,331.200 109.200 C 330.980 109.200,330.800 108.851,330.800 108.424 C 330.800 107.997,330.620 107.536,330.400 107.400 C 330.180 107.264,330.000 106.713,330.000 106.176 C 330.000 105.639,329.820 105.200,329.600 105.200 C 329.380 105.200,329.200 104.840,329.200 104.400 C 329.200 103.960,329.020 103.600,328.800 103.600 C 328.580 103.600,328.400 103.060,328.400 102.400 C 328.400 101.740,328.220 101.200,328.000 101.200 C 327.780 101.200,327.600 100.917,327.600 100.571 C 327.600 99.853,326.666 98.800,326.029 98.800 C 325.636 98.800,325.434 99.351,325.553 100.100 C 325.579 100.265,325.420 100.400,325.200 100.400 C 324.980 100.400,324.800 100.940,324.800 101.600 C 324.800 102.260,324.620 102.800,324.400 102.800 C 324.180 102.800,324.000 103.120,324.000 103.512 C 324.000 103.903,323.673 104.459,323.274 104.746 C 322.774 105.107,322.601 105.627,322.718 106.420 C 322.813 107.069,322.650 107.807,322.343 108.113 C 321.107 109.346,317.869 111.621,316.484 112.230 C 315.668 112.588,314.568 113.088,314.039 113.341 C 312.261 114.191,304.493 113.875,302.243 112.861 C 301.167 112.377,300.236 112.030,300.175 112.092 C 300.082 112.185,303.042 119.611,304.403 122.700 C 304.621 123.195,305.001 124.095,305.247 124.700 C 305.492 125.305,305.852 126.113,306.047 126.495 C 306.629 127.639,306.476 127.865,304.700 128.486 C 300.269 130.038,295.588 130.444,292.246 129.568 C 288.216 128.512,287.336 128.207,286.338 127.525 C 285.754 127.126,285.079 126.800,284.838 126.800 C 284.597 126.800,284.400 126.620,284.400 126.400 C 284.400 126.180,284.192 126.000,283.937 126.000 C 282.644 126.000,276.007 120.020,273.648 116.730 C 272.473 115.091,271.200 114.500,271.200 115.594 C 271.200 116.113,267.136 122.847,262.700 129.680 C 261.435 131.628,260.400 133.302,260.400 133.400 C 260.400 133.553,256.159 140.223,255.301 141.420 C 255.136 141.652,254.799 142.192,254.553 142.620 C 254.308 143.049,252.115 146.550,249.682 150.400 C 245.108 157.636,244.922 158.253,247.735 156.872 C 255.322 153.146,263.878 152.844,271.096 156.047 C 272.028 156.461,272.973 156.800,273.196 156.800 C 273.418 156.800,273.600 156.980,273.600 157.200 C 273.600 157.420,273.836 157.600,274.125 157.600 C 274.413 157.600,275.036 157.960,275.508 158.400 C 275.980 158.840,276.484 159.200,276.628 159.200 C 276.772 159.200,278.140 160.415,279.669 161.900 C 283.120 165.252,282.745 165.181,284.538 162.830 C 285.368 161.742,286.687 160.344,287.469 159.725 C 288.251 159.106,289.275 158.268,289.745 157.863 C 297.943 150.796,312.727 149.200,324.000 154.163 C 328.115 155.975,333.804 160.579,336.600 164.359 C 338.224 166.554,338.301 166.467,337.896 162.900 C 337.478 159.214,337.819 153.882,338.668 150.812 C 339.004 149.595,339.373 148.192,339.488 147.694 C 339.602 147.196,339.854 146.690,340.048 146.570 C 340.241 146.451,340.400 146.096,340.400 145.782 C 340.400 145.060,343.650 139.600,344.080 139.600 C 344.256 139.600,344.400 139.422,344.400 139.205 C 344.400 138.440,345.787 137.200,346.642 137.200 C 347.152 137.200,348.473 136.260,349.872 134.900 C 352.213 132.625,353.942 131.359,355.300 130.929 C 355.685 130.807,356.000 130.548,356.000 130.353 C 356.000 130.159,356.360 130.000,356.800 130.000 C 357.240 130.000,357.600 129.820,357.600 129.600 C 357.600 129.380,358.050 129.200,358.600 129.200 C 359.150 129.200,359.600 129.020,359.600 128.800 C 359.600 128.580,359.960 128.400,360.400 128.400 C 360.840 128.400,361.200 128.220,361.200 128.000 C 361.200 127.780,361.920 127.600,362.800 127.600 C 363.680 127.600,364.400 127.420,364.400 127.200 C 364.400 126.975,365.525 126.800,366.976 126.800 C 368.393 126.800,369.664 126.620,369.800 126.400 C 369.936 126.180,370.937 126.000,372.024 126.000 C 373.111 126.000,374.000 126.180,374.000 126.400 C 374.000 126.620,374.726 126.800,375.613 126.800 C 377.314 126.800,378.121 125.961,377.253 125.093 C 376.693 124.533,376.645 119.600,377.200 119.600 C 377.420 119.600,377.600 118.610,377.600 117.400 C 377.600 116.190,377.780 115.200,378.000 115.200 C 378.220 115.200,378.400 114.480,378.400 113.600 C 378.400 112.720,378.580 112.000,378.800 112.000 C 379.020 112.000,379.200 111.640,379.200 111.200 C 379.200 110.760,379.380 110.400,379.600 110.400 C 379.820 110.400,380.000 110.040,380.000 109.600 C 380.000 109.160,380.180 108.800,380.400 108.800 C 380.620 108.800,380.800 108.530,380.800 108.200 C 380.800 107.870,380.950 107.600,381.132 107.600 C 381.315 107.600,381.720 107.108,382.032 106.506 C 382.668 105.281,386.590 101.200,387.132 101.200 C 387.324 101.200,388.016 100.689,388.669 100.065 C 389.321 99.441,390.428 98.678,391.128 98.368 C 391.828 98.058,392.400 97.669,392.400 97.502 C 392.400 97.336,392.760 97.200,393.200 97.200 C 393.640 97.200,394.000 97.020,394.000 96.800 C 394.000 96.580,394.540 96.400,395.200 96.400 C 395.860 96.400,396.400 96.220,396.400 96.000 C 396.400 95.780,396.940 95.600,397.600 95.600 C 398.260 95.600,398.800 95.420,398.800 95.200 C 398.800 94.980,399.070 94.800,399.400 94.800 C 401.286 94.800,399.716 92.881,397.597 92.597 C 397.046 92.523,395.370 92.179,393.873 91.831 C 392.375 91.484,390.622 91.200,389.975 91.200 C 389.329 91.200,388.800 91.020,388.800 90.800 C 388.800 90.580,388.001 90.400,387.024 90.400 C 386.047 90.400,385.136 90.220,385.000 90.000 C 384.864 89.780,384.043 89.600,383.176 89.600 C 382.309 89.600,381.600 89.420,381.600 89.200 C 381.600 88.980,380.700 88.800,379.600 88.800 C 378.500 88.800,377.600 88.620,377.600 88.400 C 377.600 88.180,376.880 88.000,376.000 88.000 C 375.120 88.000,374.400 87.820,374.400 87.600 C 374.400 87.380,373.590 87.200,372.600 87.200 C 371.610 87.200,370.800 87.020,370.800 86.800 C 370.800 86.580,370.080 86.400,369.200 86.400 C 368.320 86.400,367.600 86.220,367.600 86.000 C 367.600 85.780,366.700 85.600,365.600 85.600 C 364.500 85.600,363.600 85.420,363.600 85.200 C 363.600 84.980,362.880 84.800,362.000 84.800 C 361.120 84.800,360.400 84.620,360.400 84.400 C 360.400 84.180,359.601 84.000,358.624 84.000 C 357.647 84.000,356.736 83.820,356.600 83.600 C 356.464 83.380,355.744 83.200,355.000 83.200 C 354.256 83.200,353.536 83.020,353.400 82.800 C 353.264 82.580,352.353 82.400,351.376 82.400 C 350.399 82.400,349.600 82.220,349.600 82.000 C 349.600 81.780,349.060 81.600,348.400 81.600 L 347.200 81.600 347.200 85.000 M103.600 146.000 C 103.600 146.220,102.880 146.400,102.000 146.400 C 101.120 146.400,100.400 146.580,100.400 146.800 C 100.400 147.020,99.500 147.200,98.400 147.200 C 97.300 147.200,96.400 147.380,96.400 147.600 C 96.400 147.820,95.691 148.000,94.824 148.000 C 93.957 148.000,93.136 148.180,93.000 148.400 C 92.864 148.620,92.043 148.800,91.176 148.800 C 90.309 148.800,89.600 148.980,89.600 149.200 C 89.600 149.420,88.801 149.600,87.824 149.600 C 86.847 149.600,85.936 149.780,85.800 150.000 C 85.664 150.220,84.843 150.400,83.976 150.400 C 83.109 150.400,82.400 150.580,82.400 150.800 C 82.400 151.020,81.601 151.200,80.624 151.200 C 79.647 151.200,78.736 151.380,78.600 151.600 C 78.464 151.820,77.733 152.000,76.976 152.000 C 76.219 152.000,75.600 152.180,75.600 152.400 C 75.600 152.620,74.700 152.800,73.600 152.800 C 72.500 152.800,71.600 152.980,71.600 153.200 C 71.600 153.420,70.880 153.600,70.000 153.600 C 69.120 153.600,68.400 153.780,68.400 154.000 C 68.400 154.220,67.500 154.400,66.400 154.400 C 65.300 154.400,64.400 154.580,64.400 154.800 C 64.400 155.020,63.590 155.200,62.600 155.200 C 61.610 155.200,60.800 155.380,60.800 155.600 C 60.800 155.820,60.080 156.000,59.200 156.000 C 58.320 156.000,57.600 156.180,57.600 156.400 C 57.600 156.620,56.700 156.800,55.600 156.800 C 54.500 156.800,53.600 156.980,53.600 157.200 C 53.600 157.420,52.880 157.600,52.000 157.600 C 51.120 157.600,50.400 157.758,50.400 157.950 C 50.400 158.143,49.365 158.416,48.100 158.556 C 45.323 158.865,44.346 159.032,42.000 159.599 C 41.010 159.838,39.345 160.139,38.300 160.268 C 37.255 160.397,36.400 160.659,36.400 160.851 C 36.400 161.043,35.601 161.200,34.624 161.200 C 33.647 161.200,32.736 161.380,32.600 161.600 C 32.464 161.820,31.643 162.000,30.776 162.000 C 29.909 162.000,29.200 162.180,29.200 162.400 C 29.200 162.620,28.390 162.800,27.400 162.800 C 26.410 162.800,25.600 162.980,25.600 163.200 C 25.600 163.420,24.801 163.600,23.824 163.600 C 22.847 163.600,21.936 163.780,21.800 164.000 C 21.664 164.220,20.843 164.400,19.976 164.400 C 19.109 164.400,18.400 164.580,18.400 164.800 C 18.400 165.020,17.601 165.200,16.624 165.200 C 15.647 165.200,14.736 165.380,14.600 165.600 C 14.464 165.820,13.643 166.000,12.776 166.000 C 11.909 166.000,11.200 166.180,11.200 166.400 C 11.200 166.620,10.390 166.800,9.400 166.800 C 8.410 166.800,7.600 166.980,7.600 167.200 C 7.600 167.420,6.880 167.600,6.000 167.600 C 5.120 167.600,4.400 167.780,4.400 168.000 C 4.400 168.220,3.519 168.400,2.443 168.400 C 1.027 168.400,0.418 168.575,0.243 169.033 C -0.233 170.273,-0.007 170.800,1.000 170.800 C 1.550 170.800,2.000 170.980,2.000 171.200 C 2.000 171.420,2.619 171.600,3.376 171.600 C 4.133 171.600,4.864 171.780,5.000 172.000 C 5.136 172.220,5.777 172.400,6.424 172.400 C 7.071 172.400,7.600 172.580,7.600 172.800 C 7.600 173.020,7.865 173.200,8.188 173.200 C 8.512 173.200,9.760 173.650,10.963 174.200 C 12.165 174.750,13.430 175.200,13.774 175.200 C 14.118 175.200,14.400 175.380,14.400 175.600 C 14.400 175.820,14.760 176.000,15.200 176.000 C 15.640 176.000,16.000 176.180,16.000 176.400 C 16.000 176.620,16.360 176.800,16.800 176.800 C 17.240 176.800,17.600 176.980,17.600 177.200 C 17.600 177.420,17.960 177.600,18.400 177.600 C 18.840 177.600,19.200 177.780,19.200 178.000 C 19.200 178.220,19.520 178.400,19.912 178.400 C 20.303 178.400,20.883 178.760,21.200 179.200 C 21.517 179.640,22.057 180.000,22.400 180.000 C 22.743 180.000,23.283 180.360,23.600 180.800 C 23.917 181.240,24.362 181.601,24.588 181.603 C 24.815 181.604,25.720 182.316,26.600 183.183 C 27.480 184.051,28.338 184.770,28.507 184.780 C 28.855 184.803,34.000 189.872,34.000 190.192 C 34.000 190.306,34.720 191.141,35.600 192.048 C 36.480 192.955,37.200 193.905,37.200 194.160 C 37.200 194.415,37.560 194.883,38.000 195.200 C 38.440 195.517,38.800 196.097,38.800 196.488 C 38.800 196.880,38.980 197.200,39.200 197.200 C 39.420 197.200,39.600 197.545,39.600 197.967 C 39.600 198.388,39.735 198.793,39.900 198.867 C 40.313 199.050,42.444 203.526,42.565 204.467 C 42.584 204.613,42.735 204.868,42.900 205.033 C 43.065 205.198,43.200 205.753,43.200 206.267 C 43.200 206.780,43.380 207.200,43.600 207.200 C 43.820 207.200,44.000 207.740,44.000 208.400 C 44.000 209.060,44.180 209.600,44.400 209.600 C 44.620 209.600,44.800 210.320,44.800 211.200 C 44.800 212.080,44.980 212.800,45.200 212.800 C 45.420 212.800,45.600 213.700,45.600 214.800 C 45.600 215.900,45.780 216.800,46.000 216.800 C 46.255 216.800,46.400 220.067,46.400 225.800 L 46.400 234.800 51.400 234.800 C 54.467 234.800,56.400 234.645,56.400 234.400 C 56.400 234.180,56.670 234.000,57.000 234.000 C 57.330 234.000,57.600 234.180,57.600 234.400 C 57.600 234.643,59.392 234.800,62.176 234.800 C 64.796 234.800,66.858 234.971,67.000 235.200 C 67.136 235.420,68.227 235.600,69.424 235.600 C 70.621 235.600,71.600 235.780,71.600 236.000 C 71.600 236.220,72.320 236.400,73.200 236.400 C 74.080 236.400,74.800 236.580,74.800 236.800 C 74.800 237.020,75.329 237.200,75.976 237.200 C 76.623 237.200,77.264 237.380,77.400 237.600 C 77.536 237.820,77.999 238.000,78.429 238.000 C 78.859 238.000,79.568 238.180,80.005 238.400 C 80.442 238.620,81.158 238.980,81.595 239.200 C 82.032 239.420,82.752 239.600,83.195 239.600 C 83.638 239.600,84.000 239.780,84.000 240.000 C 84.000 240.220,84.249 240.400,84.554 240.400 C 84.859 240.400,85.624 240.669,86.254 240.998 C 86.884 241.326,87.715 241.596,88.100 241.598 C 88.485 241.599,88.800 241.780,88.800 242.000 C 88.800 242.220,89.160 242.400,89.600 242.400 C 90.040 242.400,90.400 242.580,90.400 242.800 C 90.400 243.020,90.760 243.200,91.200 243.200 C 91.640 243.200,92.000 243.380,92.000 243.600 C 92.000 243.820,92.242 244.000,92.538 244.000 C 92.834 244.000,93.402 244.360,93.800 244.800 C 94.198 245.240,94.766 245.600,95.062 245.600 C 95.358 245.600,95.600 245.750,95.600 245.932 C 95.600 246.115,96.095 246.519,96.700 246.830 C 97.305 247.140,98.091 247.711,98.447 248.097 C 98.803 248.484,99.284 248.800,99.517 248.800 C 99.966 248.800,108.400 256.980,108.400 257.416 C 108.400 257.557,109.030 258.409,109.800 259.308 C 110.570 260.208,111.200 261.182,111.200 261.472 C 111.200 261.762,111.350 262.000,111.532 262.000 C 111.715 262.000,112.120 262.495,112.432 263.100 C 112.745 263.705,113.315 264.549,113.700 264.975 C 114.085 265.402,114.400 265.987,114.400 266.275 C 114.400 266.564,114.580 266.800,114.800 266.800 C 115.020 266.800,115.200 267.160,115.200 267.600 C 115.200 268.040,115.346 268.400,115.525 268.400 C 115.704 268.400,116.098 269.030,116.400 269.800 C 116.702 270.570,117.096 271.200,117.275 271.200 C 117.454 271.200,117.600 271.560,117.600 272.000 C 117.600 272.440,117.780 272.800,118.000 272.800 C 118.220 272.800,118.400 273.160,118.400 273.600 C 118.400 274.040,118.580 274.400,118.800 274.400 C 119.020 274.400,119.200 274.760,119.200 275.200 C 119.200 275.640,119.380 276.000,119.600 276.000 C 119.820 276.000,120.000 276.540,120.000 277.200 C 120.000 277.860,120.180 278.400,120.400 278.400 C 120.620 278.400,120.800 278.940,120.800 279.600 C 120.800 280.260,120.980 280.800,121.200 280.800 C 121.420 280.800,121.600 281.340,121.600 282.000 C 121.600 282.660,121.780 283.200,122.000 283.200 C 122.220 283.200,122.400 283.920,122.400 284.800 C 122.400 285.680,122.580 286.400,122.800 286.400 C 123.020 286.400,123.200 287.210,123.200 288.200 C 123.200 289.190,123.380 290.000,123.600 290.000 C 123.833 290.000,124.000 291.333,124.000 293.200 C 124.000 295.067,124.167 296.400,124.400 296.400 C 124.642 296.400,124.800 298.133,124.800 300.800 C 124.800 303.467,124.642 305.200,124.400 305.200 C 124.169 305.200,124.000 306.459,124.000 308.176 C 124.000 309.813,123.820 311.264,123.600 311.400 C 123.380 311.536,123.200 312.447,123.200 313.424 C 123.200 314.401,123.020 315.200,122.800 315.200 C 122.580 315.200,122.400 315.920,122.400 316.800 C 122.400 317.680,122.220 318.400,122.000 318.400 C 121.780 318.400,121.600 318.940,121.600 319.600 C 121.600 320.260,121.420 320.800,121.200 320.800 C 120.980 320.800,120.800 321.340,120.800 322.000 C 120.800 322.660,120.620 323.200,120.400 323.200 C 120.180 323.200,120.000 323.740,120.000 324.400 C 120.000 325.060,119.820 325.600,119.600 325.600 C 119.380 325.600,119.200 325.883,119.200 326.228 C 119.200 328.093,121.043 326.510,122.668 323.251 C 123.587 321.409,124.532 319.708,124.769 319.471 C 125.006 319.234,125.200 318.716,125.200 318.320 C 125.200 317.924,125.380 317.600,125.600 317.600 C 125.820 317.600,126.000 317.375,126.001 317.100 C 126.001 316.825,126.541 315.970,127.200 315.200 C 127.859 314.430,128.399 313.647,128.399 313.460 C 128.400 313.274,128.940 312.617,129.600 312.000 C 130.260 311.383,130.800 310.631,130.800 310.328 C 130.800 310.025,131.178 309.512,131.640 309.188 C 132.102 308.865,134.083 307.070,136.041 305.200 C 141.840 299.665,142.815 298.800,143.258 298.800 C 143.827 298.800,146.000 296.439,146.000 295.821 C 146.000 295.548,146.855 294.895,147.900 294.368 C 148.945 293.842,149.890 293.309,150.000 293.185 C 150.252 292.899,154.003 291.195,157.100 289.959 C 157.595 289.762,158.405 289.436,158.900 289.236 C 165.842 286.431,175.637 285.008,185.800 285.330 C 195.091 285.624,200.761 287.085,210.800 291.770 C 219.140 295.662,227.541 302.192,234.008 309.810 L 236.947 313.272 238.112 311.936 C 244.646 304.441,250.864 299.518,258.200 296.030 C 260.180 295.089,262.113 294.157,262.495 293.959 C 262.877 293.762,263.541 293.600,263.971 293.600 C 264.401 293.600,264.851 293.441,264.971 293.246 C 265.092 293.051,265.687 292.790,266.295 292.664 C 266.903 292.539,268.300 292.240,269.400 292.001 C 275.135 290.755,280.849 290.435,286.200 291.060 C 293.721 291.938,294.381 292.046,294.626 292.442 C 294.748 292.639,295.456 292.800,296.200 292.800 C 296.944 292.800,297.664 292.980,297.800 293.200 C 297.936 293.420,298.476 293.600,299.000 293.600 C 299.524 293.600,300.064 293.780,300.200 294.000 C 300.336 294.220,300.769 294.400,301.162 294.400 C 301.555 294.400,302.400 294.650,303.039 294.956 C 303.677 295.262,304.920 295.819,305.800 296.194 C 307.760 297.028,310.109 298.188,312.096 299.303 C 314.223 300.497,314.305 300.005,312.436 297.253 C 311.536 295.928,310.800 294.736,310.800 294.604 C 310.800 294.472,309.900 293.030,308.800 291.400 C 307.700 289.770,306.800 288.325,306.800 288.189 C 306.800 288.054,306.575 287.695,306.300 287.393 C 306.025 287.090,304.630 284.932,303.200 282.598 C 301.770 280.263,299.565 276.740,298.300 274.769 C 297.035 272.798,296.000 271.009,296.000 270.793 C 296.000 270.577,295.820 270.400,295.600 270.400 C 295.380 270.400,295.200 270.212,295.200 269.982 C 295.200 269.752,294.300 268.230,293.200 266.600 C 292.100 264.970,291.200 263.448,291.200 263.218 C 291.200 262.988,291.050 262.800,290.868 262.800 C 290.685 262.800,290.284 262.305,289.977 261.700 C 289.671 261.095,288.560 259.303,287.510 257.718 C 286.459 256.133,285.600 254.731,285.600 254.602 C 285.600 254.473,285.260 253.880,284.844 253.284 C 284.428 252.688,282.963 250.400,281.587 248.200 C 280.212 246.000,278.122 242.717,276.943 240.904 C 275.765 239.091,274.800 237.426,274.800 237.204 C 274.800 236.982,274.665 236.799,274.500 236.797 C 274.335 236.795,274.003 236.390,273.762 235.897 C 273.521 235.404,271.380 231.940,269.004 228.200 C 266.627 224.460,264.349 220.815,263.942 220.100 C 263.534 219.385,262.826 218.139,262.368 217.331 C 261.911 216.523,260.810 214.793,259.922 213.485 L 258.308 211.108 257.354 212.136 C 256.829 212.702,256.400 213.273,256.400 213.406 C 256.400 213.926,250.656 220.951,248.391 223.200 C 242.597 228.953,233.288 235.518,227.400 238.001 C 224.151 239.371,223.141 239.669,216.694 241.159 C 215.646 241.402,212.004 241.600,208.600 241.600 C 205.196 241.600,201.554 241.402,200.506 241.159 C 195.428 239.986,193.096 239.356,191.800 238.810 C 191.360 238.624,190.685 238.372,190.300 238.249 C 189.535 238.004,189.359 236.446,189.966 235.295 C 190.168 234.913,190.618 233.925,190.966 233.100 C 191.315 232.275,191.888 230.925,192.241 230.100 C 192.593 229.275,193.020 228.240,193.190 227.800 C 193.360 227.360,193.904 226.100,194.400 225.000 C 194.896 223.900,195.434 222.640,195.597 222.200 C 196.016 221.067,196.591 219.691,197.560 217.504 C 198.022 216.462,198.400 215.515,198.400 215.400 C 198.400 215.285,198.735 214.428,199.143 213.496 C 201.447 208.240,202.810 204.722,202.481 204.883 C 196.999 207.557,195.965 207.946,191.400 209.053 C 189.601 209.489,178.463 209.391,176.400 208.920 C 163.852 206.059,151.478 194.691,149.355 184.074 C 149.029 182.446,148.541 182.123,148.174 183.294 C 148.018 183.792,147.375 185.330,146.745 186.710 C 146.115 188.091,145.600 189.307,145.600 189.414 C 145.600 189.521,145.222 190.462,144.760 191.504 C 144.298 192.547,143.781 193.760,143.611 194.200 C 143.441 194.640,142.896 195.900,142.400 197.000 C 141.904 198.100,141.359 199.360,141.189 199.800 C 141.019 200.240,140.502 201.453,140.040 202.496 C 139.578 203.538,139.200 204.485,139.200 204.600 C 139.200 204.715,138.822 205.662,138.360 206.704 C 137.444 208.773,137.298 209.108,135.844 212.481 C 134.880 214.717,134.837 214.755,133.642 214.412 C 132.514 214.089,128.458 212.068,128.000 211.602 C 127.890 211.490,127.305 211.144,126.700 210.832 C 126.095 210.520,125.600 210.115,125.600 209.932 C 125.600 209.750,125.375 209.595,125.100 209.589 C 123.468 209.552,113.765 199.586,111.969 196.102 C 111.657 195.496,111.311 194.910,111.201 194.800 C 110.769 194.369,108.766 190.495,108.100 188.800 C 107.884 188.250,107.519 187.350,107.290 186.800 C 105.954 183.599,105.520 181.140,105.137 174.600 C 104.438 162.662,104.348 158.645,104.760 157.819 C 104.985 157.368,105.260 155.830,105.371 154.400 C 105.728 149.803,106.066 147.409,106.406 147.051 C 106.588 146.859,106.642 146.454,106.526 146.151 C 106.284 145.520,103.600 145.381,103.600 146.000 M314.315 301.600 C 314.455 302.554,314.689 302.800,315.458 302.800 C 316.650 302.800,317.088 301.831,316.267 301.010 C 315.167 299.910,314.113 300.228,314.315 301.600 " stroke="none" fill="#525a6a" fill-rule="evenodd"></path><path id="path1" d="M198.800 74.400 C 198.800 74.620,198.170 74.800,197.400 74.800 C 196.630 74.800,196.000 74.960,196.000 75.156 C 196.000 75.351,195.775 75.503,195.500 75.493 C 194.119 75.441,193.174 75.635,193.358 75.932 C 193.471 76.114,193.182 76.236,192.717 76.201 C 191.859 76.138,189.814 76.741,188.902 77.326 C 188.627 77.502,188.011 77.721,187.531 77.813 C 187.051 77.906,186.552 78.154,186.422 78.365 C 186.292 78.575,185.738 78.814,185.193 78.895 C 184.647 78.975,183.615 79.352,182.900 79.731 C 182.185 80.110,181.600 80.337,181.600 80.234 C 181.600 80.131,181.118 80.298,180.529 80.603 C 179.939 80.909,179.282 81.050,179.067 80.918 C 178.852 80.785,178.785 80.852,178.917 81.066 C 179.049 81.280,178.492 81.693,177.679 81.984 C 176.865 82.275,176.110 82.627,176.000 82.767 C 175.673 83.182,168.982 86.400,168.446 86.400 C 168.175 86.400,168.045 86.550,168.158 86.732 C 168.271 86.915,167.742 87.309,166.982 87.607 C 166.222 87.905,165.600 88.296,165.600 88.475 C 165.600 88.654,165.364 88.800,165.075 88.800 C 164.787 88.800,164.164 89.160,163.692 89.600 C 163.220 90.040,162.691 90.400,162.517 90.401 C 162.343 90.401,161.577 90.934,160.817 91.584 C 160.056 92.234,159.349 92.682,159.246 92.580 C 159.143 92.477,158.686 92.741,158.230 93.166 C 157.773 93.592,157.160 93.999,156.867 94.070 C 156.573 94.142,155.700 94.767,154.927 95.460 C 153.374 96.851,153.084 97.091,150.195 99.383 C 149.098 100.253,147.615 101.558,146.901 102.283 C 146.186 103.007,145.497 103.600,145.370 103.600 C 145.242 103.600,144.446 104.320,143.600 105.200 C 142.754 106.080,141.967 106.800,141.850 106.800 C 141.576 106.800,139.600 108.770,139.600 109.043 C 139.600 109.156,138.406 110.453,136.947 111.924 C 135.488 113.396,133.823 115.226,133.247 115.992 C 132.204 117.379,131.588 118.137,130.024 119.961 C 129.571 120.490,129.200 121.085,129.200 121.285 C 129.200 121.484,128.992 121.519,128.738 121.362 C 128.445 121.180,128.385 121.253,128.575 121.560 C 128.756 121.852,128.425 122.430,127.737 123.021 C 127.112 123.559,126.769 123.999,126.975 124.000 C 127.181 124.000,126.901 124.495,126.352 125.100 C 125.098 126.482,123.200 129.442,123.200 130.015 C 123.200 130.253,123.020 130.336,122.800 130.200 C 122.580 130.064,122.400 130.289,122.400 130.701 C 122.400 131.112,122.040 131.836,121.600 132.308 C 121.160 132.780,120.800 133.455,120.800 133.807 C 120.800 134.159,120.620 134.336,120.400 134.200 C 120.180 134.064,120.000 134.198,120.000 134.497 C 120.000 135.251,119.065 137.193,118.700 137.197 C 118.535 137.199,118.400 137.470,118.400 137.800 C 118.400 138.130,118.220 138.400,118.000 138.400 C 117.780 138.400,117.600 138.760,117.600 139.200 C 117.600 139.640,117.464 140.000,117.298 140.000 C 117.131 140.000,116.743 140.585,116.434 141.300 C 116.126 142.015,115.182 144.039,114.337 145.798 C 113.491 147.557,112.800 149.233,112.800 149.522 C 112.800 149.811,112.636 149.946,112.435 149.822 C 112.234 149.698,112.118 149.912,112.177 150.298 C 112.236 150.684,111.950 151.627,111.542 152.394 C 111.134 153.161,110.800 154.201,110.800 154.707 C 110.800 155.212,110.555 155.719,110.256 155.834 C 109.956 155.949,109.742 156.438,109.780 156.921 C 109.817 157.405,109.590 158.109,109.274 158.487 C 108.958 158.865,108.796 159.540,108.912 159.987 C 109.029 160.434,108.962 160.800,108.763 160.800 C 108.563 160.800,108.400 161.340,108.400 162.000 C 108.400 162.660,108.220 163.200,108.000 163.200 C 107.780 163.200,107.600 163.830,107.600 164.600 C 107.600 165.370,107.420 166.000,107.200 166.000 C 106.980 166.000,106.800 166.529,106.800 167.176 C 106.800 167.823,106.620 168.464,106.400 168.600 C 106.180 168.736,106.000 169.559,106.000 170.429 C 106.000 171.299,105.804 172.325,105.565 172.708 C 105.046 173.539,105.914 180.878,106.782 183.000 C 106.962 183.440,107.341 184.610,107.624 185.600 C 107.907 186.590,108.288 187.571,108.470 187.780 C 108.651 187.989,108.800 188.484,108.800 188.880 C 108.800 189.276,108.980 189.600,109.200 189.600 C 109.420 189.600,109.600 189.960,109.600 190.400 C 109.600 190.840,109.780 191.200,110.000 191.200 C 110.220 191.200,110.400 191.560,110.400 192.000 C 110.400 192.440,110.580 192.800,110.800 192.800 C 111.020 192.800,111.200 192.988,111.200 193.218 C 111.200 195.240,120.954 206.136,125.400 209.080 C 128.420 211.081,132.298 213.200,132.937 213.200 C 133.421 213.200,136.598 208.711,137.466 206.800 C 138.969 203.491,139.600 201.966,139.600 201.642 C 139.600 201.327,140.267 199.851,141.650 197.105 C 141.843 196.723,142.000 196.138,142.000 195.805 C 142.000 195.472,142.180 195.200,142.400 195.200 C 142.620 195.200,142.800 194.928,142.800 194.595 C 142.800 194.262,142.959 193.677,143.153 193.295 C 143.348 192.913,143.684 192.150,143.900 191.600 C 144.489 190.101,145.034 188.797,145.906 186.800 C 146.339 185.810,146.937 184.314,147.236 183.475 C 148.043 181.208,149.600 180.417,149.600 182.274 C 149.600 182.619,150.256 184.543,151.057 186.550 C 155.765 198.343,166.261 206.584,179.200 208.648 C 182.842 209.229,192.142 208.742,192.634 207.944 C 192.751 207.755,193.366 207.600,194.000 207.600 C 194.634 207.600,195.264 207.420,195.400 207.200 C 195.536 206.980,195.950 206.800,196.320 206.800 C 196.690 206.800,198.296 206.156,199.889 205.369 C 201.481 204.582,203.035 203.997,203.341 204.069 C 203.858 204.191,201.820 209.648,198.776 216.296 C 198.349 217.228,198.000 218.085,198.000 218.200 C 198.000 218.315,197.622 219.262,197.160 220.304 C 196.698 221.347,196.182 222.560,196.014 223.000 C 195.375 224.666,194.873 225.862,194.000 227.800 C 193.504 228.900,192.966 230.160,192.803 230.600 C 192.134 232.408,191.669 233.490,190.831 235.186 C 189.909 237.052,190.263 238.000,191.882 238.000 C 192.173 238.000,192.723 238.162,193.105 238.361 C 193.487 238.560,194.520 238.905,195.400 239.128 C 196.280 239.351,197.720 239.720,198.600 239.947 C 202.948 241.068,210.519 241.296,215.600 240.460 C 217.250 240.189,219.276 239.865,220.103 239.741 C 220.929 239.617,221.705 239.355,221.826 239.158 C 221.948 238.961,222.372 238.800,222.769 238.800 C 223.884 238.800,229.092 236.548,232.200 234.722 C 235.260 232.924,239.283 230.359,239.600 230.003 C 239.710 229.880,240.610 229.164,241.600 228.412 C 244.303 226.358,251.540 218.947,253.722 215.998 C 254.780 214.569,255.905 213.083,256.222 212.695 C 256.540 212.308,256.800 211.841,256.800 211.657 C 256.800 210.627,258.266 209.989,258.935 210.728 C 259.301 211.132,259.600 211.591,259.600 211.748 C 259.600 211.905,259.960 212.420,260.400 212.892 C 260.840 213.364,261.200 213.987,261.200 214.275 C 261.200 214.564,261.380 214.800,261.600 214.800 C 261.820 214.800,262.000 214.993,262.000 215.228 C 262.000 215.463,262.540 216.441,263.200 217.400 C 263.860 218.359,264.400 219.227,264.400 219.329 C 264.400 219.490,268.110 225.557,269.213 227.200 C 270.632 229.313,273.600 234.076,273.600 234.239 C 273.600 234.348,274.500 235.770,275.600 237.400 C 276.700 239.030,277.600 240.552,277.600 240.782 C 277.600 241.012,277.750 241.200,277.932 241.200 C 278.115 241.200,278.520 241.695,278.832 242.300 C 279.145 242.905,280.570 245.236,282.000 247.479 C 283.430 249.723,285.770 253.468,287.200 255.801 C 288.630 258.134,290.025 260.290,290.300 260.593 C 290.575 260.895,290.800 261.256,290.800 261.393 C 290.800 261.531,291.520 262.704,292.400 264.000 C 293.280 265.296,294.000 266.546,294.000 266.778 C 294.000 267.010,294.180 267.200,294.400 267.200 C 294.620 267.200,294.800 267.381,294.800 267.603 C 294.800 267.825,295.942 269.760,297.338 271.903 C 302.135 279.269,305.600 284.857,305.600 285.228 C 305.600 285.433,305.780 285.600,306.000 285.600 C 306.220 285.600,306.400 285.790,306.400 286.022 C 306.400 286.254,307.120 287.504,308.000 288.800 C 308.880 290.096,309.600 291.346,309.600 291.578 C 309.600 291.810,309.780 292.000,310.000 292.000 C 310.220 292.000,310.400 292.187,310.400 292.415 C 310.400 293.025,315.159 300.000,315.574 300.000 C 316.191 300.000,319.722 297.011,321.880 294.663 C 323.023 293.419,324.104 292.400,324.280 292.400 C 324.457 292.400,325.411 291.473,326.401 290.341 C 328.843 287.546,329.198 287.200,329.629 287.200 C 329.833 287.200,330.000 287.018,330.000 286.797 C 330.000 286.384,331.049 285.100,333.700 282.271 C 334.525 281.390,335.200 280.527,335.200 280.353 C 335.200 280.179,335.605 279.623,336.100 279.118 C 336.595 278.613,337.242 277.729,337.538 277.154 C 337.835 276.579,338.510 275.642,339.038 275.072 C 339.567 274.502,340.000 273.875,340.000 273.679 C 340.000 273.484,340.360 272.998,340.800 272.600 C 341.240 272.202,341.600 271.584,341.600 271.226 C 341.600 270.869,341.960 270.317,342.400 270.000 C 342.840 269.683,343.200 269.193,343.200 268.912 C 343.200 268.630,343.380 268.400,343.600 268.400 C 344.516 268.400,343.973 266.521,342.900 265.980 C 339.325 264.175,335.702 260.413,333.672 256.400 C 324.938 239.129,340.516 219.569,359.300 224.221 C 360.239 224.453,360.400 224.370,360.400 223.647 C 360.400 223.181,360.549 222.800,360.732 222.800 C 360.914 222.800,361.104 221.779,361.155 220.530 C 361.205 219.282,361.416 217.943,361.623 217.556 C 361.831 217.169,362.000 215.401,362.000 213.626 C 362.000 211.742,362.166 210.400,362.400 210.400 C 362.656 210.400,362.800 206.733,362.800 200.200 C 362.800 193.667,362.656 190.000,362.400 190.000 C 362.164 190.000,362.000 188.560,362.000 186.480 C 362.000 184.544,361.835 182.789,361.634 182.580 C 361.432 182.371,361.171 181.120,361.054 179.800 C 360.713 175.973,360.345 173.829,359.959 173.420 C 359.762 173.211,359.600 172.367,359.600 171.544 C 359.600 170.721,359.445 169.952,359.256 169.835 C 359.067 169.718,358.801 168.668,358.663 167.501 C 358.526 166.335,357.942 164.035,357.366 162.390 C 356.789 160.746,356.235 158.956,356.135 158.412 C 356.035 157.869,355.783 157.221,355.577 156.972 C 355.370 156.723,355.161 156.042,355.113 155.460 C 355.065 154.877,354.885 154.400,354.713 154.400 C 354.541 154.400,354.400 154.135,354.400 153.812 C 354.400 153.488,353.950 152.228,353.400 151.012 C 352.850 149.795,351.950 147.805,351.400 146.588 C 350.850 145.372,350.400 144.101,350.400 143.765 C 350.400 143.428,350.247 143.247,350.060 143.363 C 349.872 143.479,349.484 142.859,349.196 141.987 C 348.908 141.114,348.521 140.400,348.336 140.400 C 348.151 140.400,348.000 140.040,348.000 139.600 C 348.000 139.160,347.820 138.800,347.600 138.800 C 347.380 138.800,347.200 138.530,347.200 138.200 C 347.200 137.870,347.040 137.600,346.844 137.600 C 346.332 137.600,343.200 141.289,343.200 141.892 C 343.200 142.171,343.064 142.400,342.898 142.400 C 342.731 142.400,342.356 142.985,342.064 143.700 C 340.995 146.316,340.701 147.012,340.414 147.600 C 340.254 147.930,339.892 149.190,339.611 150.400 C 339.330 151.610,338.943 153.122,338.750 153.760 C 337.926 156.488,338.388 163.669,339.660 167.898 C 340.408 170.385,339.529 169.995,337.548 166.960 C 334.303 161.988,330.201 158.253,325.110 155.633 C 321.624 153.838,321.800 153.774,321.410 156.993 C 318.940 177.346,292.730 182.365,280.838 164.762 C 275.737 157.212,263.177 152.647,254.600 155.226 C 250.727 156.391,248.192 157.352,246.115 158.445 C 244.888 159.090,243.801 159.534,243.699 159.432 C 243.442 159.175,244.524 156.800,244.898 156.800 C 245.064 156.800,245.200 156.635,245.200 156.434 C 245.200 156.076,252.499 144.344,254.826 140.962 C 255.472 140.024,256.000 139.145,256.000 139.010 C 256.000 138.875,256.900 137.430,258.000 135.800 C 259.100 134.170,260.000 132.648,260.000 132.418 C 260.000 132.188,260.180 132.000,260.400 132.000 C 260.620 132.000,260.800 131.825,260.800 131.611 C 260.800 131.397,261.835 129.625,263.100 127.672 C 264.365 125.719,266.120 122.917,267.000 121.445 C 272.134 112.857,271.884 113.036,274.200 116.278 C 276.168 119.032,277.183 120.104,280.000 122.404 C 281.210 123.392,282.260 124.335,282.333 124.500 C 282.407 124.665,282.644 124.800,282.861 124.800 C 283.078 124.800,284.041 125.340,285.000 126.000 C 285.959 126.660,286.991 127.200,287.292 127.200 C 287.593 127.200,288.011 127.349,288.220 127.530 C 290.555 129.561,304.295 129.373,305.093 127.300 C 305.289 126.791,304.795 125.477,301.222 117.005 C 298.938 111.590,298.606 109.653,300.220 111.153 C 304.171 114.828,315.361 113.458,320.504 108.669 C 323.145 106.210,322.885 105.401,318.343 101.936 C 317.576 101.352,316.151 100.142,315.175 99.247 C 314.199 98.353,313.282 97.617,313.138 97.611 C 312.869 97.600,310.071 95.422,308.541 94.032 C 308.068 93.603,307.573 93.360,307.441 93.493 C 307.308 93.625,307.200 93.523,307.200 93.267 C 307.200 93.010,307.013 92.800,306.785 92.800 C 306.556 92.800,304.763 91.720,302.800 90.400 C 300.837 89.080,299.044 88.000,298.815 88.000 C 298.587 88.000,298.400 87.820,298.400 87.600 C 298.400 87.380,298.130 87.200,297.800 87.200 C 297.470 87.200,297.200 87.020,297.200 86.800 C 297.200 86.580,296.840 86.400,296.400 86.400 C 295.960 86.400,295.600 86.220,295.600 86.000 C 295.600 85.780,295.240 85.600,294.800 85.600 C 294.360 85.600,293.999 85.465,293.997 85.300 C 293.993 84.949,292.063 84.000,291.354 84.000 C 291.086 84.000,290.807 83.864,290.733 83.698 C 290.660 83.532,289.340 82.793,287.800 82.056 C 286.260 81.319,284.687 80.555,284.305 80.358 C 283.923 80.161,283.338 80.000,283.005 80.000 C 282.672 80.000,282.400 79.820,282.400 79.600 C 282.400 79.380,282.265 79.237,282.100 79.281 C 281.646 79.404,278.800 78.277,278.800 77.975 C 278.800 77.829,278.339 77.761,277.775 77.823 C 277.174 77.889,276.660 77.700,276.532 77.368 C 276.412 77.055,275.894 76.800,275.381 76.800 C 274.867 76.800,274.325 76.603,274.177 76.362 C 274.028 76.122,273.477 76.007,272.953 76.107 C 272.429 76.207,272.000 76.155,272.000 75.991 C 272.000 75.451,270.237 75.217,269.920 75.715 C 269.751 75.982,269.609 77.280,269.606 78.600 C 269.594 82.867,267.612 90.129,265.620 93.200 C 265.263 93.750,264.710 94.717,264.392 95.349 C 261.910 100.271,253.863 106.854,247.232 109.388 C 225.021 117.875,200.000 101.237,200.000 77.980 C 200.000 74.709,199.893 74.000,199.400 74.000 C 199.070 74.000,198.800 74.180,198.800 74.400 M165.507 127.770 C 183.321 132.513,187.525 155.371,172.456 165.555 C 159.216 174.502,141.269 165.951,139.810 150.000 C 138.535 136.054,152.204 124.229,165.507 127.770 M226.284 138.481 C 237.068 143.551,233.123 159.560,221.298 158.714 C 210.243 157.923,207.608 143.353,217.641 138.492 C 220.083 137.309,223.780 137.304,226.284 138.481 M229.458 205.822 C 237.199 210.317,235.970 222.220,227.473 225.042 C 219.480 227.697,211.442 220.251,213.746 212.325 C 215.781 205.326,223.268 202.227,229.458 205.822 M292.692 213.945 C 303.267 219.340,297.639 236.512,286.122 233.993 C 274.697 231.493,274.073 217.311,285.200 213.042 C 286.401 212.581,291.137 213.152,292.692 213.945 M178.200 286.033 C 169.938 286.655,160.671 288.822,155.905 291.247 C 155.523 291.441,154.938 291.600,154.605 291.600 C 154.272 291.600,154.000 291.780,154.000 292.000 C 154.000 292.220,153.735 292.400,153.412 292.400 C 153.089 292.400,152.189 292.760,151.412 293.200 C 150.635 293.640,149.325 294.376,148.500 294.835 C 145.711 296.389,145.678 296.533,147.642 298.566 C 148.609 299.567,149.553 300.390,149.740 300.393 C 149.927 300.397,150.710 301.030,151.480 301.800 C 152.250 302.570,153.029 303.200,153.211 303.200 C 153.394 303.200,153.781 303.425,154.071 303.700 C 154.362 303.975,155.410 304.739,156.400 305.399 C 157.390 306.058,158.344 306.823,158.520 307.099 C 158.696 307.374,159.101 307.600,159.420 307.600 C 159.739 307.600,160.000 307.810,160.000 308.067 C 160.000 308.323,160.109 308.424,160.243 308.291 C 160.376 308.157,160.860 308.397,161.318 308.824 C 161.776 309.251,162.387 309.600,162.675 309.600 C 162.964 309.600,163.200 309.780,163.200 310.000 C 163.200 310.220,163.470 310.400,163.800 310.400 C 164.130 310.400,164.400 310.580,164.400 310.800 C 164.400 311.020,164.670 311.200,165.000 311.200 C 165.330 311.200,165.600 311.346,165.600 311.525 C 165.600 311.704,166.230 312.098,167.000 312.400 C 167.770 312.702,168.400 313.096,168.400 313.275 C 168.400 313.454,168.760 313.600,169.200 313.600 C 169.640 313.600,170.000 313.780,170.000 314.000 C 170.000 314.220,170.270 314.400,170.600 314.400 C 170.930 314.400,171.200 314.551,171.200 314.736 C 171.200 314.921,171.920 315.310,172.800 315.600 C 173.680 315.890,174.400 316.279,174.400 316.464 C 174.400 316.649,174.649 316.800,174.954 316.800 C 175.859 316.800,177.612 317.852,177.294 318.204 C 177.132 318.382,177.193 318.419,177.429 318.285 C 177.664 318.151,178.360 318.302,178.974 318.620 C 179.589 318.939,180.341 319.200,180.646 319.200 C 180.951 319.200,181.200 319.380,181.200 319.600 C 181.200 319.820,181.639 320.000,182.176 320.000 C 182.713 320.000,183.252 320.160,183.373 320.356 C 183.494 320.551,184.089 320.835,184.696 320.987 C 185.303 321.138,186.070 321.487,186.400 321.761 C 186.730 322.036,187.379 322.279,187.843 322.301 C 188.307 322.323,189.387 322.653,190.243 323.033 C 191.099 323.413,191.956 323.689,192.147 323.646 C 192.337 323.604,192.937 323.860,193.479 324.215 C 194.021 324.570,194.720 324.763,195.032 324.643 C 195.345 324.523,195.600 324.599,195.600 324.813 C 195.600 325.026,196.410 325.200,197.400 325.200 C 198.390 325.200,199.200 325.361,199.200 325.558 C 199.200 325.755,199.875 326.018,200.700 326.143 C 204.158 326.665,205.200 326.903,205.200 327.169 C 205.200 327.324,206.049 327.494,207.087 327.548 C 208.124 327.602,209.233 327.861,209.551 328.123 C 210.371 328.800,210.017 327.455,208.223 323.081 C 204.765 314.652,204.550 303.997,207.646 294.509 C 208.093 293.140,208.352 291.846,208.222 291.635 C 207.888 291.095,205.609 290.000,204.819 290.000 C 204.456 290.000,203.989 289.851,203.780 289.670 C 203.571 289.488,202.590 289.107,201.600 288.823 C 200.610 288.539,199.350 288.165,198.800 287.992 C 193.053 286.180,185.627 285.473,178.200 286.033 M285.373 292.243 C 288.162 299.222,289.174 309.371,287.772 316.300 C 287.574 317.278,287.649 317.600,288.075 317.600 C 288.846 317.600,290.793 316.670,290.797 316.300 C 290.799 316.135,291.160 316.000,291.600 316.000 C 292.040 316.000,292.400 315.820,292.400 315.600 C 292.400 315.380,292.760 315.200,293.200 315.200 C 293.640 315.200,294.000 315.020,294.000 314.800 C 294.000 314.580,294.360 314.400,294.800 314.400 C 295.240 314.400,295.600 314.241,295.600 314.047 C 295.600 313.852,295.915 313.593,296.300 313.471 C 296.987 313.254,299.206 311.995,299.600 311.599 C 299.710 311.489,300.295 311.144,300.900 310.832 C 301.505 310.520,302.000 310.115,302.000 309.932 C 302.000 309.750,302.199 309.600,302.442 309.600 C 302.685 309.600,303.684 309.060,304.662 308.400 C 305.640 307.740,306.612 307.200,306.823 307.200 C 307.033 307.200,307.597 306.750,308.075 306.200 C 308.553 305.650,309.200 305.200,309.512 305.200 C 309.824 305.200,310.578 304.666,311.187 304.014 C 311.796 303.362,312.394 302.927,312.515 303.048 C 312.873 303.406,313.617 301.709,313.377 301.083 C 313.139 300.463,303.283 295.600,302.264 295.600 C 301.925 295.600,301.536 295.420,301.400 295.200 C 301.264 294.980,300.724 294.800,300.200 294.800 C 299.676 294.800,299.149 294.641,299.029 294.446 C 298.908 294.251,298.313 293.993,297.705 293.871 C 297.097 293.749,295.790 293.447,294.800 293.200 C 288.684 291.672,284.995 291.297,285.373 292.243 " stroke="none" fill="#f3cb63" fill-rule="evenodd"></path><path id="path2" d="M219.933 70.378 C 219.860 70.587,218.405 70.793,216.700 70.837 C 214.995 70.881,213.600 71.071,213.600 71.258 C 213.600 71.446,212.621 71.600,211.424 71.600 C 210.227 71.600,209.136 71.780,209.000 72.000 C 208.864 72.220,207.908 72.403,206.876 72.406 C 205.517 72.411,205.165 72.519,205.600 72.800 C 206.172 73.169,203.916 73.426,201.900 73.221 C 201.515 73.182,201.200 73.341,201.200 73.575 C 201.200 73.809,200.930 74.000,200.600 74.000 C 200.107 74.000,200.000 74.709,200.000 77.980 C 200.000 101.237,225.021 117.875,247.232 109.388 C 253.863 106.854,261.910 100.271,264.392 95.349 C 264.710 94.717,265.263 93.750,265.620 93.200 C 268.098 89.379,271.186 74.800,269.516 74.800 C 269.316 74.800,269.280 75.025,269.435 75.300 C 269.661 75.700,269.610 75.700,269.179 75.300 C 268.882 75.025,268.226 74.800,267.720 74.800 C 267.214 74.800,266.800 74.620,266.800 74.400 C 266.800 74.180,266.080 74.000,265.200 74.000 C 264.320 74.000,263.600 73.857,263.600 73.682 C 263.600 73.507,262.925 73.319,262.100 73.264 C 261.275 73.210,260.540 72.993,260.467 72.782 C 260.393 72.572,259.549 72.400,258.590 72.400 C 257.632 72.400,256.736 72.220,256.600 72.000 C 256.464 71.780,255.373 71.600,254.176 71.600 C 252.979 71.600,252.000 71.420,252.000 71.200 C 252.000 70.963,250.533 70.800,248.400 70.800 C 246.267 70.800,244.800 70.637,244.800 70.400 C 244.800 69.871,220.120 69.850,219.933 70.378 M184.400 78.745 C 184.400 78.934,184.850 79.003,185.400 78.898 C 185.950 78.793,186.400 78.638,186.400 78.553 C 186.400 78.469,185.950 78.400,185.400 78.400 C 184.850 78.400,184.400 78.555,184.400 78.745 M308.800 94.357 C 308.800 94.554,309.085 94.824,309.433 94.957 C 310.411 95.333,310.508 95.251,309.857 94.600 C 309.177 93.920,308.800 93.833,308.800 94.357 M153.267 96.267 C 152.993 96.560,152.921 96.800,153.108 96.800 C 153.294 96.800,153.775 96.560,154.176 96.267 C 154.706 95.879,154.750 95.733,154.335 95.733 C 154.022 95.733,153.541 95.973,153.267 96.267 M311.722 96.579 C 312.340 97.140,313.027 97.600,313.251 97.600 C 313.779 97.600,312.841 96.744,311.585 96.079 C 310.670 95.595,310.680 95.630,311.722 96.579 M150.614 98.480 C 149.616 99.059,147.859 100.802,148.282 100.794 C 148.626 100.788,151.931 98.032,151.600 98.027 C 151.490 98.026,151.046 98.230,150.614 98.480 M316.022 99.900 C 316.049 100.269,318.400 102.159,318.400 101.812 C 318.400 101.506,316.520 99.600,316.218 99.600 C 316.098 99.600,316.010 99.735,316.022 99.900 M145.900 102.557 C 145.169 103.112,144.984 103.600,145.504 103.600 C 145.671 103.600,146.032 103.240,146.307 102.800 C 146.889 101.868,146.844 101.840,145.900 102.557 M143.273 104.925 C 142.573 105.647,142.000 106.371,142.000 106.532 C 142.000 106.694,142.648 106.179,143.440 105.387 C 144.232 104.595,144.805 103.871,144.713 103.779 C 144.621 103.687,143.973 104.203,143.273 104.925 M136.800 111.400 C 136.522 111.735,136.479 112.000,136.702 112.000 C 136.922 112.000,137.326 111.730,137.600 111.400 C 137.878 111.065,137.921 110.800,137.698 110.800 C 137.478 110.800,137.074 111.070,136.800 111.400 M131.705 117.108 C 130.654 118.391,130.476 119.312,131.500 118.170 C 132.849 116.666,133.295 116.000,132.949 116.008 C 132.757 116.012,132.197 116.507,131.705 117.108 M155.800 127.781 C 141.657 131.412,135.150 148.093,143.271 159.904 C 154.067 175.608,178.621 170.145,181.386 151.424 C 183.561 136.696,169.976 124.143,155.800 127.781 M217.641 138.492 C 207.608 143.353,210.243 157.923,221.298 158.714 C 231.010 159.409,236.426 147.881,229.662 140.912 C 226.488 137.641,221.479 136.633,217.641 138.492 M305.200 152.036 C 297.794 152.988,289.590 157.667,284.295 163.960 C 282.764 165.780,282.502 165.777,280.776 163.927 L 279.165 162.200 281.032 165.000 C 292.659 182.433,318.090 177.470,321.384 157.124 L 321.881 154.048 320.841 153.653 C 316.287 151.927,310.612 151.340,305.200 152.036 M110.454 154.067 C 110.425 154.434,110.284 155.064,110.141 155.467 C 109.941 156.033,109.995 156.096,110.375 155.746 C 110.646 155.497,110.787 154.867,110.688 154.346 C 110.590 153.826,110.484 153.700,110.454 154.067 M259.900 154.682 C 260.395 154.778,261.205 154.778,261.700 154.682 C 262.195 154.587,261.790 154.509,260.800 154.509 C 259.810 154.509,259.405 154.587,259.900 154.682 M362.000 189.400 C 362.000 189.730,362.180 190.000,362.400 190.000 C 362.620 190.000,362.800 189.730,362.800 189.400 C 362.800 189.070,362.620 188.800,362.400 188.800 C 362.180 188.800,362.000 189.070,362.000 189.400 M221.755 204.600 C 209.858 207.280,211.104 224.603,223.261 225.520 C 236.579 226.524,238.949 206.847,225.793 204.501 C 224.463 204.264,223.100 204.297,221.755 204.600 M135.170 210.600 C 134.223 212.030,133.292 213.200,133.100 213.200 C 132.909 213.200,132.864 213.380,133.000 213.600 C 133.718 214.761,134.683 213.887,135.872 211.000 C 136.551 209.350,137.058 208.000,136.999 208.000 C 136.940 208.000,136.117 209.170,135.170 210.600 M285.200 213.042 C 274.073 217.311,274.697 231.493,286.122 233.993 C 295.663 236.080,302.381 223.737,295.718 216.362 C 293.312 213.699,287.922 211.997,285.200 213.042 M347.800 224.357 C 328.336 230.032,325.159 257.023,342.900 265.980 C 343.505 266.285,344.000 266.775,344.000 267.068 C 344.000 267.360,344.180 267.600,344.400 267.600 C 344.620 267.600,344.800 267.240,344.800 266.800 C 344.800 266.360,344.980 266.000,345.200 266.000 C 345.420 266.000,345.600 265.640,345.600 265.200 C 345.600 264.760,345.780 264.400,346.000 264.400 C 346.220 264.400,346.400 264.122,346.400 263.783 C 346.400 263.444,346.760 262.780,347.200 262.308 C 347.640 261.836,348.000 261.213,348.000 260.925 C 348.000 260.636,348.180 260.400,348.400 260.400 C 348.620 260.400,348.800 260.040,348.800 259.600 C 348.800 259.160,348.980 258.800,349.200 258.800 C 349.420 258.800,349.600 258.440,349.600 258.000 C 349.600 257.560,349.780 257.200,350.000 257.200 C 350.220 257.200,350.400 256.840,350.400 256.400 C 350.400 255.960,350.580 255.600,350.800 255.600 C 351.020 255.600,351.200 255.150,351.200 254.600 C 351.200 254.050,351.380 253.600,351.600 253.600 C 351.820 253.600,352.000 253.240,352.000 252.800 C 352.000 252.360,352.180 252.000,352.400 252.000 C 352.620 252.000,352.800 251.651,352.800 251.224 C 352.800 250.797,352.980 250.336,353.200 250.200 C 353.420 250.064,353.600 249.513,353.600 248.976 C 353.600 248.439,353.780 248.000,354.000 248.000 C 354.220 248.000,354.400 247.651,354.400 247.224 C 354.400 246.797,354.597 246.325,354.838 246.176 C 355.080 246.027,355.200 245.379,355.105 244.735 C 355.011 244.091,355.111 243.455,355.328 243.321 C 355.549 243.184,355.598 243.280,355.438 243.538 C 355.281 243.792,355.343 244.000,355.576 244.000 C 355.809 244.000,356.000 243.460,356.000 242.800 C 356.000 242.140,356.180 241.600,356.400 241.600 C 356.620 241.600,356.800 241.298,356.800 240.928 C 356.800 240.187,357.508 237.779,358.035 236.728 C 358.220 236.358,358.493 234.873,358.641 233.428 C 358.794 231.934,359.102 230.797,359.355 230.794 C 359.600 230.791,359.530 230.613,359.200 230.400 C 358.800 230.142,358.767 230.010,359.100 230.006 C 359.388 230.003,359.600 229.490,359.600 228.800 C 359.600 228.140,359.780 227.600,360.000 227.600 C 360.220 227.600,360.400 226.911,360.400 226.069 C 360.400 224.556,360.375 224.532,358.369 224.069 C 355.490 223.404,350.612 223.537,347.800 224.357 M337.845 276.588 C 337.480 277.144,337.322 277.600,337.495 277.600 C 337.884 277.600,338.919 275.986,338.682 275.749 C 338.586 275.653,338.210 276.031,337.845 276.588 M335.443 279.833 C 335.067 280.811,335.149 280.908,335.800 280.257 C 336.480 279.577,336.567 279.200,336.043 279.200 C 335.846 279.200,335.576 279.485,335.443 279.833 M331.670 284.422 C 330.757 285.578,330.801 286.085,331.729 285.098 C 332.760 284.001,333.280 283.201,332.949 283.222 C 332.757 283.234,332.181 283.774,331.670 284.422 M179.500 285.882 C 179.995 285.978,180.805 285.978,181.300 285.882 C 181.795 285.787,181.390 285.709,180.400 285.709 C 179.410 285.709,179.005 285.787,179.500 285.882 M172.652 286.316 C 172.544 286.490,173.118 286.567,173.928 286.487 C 176.142 286.269,176.405 286.067,174.524 286.032 C 173.602 286.014,172.759 286.142,172.652 286.316 M207.999 291.399 C 208.372 291.848,208.297 292.516,207.654 294.486 C 204.550 303.997,204.761 314.643,208.223 323.081 C 209.017 325.017,209.762 327.005,209.880 327.500 C 210.061 328.264,210.358 328.400,211.847 328.400 C 212.811 328.400,213.600 328.580,213.600 328.800 C 213.600 329.033,214.933 329.200,216.800 329.200 C 218.560 329.200,220.000 329.367,220.000 329.572 C 220.000 329.791,225.062 329.959,232.400 329.982 C 240.646 330.009,244.800 329.884,244.800 329.611 C 244.800 329.360,246.203 329.200,248.400 329.200 C 250.533 329.200,252.000 329.037,252.000 328.800 C 252.000 328.580,252.979 328.400,254.176 328.400 C 255.373 328.400,256.464 328.220,256.600 328.000 C 256.736 327.780,257.692 327.597,258.724 327.594 C 260.083 327.589,260.435 327.481,260.000 327.200 C 259.570 326.922,259.997 326.811,261.500 326.806 C 262.655 326.803,263.600 326.620,263.600 326.400 C 263.600 326.180,264.284 326.000,265.120 326.000 C 265.956 326.000,266.811 325.830,267.020 325.622 C 267.229 325.414,268.390 325.132,269.600 324.996 C 270.810 324.859,271.971 324.580,272.180 324.374 C 272.389 324.168,272.963 324.000,273.456 324.000 C 273.949 324.000,274.464 323.820,274.600 323.600 C 274.736 323.380,275.272 323.200,275.790 323.200 C 276.309 323.200,276.793 323.022,276.867 322.803 C 276.940 322.585,277.495 322.366,278.100 322.316 C 278.705 322.266,279.200 322.085,279.200 321.913 C 279.200 321.741,279.560 321.600,280.000 321.600 C 280.440 321.600,280.800 321.420,280.800 321.200 C 280.800 320.980,281.321 320.800,281.957 320.800 C 282.611 320.800,283.213 320.542,283.342 320.207 C 283.472 319.869,283.835 319.715,284.185 319.850 C 284.523 319.979,284.800 319.886,284.800 319.643 C 284.800 319.399,285.160 319.200,285.600 319.200 C 286.040 319.200,286.400 319.040,286.400 318.843 C 286.400 318.647,286.886 318.365,287.479 318.216 C 288.271 318.017,288.414 317.856,288.016 317.610 C 287.574 317.337,287.559 316.853,287.937 314.971 C 289.183 308.770,288.186 299.552,285.529 292.700 L 285.103 291.600 279.557 291.600 C 276.507 291.600,273.154 291.798,272.106 292.041 C 267.063 293.206,264.714 293.839,263.400 294.386 C 253.974 298.307,249.596 301.212,242.441 308.295 C 236.464 314.211,236.578 314.150,235.226 312.164 C 233.784 310.047,226.585 302.837,223.600 300.520 C 218.795 296.792,206.517 289.613,207.999 291.399 M323.400 292.920 C 321.934 294.716,321.767 295.025,322.598 294.400 C 323.738 293.543,324.400 292.893,324.400 292.629 C 324.400 292.237,323.819 292.407,323.400 292.920 M316.718 299.287 C 315.770 300.025,315.549 300.059,314.918 299.564 C 314.263 299.050,314.248 299.062,314.749 299.700 C 315.486 300.640,315.986 300.583,317.362 299.400 C 318.766 298.192,318.242 298.100,316.718 299.287 M149.600 300.736 C 149.600 300.920,150.095 301.295,150.700 301.567 L 151.800 302.063 150.917 301.231 C 149.969 300.340,149.600 300.201,149.600 300.736 M155.680 305.337 C 156.273 305.930,157.789 306.800,158.230 306.800 C 158.385 306.800,157.849 306.350,157.038 305.800 C 155.416 304.699,154.849 304.506,155.680 305.337 M305.256 308.013 C 304.016 309.046,304.575 309.035,305.891 308.000 C 306.450 307.560,306.749 307.206,306.554 307.213 C 306.359 307.221,305.775 307.581,305.256 308.013 M184.200 321.200 C 184.336 321.420,184.842 321.587,185.324 321.572 C 186.169 321.545,186.171 321.531,185.400 321.200 C 184.299 320.727,183.908 320.727,184.200 321.200 M189.009 322.713 C 189.647 323.259,191.670 324.037,191.426 323.642 C 191.303 323.442,190.620 323.076,189.910 322.829 C 189.199 322.581,188.794 322.529,189.009 322.713 " stroke="none" fill="#ebb34c" fill-rule="evenodd"></path><path id="path3" d="M320.974 108.902 C 319.937 110.013,319.803 110.250,320.582 109.595 C 322.531 107.954,322.904 107.570,322.722 107.388 C 322.626 107.293,321.840 107.974,320.974 108.902 M299.821 112.465 C 300.301 113.978,301.204 116.000,301.400 116.000 C 301.503 116.000,301.241 115.120,300.817 114.044 C 300.393 112.968,300.156 111.978,300.290 111.844 C 300.424 111.710,300.311 111.600,300.040 111.600 C 299.716 111.600,299.640 111.897,299.821 112.465 M303.200 113.194 C 303.530 113.411,304.235 113.591,304.767 113.594 C 306.051 113.602,305.725 113.375,304.000 113.058 C 303.015 112.877,302.778 112.918,303.200 113.194 M313.000 113.200 L 311.800 113.505 312.876 113.553 C 313.468 113.579,314.064 113.420,314.200 113.200 C 314.336 112.980,314.392 112.821,314.324 112.847 C 314.256 112.873,313.660 113.032,313.000 113.200 M307.091 113.889 C 307.801 113.977,309.061 113.979,309.891 113.892 C 310.721 113.805,310.140 113.733,308.600 113.731 C 307.060 113.729,306.381 113.800,307.091 113.889 M273.855 117.000 C 274.467 117.880,275.020 118.675,275.084 118.767 C 275.148 118.858,275.200 118.762,275.200 118.552 C 275.200 118.342,274.647 117.547,273.971 116.785 L 272.742 115.400 273.855 117.000 M266.748 122.700 C 265.800 124.185,264.473 126.300,263.799 127.400 C 263.126 128.500,262.435 129.625,262.264 129.900 C 262.093 130.175,262.035 130.400,262.135 130.400 C 262.235 130.400,262.906 129.455,263.626 128.300 C 264.347 127.145,265.683 125.030,266.596 123.600 C 268.762 120.209,268.882 120.000,268.659 120.000 C 268.556 120.000,267.696 121.215,266.748 122.700 M281.985 124.771 C 282.747 125.447,283.542 126.000,283.752 126.000 C 283.962 126.000,284.058 125.948,283.967 125.884 C 283.875 125.820,283.080 125.267,282.200 124.655 L 280.600 123.542 281.985 124.771 M305.799 126.799 C 306.003 127.128,305.841 127.541,305.361 127.914 C 304.655 128.464,304.653 128.489,305.333 128.254 C 305.736 128.114,306.141 128.000,306.233 128.000 C 306.607 128.000,306.367 126.827,305.938 126.562 C 305.633 126.373,305.586 126.454,305.799 126.799 M286.400 127.567 C 286.950 128.015,287.655 128.386,287.967 128.391 C 288.694 128.403,288.512 128.252,286.800 127.427 L 285.400 126.752 286.400 127.567 M289.200 128.782 C 289.530 129.005,290.145 129.191,290.567 129.194 C 291.590 129.202,291.271 128.973,289.800 128.644 C 288.924 128.448,288.762 128.485,289.200 128.782 M302.800 128.800 C 301.976 129.064,301.941 129.126,302.600 129.154 C 303.040 129.173,303.670 129.013,304.000 128.800 C 304.701 128.347,304.214 128.347,302.800 128.800 M292.715 129.672 C 293.092 129.821,294.840 129.944,296.600 129.944 C 298.360 129.944,300.108 129.821,300.485 129.672 C 300.862 129.522,299.114 129.400,296.600 129.400 C 294.086 129.400,292.338 129.522,292.715 129.672 M259.570 134.066 C 259.298 134.580,258.813 135.405,258.492 135.900 C 258.171 136.395,257.995 136.800,258.101 136.800 C 258.436 136.800,260.469 133.536,260.262 133.329 C 260.154 133.220,259.842 133.552,259.570 134.066 M255.437 140.600 C 255.076 141.150,254.937 141.600,255.127 141.600 C 255.316 141.600,255.677 141.150,255.927 140.600 C 256.178 140.050,256.317 139.600,256.237 139.600 C 256.157 139.600,255.797 140.050,255.437 140.600 M341.424 143.469 C 340.849 144.497,340.432 145.496,340.496 145.689 C 340.561 145.882,341.104 145.041,341.702 143.820 C 343.028 141.117,342.858 140.902,341.424 143.469 M251.446 147.000 C 251.091 147.550,250.509 148.495,250.153 149.100 L 249.505 150.200 250.310 149.226 C 251.260 148.076,252.521 146.000,252.269 146.000 C 252.171 146.000,251.801 146.450,251.446 147.000 M338.986 149.453 C 338.848 150.084,338.569 151.122,338.367 151.760 C 338.165 152.398,338.029 153.568,338.064 154.360 L 338.128 155.800 338.296 154.400 C 338.388 153.630,338.718 152.023,339.028 150.830 C 339.339 149.636,339.513 148.580,339.416 148.483 C 339.319 148.385,339.125 148.822,338.986 149.453 M306.915 151.496 C 308.188 151.576,310.168 151.575,311.315 151.494 C 312.462 151.414,311.420 151.349,309.000 151.350 C 306.580 151.351,305.642 151.416,306.915 151.496 M301.800 151.979 C 298.297 152.845,289.600 157.209,289.600 158.101 C 289.600 158.288,290.202 157.982,290.938 157.420 C 291.674 156.859,292.411 156.400,292.576 156.400 C 292.741 156.400,293.354 156.070,293.938 155.666 C 295.283 154.736,299.987 152.849,302.600 152.192 C 303.700 151.915,304.240 151.687,303.800 151.685 C 303.360 151.683,302.460 151.815,301.800 151.979 M316.600 152.163 C 319.626 152.834,322.459 153.812,324.919 155.033 C 325.975 155.558,326.743 155.831,326.626 155.642 C 326.028 154.674,318.931 152.069,316.205 151.817 L 314.200 151.631 316.600 152.163 M247.446 153.400 C 247.091 153.950,246.509 154.895,246.153 155.500 L 245.505 156.600 246.310 155.626 C 247.260 154.476,248.521 152.400,248.269 152.400 C 248.171 152.400,247.801 152.850,247.446 153.400 M260.100 153.876 C 260.485 153.976,261.115 153.976,261.500 153.876 C 261.885 153.775,261.570 153.693,260.800 153.693 C 260.030 153.693,259.715 153.775,260.100 153.876 M253.200 154.795 C 252.791 155.055,253.110 155.099,254.200 154.932 C 256.177 154.629,256.514 154.398,254.967 154.406 C 254.325 154.409,253.530 154.584,253.200 154.795 M266.400 154.805 C 267.170 154.977,268.409 155.311,269.154 155.547 C 269.899 155.782,270.391 155.858,270.247 155.714 C 269.763 155.230,267.009 154.412,266.000 154.452 C 265.211 154.484,265.295 154.558,266.400 154.805 M337.734 158.800 C 337.734 160.450,337.805 161.125,337.891 160.300 C 337.978 159.475,337.978 158.125,337.891 157.300 C 337.805 156.475,337.734 157.150,337.734 158.800 M244.812 157.577 C 244.453 158.248,244.513 158.332,245.252 158.190 C 246.357 157.977,246.735 157.600,245.843 157.600 C 245.463 157.600,245.264 157.420,245.400 157.200 C 245.536 156.980,245.553 156.800,245.438 156.800 C 245.322 156.800,245.041 157.150,244.812 157.577 M286.414 160.786 C 285.110 162.098,283.844 163.583,283.599 164.086 C 283.355 164.588,283.748 164.280,284.472 163.400 C 285.196 162.520,286.601 161.037,287.594 160.104 C 288.587 159.172,289.262 158.407,289.093 158.404 C 288.923 158.402,287.718 159.473,286.414 160.786 M333.200 161.000 C 334.617 162.430,335.867 163.600,335.977 163.600 C 336.087 163.600,335.017 162.430,333.600 161.000 C 332.183 159.570,330.933 158.400,330.823 158.400 C 330.713 158.400,331.783 159.570,333.200 161.000 M279.586 162.200 C 280.770 163.520,281.885 164.768,282.063 164.973 C 282.241 165.179,282.475 165.259,282.582 165.151 C 282.690 165.043,281.575 163.795,280.105 162.378 L 277.431 159.800 279.586 162.200 M338.128 164.100 C 338.219 166.330,338.243 166.314,336.977 164.900 C 336.224 164.058,336.298 164.286,337.296 165.873 C 338.775 168.224,338.967 168.008,338.429 164.600 C 338.075 162.362,338.055 162.328,338.128 164.100 M105.206 178.833 C 105.209 179.585,105.377 180.461,105.579 180.779 C 105.816 181.154,105.865 180.730,105.718 179.579 C 105.435 177.370,105.198 177.025,105.206 178.833 M148.482 182.101 C 147.939 182.755,146.227 187.123,146.719 186.600 C 146.926 186.380,147.412 185.349,147.799 184.308 C 148.186 183.268,148.659 182.513,148.851 182.632 C 149.043 182.750,149.200 182.567,149.200 182.224 C 149.200 181.469,149.031 181.440,148.482 182.101 M145.200 189.284 C 145.200 189.404,144.928 190.154,144.595 190.951 C 144.262 191.748,144.079 192.400,144.189 192.400 C 144.506 192.400,145.633 189.500,145.405 189.272 C 145.292 189.159,145.200 189.165,145.200 189.284 M151.873 190.279 C 153.134 193.718,163.602 204.931,164.611 203.923 C 164.700 203.834,163.685 202.969,162.355 202.000 C 158.689 199.330,152.400 192.031,152.400 190.446 C 152.400 190.226,152.222 189.937,152.005 189.803 C 151.768 189.657,151.715 189.848,151.873 190.279 M109.800 192.400 C 110.141 193.060,110.511 193.600,110.621 193.600 C 110.731 193.600,110.541 193.060,110.200 192.400 C 109.859 191.740,109.489 191.200,109.379 191.200 C 109.269 191.200,109.459 191.740,109.800 192.400 M113.140 197.916 C 113.633 198.609,114.244 199.304,114.497 199.460 C 114.750 199.617,114.554 199.177,114.060 198.484 C 113.567 197.791,112.956 197.096,112.703 196.940 C 112.450 196.783,112.646 197.223,113.140 197.916 M115.792 201.174 C 117.331 203.167,119.023 204.889,121.000 206.474 L 123.000 208.077 120.847 206.092 C 119.662 205.000,117.862 203.216,116.847 202.127 C 115.831 201.038,115.356 200.609,115.792 201.174 M202.466 204.568 C 202.612 204.732,202.467 205.500,202.143 206.276 C 201.818 207.052,201.626 207.759,201.714 207.848 C 201.803 207.936,202.158 207.288,202.504 206.407 C 202.971 205.220,203.013 204.737,202.667 204.539 C 202.410 204.392,202.320 204.405,202.466 204.568 M123.889 208.830 C 124.378 209.339,124.878 209.655,125.001 209.532 C 125.124 209.409,124.724 208.992,124.112 208.606 L 123.000 207.904 123.889 208.830 M174.400 208.382 C 174.730 208.605,175.345 208.791,175.767 208.794 C 176.790 208.802,176.471 208.573,175.000 208.244 C 174.124 208.048,173.962 208.085,174.400 208.382 M192.800 208.400 C 191.976 208.664,191.941 208.726,192.600 208.754 C 193.040 208.773,193.670 208.613,194.000 208.400 C 194.701 207.947,194.214 207.947,192.800 208.400 M178.000 209.204 C 178.544 209.552,182.358 209.794,181.967 209.456 C 181.875 209.377,180.810 209.201,179.600 209.066 C 178.130 208.902,177.599 208.948,178.000 209.204 M187.800 209.200 L 185.800 209.474 187.800 209.531 C 188.900 209.562,190.070 209.413,190.400 209.200 C 191.096 208.750,191.079 208.750,187.800 209.200 M257.557 211.490 C 257.055 212.130,257.067 212.148,257.675 211.671 C 258.268 211.208,258.483 211.342,259.429 212.771 C 260.689 214.676,261.173 214.956,260.123 213.173 C 258.901 211.100,258.216 210.650,257.557 211.490 M129.200 212.185 C 129.200 212.899,134.660 214.950,135.018 214.371 C 135.144 214.167,134.781 214.000,134.210 214.000 C 133.640 214.000,132.279 213.547,131.187 212.993 C 130.094 212.440,129.200 212.076,129.200 212.185 M251.529 219.213 C 251.454 219.439,249.774 221.280,247.796 223.302 C 245.818 225.324,245.010 226.279,246.000 225.424 C 248.140 223.576,251.978 219.525,251.991 219.100 C 252.004 218.658,251.688 218.735,251.529 219.213 M264.015 220.200 C 264.017 220.420,264.386 221.050,264.836 221.600 C 265.379 222.264,265.515 222.331,265.240 221.800 C 264.566 220.495,264.012 219.772,264.015 220.200 M266.897 224.900 C 267.221 225.395,268.067 226.745,268.777 227.900 C 269.487 229.055,270.154 230.000,270.258 230.000 C 270.475 230.000,270.404 229.874,268.293 226.500 C 267.432 225.125,266.634 224.000,266.518 224.000 C 266.403 224.000,266.573 224.405,266.897 224.900 M242.603 227.997 C 242.206 228.435,240.244 229.902,238.241 231.257 C 234.801 233.585,233.013 234.949,234.400 234.188 C 237.314 232.588,244.485 227.200,243.700 227.200 C 243.493 227.200,243.000 227.559,242.603 227.997 M271.009 231.426 C 271.381 232.101,272.041 233.091,272.476 233.626 L 273.267 234.600 272.591 233.374 C 272.219 232.699,271.559 231.709,271.124 231.174 L 270.333 230.200 271.009 231.426 M231.100 235.829 C 229.605 236.640,229.696 236.978,231.200 236.200 C 231.860 235.859,232.400 235.494,232.400 235.390 C 232.400 235.132,232.357 235.147,231.100 235.829 M274.800 237.329 C 274.800 237.694,276.845 240.800,277.086 240.800 C 277.279 240.800,275.692 238.048,275.136 237.420 C 274.951 237.211,274.800 237.170,274.800 237.329 M194.000 239.600 C 194.330 239.813,194.960 239.978,195.400 239.966 L 196.200 239.944 195.400 239.600 C 194.204 239.086,193.205 239.086,194.000 239.600 M197.200 240.382 C 197.530 240.605,198.145 240.791,198.567 240.794 C 199.590 240.802,199.271 240.573,197.800 240.244 C 196.924 240.048,196.762 240.085,197.200 240.382 M218.800 240.400 C 217.976 240.664,217.941 240.726,218.600 240.754 C 219.040 240.773,219.670 240.613,220.000 240.400 C 220.701 239.947,220.214 239.947,218.800 240.400 M201.000 241.186 C 201.757 241.525,205.121 241.764,204.767 241.454 C 204.675 241.374,203.610 241.200,202.400 241.068 C 200.963 240.912,200.478 240.952,201.000 241.186 M213.800 241.200 L 212.200 241.486 213.800 241.515 C 214.680 241.531,215.760 241.389,216.200 241.200 L 217.000 240.856 216.200 240.885 C 215.760 240.901,214.680 241.042,213.800 241.200 M279.350 244.600 C 279.674 245.260,280.231 246.160,280.589 246.600 C 281.197 247.348,281.201 247.322,280.650 246.200 C 280.326 245.540,279.769 244.640,279.411 244.200 C 278.803 243.452,278.799 243.478,279.350 244.600 M283.622 251.400 C 284.118 252.280,284.790 253.270,285.116 253.600 C 285.905 254.399,284.610 252.109,283.518 250.774 C 282.846 249.953,282.863 250.051,283.622 251.400 M285.600 254.510 C 285.600 254.890,289.253 260.400,289.505 260.400 C 289.698 260.400,289.235 259.645,286.934 256.205 C 286.200 255.108,285.600 254.345,285.600 254.510 M289.622 261.000 C 289.627 261.529,290.742 262.991,290.969 262.765 C 291.066 262.668,290.802 262.141,290.382 261.594 C 289.961 261.047,289.620 260.780,289.622 261.000 M291.200 263.320 C 291.200 263.704,293.245 266.800,293.499 266.800 C 293.678 266.800,293.041 265.719,291.739 263.811 C 291.442 263.377,291.200 263.156,291.200 263.320 M300.405 278.000 C 301.202 279.553,304.855 285.200,305.062 285.200 C 305.164 285.200,305.163 285.065,305.061 284.900 C 300.844 278.122,299.272 275.794,300.405 278.000 M177.500 285.482 C 177.995 285.578,178.805 285.578,179.300 285.482 C 179.795 285.387,179.390 285.309,178.400 285.309 C 177.410 285.309,177.005 285.387,177.500 285.482 M186.300 285.489 C 187.015 285.578,188.185 285.578,188.900 285.489 C 189.615 285.401,189.030 285.328,187.600 285.328 C 186.170 285.328,185.585 285.401,186.300 285.489 M173.705 285.887 C 174.314 285.979,175.214 285.977,175.705 285.882 C 176.197 285.787,175.700 285.711,174.600 285.714 C 173.500 285.717,173.097 285.795,173.705 285.887 M191.200 285.864 C 191.750 285.950,193.790 286.390,195.733 286.843 C 197.677 287.296,199.342 287.591,199.434 287.499 C 199.706 287.228,192.509 285.595,191.304 285.654 C 190.241 285.707,190.237 285.715,191.200 285.864 M166.200 287.046 C 164.639 287.595,164.634 287.602,166.000 287.352 C 166.770 287.211,168.210 286.964,169.200 286.802 L 171.000 286.507 169.400 286.495 C 168.520 286.489,167.080 286.737,166.200 287.046 M200.000 287.714 C 200.297 288.030,204.921 289.612,205.081 289.453 C 205.156 289.377,204.449 289.034,203.509 288.690 C 201.268 287.870,199.750 287.448,200.000 287.714 M160.519 288.562 C 158.754 289.205,158.382 289.671,160.046 289.156 C 163.104 288.210,163.443 288.068,162.600 288.082 C 162.160 288.089,161.224 288.305,160.519 288.562 M306.815 288.200 C 306.817 288.420,307.186 289.050,307.636 289.600 C 308.179 290.264,308.315 290.331,308.040 289.800 C 307.366 288.495,306.812 287.772,306.815 288.200 M277.800 290.788 C 276.301 291.003,277.095 291.090,280.967 291.137 C 283.808 291.172,286.058 291.132,285.967 291.049 C 285.594 290.710,279.664 290.521,277.800 290.788 M209.233 291.352 C 209.664 291.744,213.751 293.636,213.400 293.281 C 212.809 292.682,210.047 291.200,209.521 291.200 C 209.271 291.200,209.142 291.268,209.233 291.352 M271.200 291.596 C 270.799 291.852,271.330 291.898,272.800 291.734 C 274.010 291.599,275.075 291.423,275.167 291.344 C 275.558 291.006,271.744 291.248,271.200 291.596 M287.633 291.344 C 287.725 291.423,288.700 291.591,289.800 291.718 C 291.087 291.867,291.515 291.826,291.000 291.603 C 290.236 291.272,287.286 291.045,287.633 291.344 M267.600 292.400 C 266.836 292.894,267.658 292.894,269.200 292.400 L 270.200 292.080 269.200 292.046 C 268.650 292.027,267.930 292.187,267.600 292.400 M293.400 292.400 C 294.501 292.873,294.892 292.873,294.600 292.400 C 294.464 292.180,293.958 292.013,293.476 292.028 C 292.631 292.055,292.629 292.069,293.400 292.400 M265.000 293.200 C 264.708 293.673,265.099 293.673,266.200 293.200 C 266.971 292.869,266.969 292.855,266.124 292.828 C 265.642 292.813,265.136 292.980,265.000 293.200 M296.600 293.200 C 297.701 293.673,298.092 293.673,297.800 293.200 C 297.664 292.980,297.158 292.813,296.676 292.828 C 295.831 292.855,295.829 292.869,296.600 293.200 M146.624 295.013 C 146.196 295.336,146.027 295.600,146.247 295.600 C 146.467 295.600,146.996 295.336,147.424 295.013 C 147.851 294.690,148.020 294.425,147.800 294.425 C 147.580 294.425,147.051 294.690,146.624 295.013 M215.820 294.732 C 216.029 294.914,217.640 296.022,219.400 297.193 C 224.743 300.748,232.411 307.756,234.689 311.167 C 234.750 311.258,234.884 311.250,234.986 311.147 C 235.745 310.389,224.864 300.357,218.965 296.376 C 216.400 294.645,214.708 293.761,215.820 294.732 M310.818 294.600 C 310.818 294.820,311.170 295.450,311.600 296.000 C 312.030 296.550,312.382 296.820,312.382 296.600 C 312.382 296.380,312.030 295.750,311.600 295.200 C 311.170 294.650,310.818 294.380,310.818 294.600 M256.700 296.629 C 255.149 297.470,255.325 297.761,256.900 296.959 C 258.408 296.193,258.675 295.994,258.167 296.016 C 257.965 296.025,257.305 296.301,256.700 296.629 M253.600 298.400 C 253.050 298.830,252.780 299.182,253.000 299.182 C 253.220 299.182,253.850 298.830,254.400 298.400 C 254.950 297.970,255.220 297.618,255.000 297.618 C 254.780 297.618,254.150 297.970,253.600 298.400 M250.400 300.482 C 247.201 302.696,242.543 306.990,238.600 311.360 C 236.314 313.894,237.905 312.481,241.157 309.091 C 243.431 306.721,246.890 303.595,248.845 302.145 C 251.888 299.888,252.780 299.132,252.300 299.218 C 252.245 299.228,251.390 299.796,250.400 300.482 M313.739 299.937 C 313.499 300.100,313.563 300.581,313.908 301.200 C 314.410 302.099,314.447 302.111,314.276 301.321 C 314.147 300.724,314.297 300.399,314.743 300.309 C 315.335 300.190,315.337 300.151,314.764 299.925 C 314.414 299.787,313.953 299.792,313.739 299.937 " stroke="none" fill="#968464" fill-rule="evenodd"></path><path id="path4" d="M322.432 106.449 C 322.401 107.077,320.052 109.445,318.000 110.917 C 317.033 111.611,317.043 111.612,318.303 110.929 C 320.117 109.947,322.937 106.988,322.678 106.338 C 322.522 105.949,322.454 105.979,322.432 106.449 M299.326 111.447 C 299.198 111.781,299.308 112.267,299.571 112.527 C 299.939 112.892,299.987 112.840,299.781 112.300 C 299.473 111.491,299.730 111.427,300.861 112.032 C 301.305 112.270,301.754 112.379,301.859 112.274 C 301.964 112.169,301.489 111.804,300.805 111.462 C 299.695 110.909,299.534 110.907,299.326 111.447 M313.200 112.800 C 312.667 113.145,312.667 113.188,313.200 113.188 C 313.530 113.188,314.070 113.013,314.400 112.800 C 314.933 112.455,314.933 112.412,314.400 112.412 C 314.070 112.412,313.530 112.587,313.200 112.800 M307.100 113.493 C 308.035 113.577,309.565 113.577,310.500 113.493 C 311.435 113.409,310.670 113.340,308.800 113.340 C 306.930 113.340,306.165 113.409,307.100 113.493 M270.352 116.100 C 270.090 116.595,269.615 117.450,269.296 118.000 C 268.739 118.959,268.743 118.967,269.388 118.200 C 270.186 117.252,271.305 115.200,271.024 115.200 C 270.916 115.200,270.614 115.605,270.352 116.100 M301.628 117.292 C 301.582 117.765,302.886 120.848,303.058 120.675 C 303.145 120.588,302.866 119.725,302.437 118.758 C 302.008 117.791,301.644 117.131,301.628 117.292 M277.704 121.013 C 279.191 122.436,280.626 123.600,280.893 123.600 C 281.160 123.600,280.933 123.300,280.389 122.933 C 279.845 122.566,278.524 121.396,277.454 120.333 C 276.383 119.270,275.393 118.406,275.254 118.413 C 275.114 118.421,276.217 119.591,277.704 121.013 M304.715 125.000 C 305.140 126.100,305.400 127.270,305.294 127.600 C 305.150 128.046,305.221 128.087,305.571 127.759 C 306.046 127.315,305.191 124.355,304.311 123.400 C 304.109 123.180,304.290 123.900,304.715 125.000 M262.873 128.200 C 262.622 128.750,262.483 129.200,262.563 129.200 C 262.643 129.200,263.003 128.750,263.363 128.200 C 263.724 127.650,263.863 127.200,263.673 127.200 C 263.484 127.200,263.123 127.650,262.873 128.200 M292.222 129.253 C 292.870 129.392,294.840 129.505,296.600 129.505 C 298.360 129.505,300.328 129.392,300.974 129.253 C 301.620 129.114,299.650 129.000,296.596 129.000 C 293.543 129.000,291.575 129.114,292.222 129.253 M260.230 132.438 C 259.192 133.999,258.418 135.351,258.509 135.442 C 258.600 135.534,259.209 134.752,259.861 133.704 C 260.513 132.657,261.372 131.305,261.769 130.700 C 262.167 130.095,262.408 129.600,262.305 129.600 C 262.202 129.600,261.268 130.877,260.230 132.438 M256.725 138.100 C 254.195 141.928,253.906 142.400,254.097 142.400 C 254.264 142.400,255.359 140.823,257.777 137.100 C 258.170 136.495,258.407 136.000,258.303 136.000 C 258.198 136.000,257.489 136.945,256.725 138.100 M345.046 138.633 C 343.835 139.955,342.176 142.400,342.489 142.400 C 342.564 142.400,343.335 141.419,344.203 140.220 C 345.072 139.022,346.146 137.864,346.591 137.647 C 347.036 137.431,347.166 137.242,346.880 137.227 C 346.593 137.212,345.768 137.845,345.046 138.633 M252.943 144.124 C 251.829 145.818,251.518 146.400,251.723 146.400 C 251.984 146.400,254.079 143.146,253.921 142.988 C 253.845 142.911,253.405 143.423,252.943 144.124 M248.717 150.700 C 248.173 151.525,247.514 152.650,247.253 153.200 L 246.777 154.200 247.488 153.234 C 248.507 151.852,250.076 149.200,249.876 149.200 C 249.783 149.200,249.261 149.875,248.717 150.700 M338.629 152.229 C 338.481 152.815,338.438 153.372,338.532 153.466 C 338.627 153.560,338.824 153.158,338.971 152.571 C 339.119 151.985,339.162 151.428,339.068 151.334 C 338.973 151.240,338.776 151.642,338.629 152.229 M305.100 151.882 C 305.595 151.978,306.405 151.978,306.900 151.882 C 307.395 151.787,306.990 151.709,306.000 151.709 C 305.010 151.709,304.605 151.787,305.100 151.882 M312.305 151.883 C 312.802 151.979,313.522 151.975,313.905 151.875 C 314.287 151.775,313.880 151.696,313.000 151.701 C 312.120 151.705,311.807 151.787,312.305 151.883 M257.000 154.369 C 256.340 154.520,257.960 154.640,260.600 154.635 C 263.240 154.630,264.860 154.507,264.200 154.361 C 262.638 154.014,258.529 154.019,257.000 154.369 M253.000 155.200 L 252.200 155.544 253.000 155.566 C 253.440 155.578,254.070 155.413,254.400 155.200 C 255.195 154.686,254.196 154.686,253.000 155.200 M266.800 155.200 C 267.130 155.413,267.670 155.588,268.000 155.588 C 268.533 155.588,268.533 155.545,268.000 155.200 C 267.670 154.987,267.130 154.812,266.800 154.812 C 266.267 154.812,266.267 154.855,266.800 155.200 M244.631 157.300 C 244.072 158.235,243.779 159.056,243.978 159.123 C 244.375 159.259,247.600 157.708,247.600 157.382 C 247.600 157.270,247.069 157.454,246.420 157.790 C 244.579 158.742,244.254 158.531,245.200 157.000 C 245.676 156.230,245.971 155.600,245.855 155.600 C 245.740 155.600,245.189 156.365,244.631 157.300 M326.800 156.367 C 327.763 157.152,328.400 157.408,328.400 157.010 C 328.400 156.906,327.815 156.535,327.100 156.186 L 325.800 155.552 326.800 156.367 M338.142 159.000 C 338.141 160.980,338.208 161.840,338.292 160.912 C 338.376 159.984,338.377 158.364,338.295 157.312 C 338.212 156.260,338.143 157.020,338.142 159.000 M289.900 158.206 C 288.635 159.199,287.600 160.098,287.600 160.202 C 287.600 160.307,288.680 159.572,290.000 158.568 C 292.080 156.986,292.703 156.399,292.300 156.400 C 292.245 156.400,291.165 157.213,289.900 158.206 M272.800 157.379 C 272.800 157.489,273.340 157.859,274.000 158.200 C 274.660 158.541,275.200 158.731,275.200 158.621 C 275.200 158.511,274.660 158.141,274.000 157.800 C 273.340 157.459,272.800 157.269,272.800 157.379 M330.240 158.741 C 331.837 159.909,335.100 163.256,336.731 165.400 C 337.490 166.397,337.563 166.431,337.163 165.600 C 336.537 164.300,329.864 157.600,329.194 157.600 C 328.911 157.600,329.382 158.113,330.240 158.741 M276.000 159.264 C 277.926 161.195,281.232 163.998,280.000 162.655 C 279.230 161.816,277.880 160.574,277.000 159.896 C 276.120 159.218,275.670 158.933,276.000 159.264 M338.657 166.200 C 338.885 168.109,338.865 168.164,338.226 167.400 C 337.567 166.614,337.563 166.615,337.992 167.500 C 338.232 167.995,338.589 168.400,338.785 168.400 C 338.981 168.400,339.230 168.715,339.338 169.100 C 339.445 169.485,339.435 168.810,339.315 167.600 C 339.194 166.390,338.943 165.130,338.757 164.800 C 338.558 164.449,338.517 165.030,338.657 166.200 M148.069 182.039 C 147.328 183.224,147.657 183.313,148.519 182.161 C 148.914 181.632,149.092 181.200,148.915 181.200 C 148.738 181.200,148.357 181.578,148.069 182.039 M149.206 182.633 C 149.209 183.055,149.395 183.670,149.618 184.000 C 149.915 184.438,149.952 184.276,149.756 183.400 C 149.427 181.929,149.198 181.610,149.206 182.633 M109.079 190.300 C 109.367 191.094,110.400 192.697,110.400 192.350 C 110.400 192.002,109.163 189.600,108.983 189.600 C 108.896 189.600,108.939 189.915,109.079 190.300 M111.472 194.700 C 114.615 200.102,126.004 211.861,125.999 209.699 C 125.999 209.535,125.234 208.916,124.299 208.324 C 120.927 206.189,114.380 199.011,111.872 194.700 C 111.264 193.655,110.676 192.800,110.566 192.800 C 110.456 192.800,110.864 193.655,111.472 194.700 M158.857 198.905 C 161.591 201.587,164.926 204.039,167.884 205.544 C 170.532 206.890,170.466 206.526,167.800 205.084 C 164.424 203.258,161.974 201.509,158.878 198.714 L 156.200 196.298 158.857 198.905 M141.190 198.200 C 140.976 198.750,140.609 199.695,140.375 200.300 C 140.141 200.905,140.114 201.220,140.315 201.000 C 140.786 200.483,142.058 197.200,141.787 197.200 C 141.673 197.200,141.405 197.650,141.190 198.200 M138.250 205.191 C 137.347 207.447,137.487 207.783,138.437 205.642 C 138.866 204.675,139.145 203.812,139.058 203.725 C 138.971 203.638,138.608 204.298,138.250 205.191 M200.000 205.427 C 198.570 206.172,197.096 206.787,196.724 206.791 C 196.352 206.796,195.943 206.968,195.816 207.174 C 195.472 207.730,197.653 207.029,200.307 205.729 C 201.568 205.112,202.825 204.658,203.100 204.721 C 203.375 204.784,203.600 204.647,203.600 204.418 C 203.600 203.749,202.773 203.981,200.000 205.427 M172.238 207.370 C 172.919 207.667,174.089 208.019,174.838 208.153 C 175.717 208.311,175.420 208.118,174.000 207.610 C 171.495 206.713,170.381 206.562,172.238 207.370 M193.200 208.018 C 192.762 208.315,192.924 208.352,193.800 208.156 C 195.271 207.827,195.590 207.598,194.567 207.606 C 194.145 207.609,193.530 207.795,193.200 208.018 M176.433 208.549 C 176.525 208.631,177.500 208.801,178.600 208.928 C 179.949 209.084,180.274 209.049,179.600 208.820 C 178.601 208.480,176.118 208.268,176.433 208.549 M188.800 208.820 C 188.126 209.049,188.451 209.084,189.800 208.928 C 190.900 208.801,191.875 208.631,191.967 208.549 C 192.282 208.268,189.799 208.480,188.800 208.820 M182.900 209.487 C 183.505 209.578,184.495 209.578,185.100 209.487 C 185.705 209.395,185.210 209.320,184.000 209.320 C 182.790 209.320,182.295 209.395,182.900 209.487 M126.600 210.290 C 126.820 210.500,127.720 211.076,128.600 211.570 C 129.480 212.065,129.840 212.170,129.400 211.804 C 128.506 211.061,125.972 209.691,126.600 210.290 M257.544 211.100 C 256.466 212.402,256.193 213.039,257.201 211.902 C 258.164 210.815,258.229 210.800,258.945 211.486 C 259.665 212.177,259.672 212.170,259.148 211.300 C 258.497 210.216,258.297 210.191,257.544 211.100 M260.749 214.200 C 260.965 214.640,261.434 215.360,261.793 215.800 L 262.444 216.600 262.051 215.800 C 261.835 215.360,261.366 214.640,261.007 214.200 L 260.356 213.400 260.749 214.200 M253.375 216.668 C 252.759 217.476,252.459 218.011,252.709 217.856 C 253.221 217.540,254.953 215.200,254.675 215.200 C 254.576 215.200,253.991 215.861,253.375 216.668 M263.208 218.086 C 263.197 218.480,266.811 224.400,267.063 224.400 C 267.174 224.400,266.855 223.725,266.355 222.900 C 264.017 219.049,263.215 217.822,263.208 218.086 M196.831 219.700 C 196.639 220.195,196.106 221.545,195.647 222.700 C 195.187 223.855,194.904 224.800,195.016 224.800 C 195.128 224.800,195.377 224.395,195.569 223.900 C 195.761 223.405,196.294 222.055,196.753 220.900 C 197.213 219.745,197.496 218.800,197.384 218.800 C 197.272 218.800,197.023 219.205,196.831 219.700 M247.392 223.280 C 245.197 225.524,244.316 226.535,245.435 225.525 C 247.601 223.571,251.828 219.200,251.551 219.200 C 251.459 219.200,249.588 221.036,247.392 223.280 M193.579 227.455 C 193.358 228.036,193.252 228.585,193.343 228.676 C 193.433 228.767,193.699 228.292,193.933 227.620 C 194.453 226.128,194.139 225.982,193.579 227.455 M269.630 228.600 C 270.124 229.480,270.700 230.380,270.910 230.600 C 271.509 231.228,270.139 228.694,269.396 227.800 C 269.030 227.360,269.135 227.720,269.630 228.600 M240.785 229.229 L 239.400 230.458 240.900 229.381 C 242.226 228.430,242.657 228.000,242.285 228.000 C 242.222 228.000,241.547 228.553,240.785 229.229 M232.696 234.550 C 230.775 235.731,230.238 236.289,231.800 235.481 C 233.054 234.833,234.745 233.626,234.400 233.625 C 234.290 233.625,233.523 234.041,232.696 234.550 M273.415 234.700 C 274.756 236.785,275.200 237.377,275.200 237.080 C 275.200 236.696,273.155 233.600,272.901 233.600 C 272.795 233.600,273.026 234.095,273.415 234.700 M226.800 237.600 C 225.810 238.015,225.203 238.365,225.451 238.378 C 226.018 238.406,228.800 237.257,228.800 236.995 C 228.800 236.748,228.912 236.714,226.800 237.600 M221.074 239.425 C 218.388 240.158,217.918 240.417,219.800 240.127 C 221.500 239.866,224.614 238.842,223.600 238.878 C 223.270 238.890,222.133 239.136,221.074 239.425 M196.800 240.000 C 198.168 240.438,199.219 240.438,198.200 240.000 C 197.760 239.811,197.040 239.662,196.600 239.668 C 195.957 239.677,195.996 239.743,196.800 240.000 M277.422 241.100 C 279.559 244.395,280.124 245.200,280.299 245.200 C 280.405 245.200,280.171 244.705,279.778 244.100 C 277.641 240.805,277.076 240.000,276.901 240.000 C 276.795 240.000,277.029 240.495,277.422 241.100 M199.233 240.550 C 199.325 240.632,200.480 240.800,201.800 240.923 C 203.378 241.070,203.789 241.035,203.000 240.820 C 201.766 240.485,198.936 240.282,199.233 240.550 M214.200 240.820 C 213.411 241.035,213.822 241.070,215.400 240.923 C 216.720 240.800,217.875 240.632,217.967 240.550 C 218.264 240.282,215.434 240.485,214.200 240.820 M206.713 241.495 C 207.876 241.576,209.676 241.576,210.713 241.493 C 211.751 241.411,210.800 241.345,208.600 241.346 C 206.400 241.347,205.551 241.414,206.713 241.495 M281.194 247.100 C 281.659 247.925,282.412 249.050,282.867 249.600 L 283.695 250.600 282.995 249.435 C 282.611 248.794,281.941 247.669,281.508 246.935 C 280.425 245.098,280.148 245.244,281.194 247.100 M285.750 254.200 C 286.074 254.860,286.631 255.760,286.989 256.200 C 287.597 256.948,287.601 256.922,287.050 255.800 C 286.726 255.140,286.169 254.240,285.811 253.800 C 285.203 253.052,285.199 253.078,285.750 254.200 M289.815 260.700 C 291.156 262.785,291.600 263.377,291.600 263.080 C 291.600 262.696,289.555 259.600,289.301 259.600 C 289.195 259.600,289.426 260.095,289.815 260.700 M293.809 267.026 C 294.181 267.701,294.841 268.691,295.276 269.226 L 296.067 270.200 295.391 268.974 C 295.019 268.299,294.359 267.309,293.924 266.774 L 293.133 265.800 293.809 267.026 M296.800 271.713 C 296.800 272.095,299.650 276.400,299.903 276.400 C 300.007 276.400,299.772 275.905,299.382 275.300 C 297.644 272.608,296.800 271.436,296.800 271.713 M301.682 279.434 C 302.187 280.333,302.923 281.503,303.318 282.034 C 303.712 282.565,303.622 282.265,303.118 281.366 C 302.613 280.467,301.877 279.297,301.482 278.766 C 301.088 278.235,301.178 278.535,301.682 279.434 M305.278 285.300 C 305.592 285.795,306.263 286.884,306.770 287.721 C 307.277 288.558,307.774 289.160,307.875 289.059 C 308.070 288.863,305.218 284.400,304.897 284.400 C 304.793 284.400,304.965 284.805,305.278 285.300 M181.091 285.489 C 181.801 285.577,183.061 285.579,183.891 285.492 C 184.721 285.405,184.140 285.333,182.600 285.331 C 181.060 285.329,180.381 285.400,181.091 285.489 M176.900 285.876 C 177.285 285.976,177.915 285.976,178.300 285.876 C 178.685 285.775,178.370 285.693,177.600 285.693 C 176.830 285.693,176.515 285.775,176.900 285.876 M186.700 285.889 C 187.415 285.978,188.585 285.978,189.300 285.889 C 190.015 285.801,189.430 285.728,188.000 285.728 C 186.570 285.728,185.985 285.801,186.700 285.889 M192.600 286.400 C 193.040 286.589,193.760 286.738,194.200 286.732 C 194.843 286.723,194.804 286.657,194.000 286.400 C 192.632 285.962,191.581 285.962,192.600 286.400 M167.000 287.200 C 166.496 287.417,166.422 287.544,166.800 287.544 C 167.130 287.544,167.760 287.389,168.200 287.200 C 168.704 286.983,168.778 286.856,168.400 286.856 C 168.070 286.856,167.440 287.011,167.000 287.200 M196.200 287.200 C 196.640 287.389,197.270 287.544,197.600 287.544 C 197.978 287.544,197.904 287.417,197.400 287.200 C 196.960 287.011,196.330 286.856,196.000 286.856 C 195.622 286.856,195.696 286.983,196.200 287.200 M308.620 290.700 C 310.697 293.910,312.000 295.756,312.000 295.490 C 312.000 295.110,308.347 289.600,308.095 289.600 C 307.992 289.600,308.228 290.095,308.620 290.700 M278.319 291.498 C 280.144 291.572,283.024 291.572,284.719 291.497 C 286.414 291.422,284.920 291.361,281.400 291.362 C 277.880 291.362,276.494 291.424,278.319 291.498 M151.689 292.661 C 150.529 293.239,149.642 293.775,149.719 293.852 C 149.882 294.016,154.000 292.007,154.000 291.764 C 154.000 291.516,153.955 291.533,151.689 292.661 M271.000 292.000 C 269.911 292.277,269.893 292.307,270.800 292.325 C 271.350 292.335,272.160 292.189,272.600 292.000 C 273.586 291.576,272.666 291.576,271.000 292.000 M289.800 291.990 C 290.564 292.328,293.114 292.557,292.767 292.256 C 292.675 292.176,291.790 292.004,290.800 291.873 C 289.598 291.714,289.266 291.753,289.800 291.990 M267.600 292.800 C 266.776 293.064,266.741 293.126,267.400 293.154 C 267.840 293.173,268.470 293.013,268.800 292.800 C 269.501 292.347,269.014 292.347,267.600 292.800 M293.600 292.794 C 293.930 293.011,294.635 293.191,295.167 293.194 C 296.451 293.202,296.125 292.975,294.400 292.658 C 293.415 292.477,293.178 292.518,293.600 292.794 M147.600 294.891 C 146.201 295.769,145.618 296.351,145.606 296.882 C 145.603 297.037,146.005 296.767,146.500 296.282 C 146.995 295.797,147.850 295.094,148.400 294.721 C 149.858 293.731,149.241 293.862,147.600 294.891 M215.000 294.607 C 215.440 294.966,216.160 295.435,216.600 295.651 L 217.400 296.044 216.600 295.393 C 216.160 295.034,215.440 294.565,215.000 294.349 L 214.200 293.956 215.000 294.607 M259.800 295.578 C 258.920 295.995,258.313 296.350,258.451 296.368 C 258.840 296.418,261.600 295.214,261.600 294.995 C 261.600 294.727,261.599 294.727,259.800 295.578 M312.400 296.529 C 312.400 296.894,314.445 300.000,314.686 300.000 C 314.879 300.000,313.292 297.248,312.736 296.620 C 312.551 296.411,312.400 296.370,312.400 296.529 M308.033 297.749 C 308.445 298.117,310.800 299.200,310.800 299.021 C 310.800 298.790,308.582 297.600,308.153 297.600 C 307.996 297.600,307.942 297.667,308.033 297.749 M221.200 298.514 C 221.200 298.606,222.325 299.533,223.700 300.573 C 225.075 301.614,225.570 301.897,224.800 301.203 C 223.193 299.755,221.200 298.266,221.200 298.514 M251.384 300.311 C 250.038 301.517,250.381 301.411,252.154 300.072 C 252.789 299.592,253.149 299.205,252.954 299.211 C 252.759 299.217,252.053 299.712,251.384 300.311 M311.200 299.360 C 311.200 299.449,311.875 299.902,312.700 300.368 L 314.200 301.216 313.000 300.210 C 311.899 299.287,311.200 298.957,311.200 299.360 M227.200 303.252 C 227.200 303.564,231.697 308.036,231.853 307.880 C 231.922 307.811,230.904 306.690,229.590 305.390 C 228.275 304.089,227.200 303.127,227.200 303.252 M242.592 307.700 L 239.000 311.400 242.700 307.808 C 244.735 305.833,246.400 304.168,246.400 304.108 C 246.400 303.818,245.928 304.264,242.592 307.700 " stroke="none" fill="#a69169" fill-rule="evenodd"></path></g></svg>